<svg width="528" height="451" viewBox="0 0 528 451" fill="none" xmlns="http://www.w3.org/2000/svg">
<g clip-path="url(#clip0)">
<path d="M346.584 174.663L366.157 178.033V199.049L344.014 212.133L346.584 174.663Z" fill="#D6D8E5"/>
<path d="M269.28 9.51634L276.2 65.2262V124.703C276.2 129.461 279.561 135.21 283.713 137.59L360.819 198.454C364.971 200.833 368.332 199.049 368.332 194.291V107.851C368.332 103.093 364.971 97.3436 360.819 94.9645L309.217 65.0279L305.461 36.0826C304.274 25.5751 296.959 14.0762 288.26 9.11983L278.374 3.37042C274.025 0.991348 268.687 4.55995 269.28 9.51634Z" fill="#D6D8E5"/>
<path d="M245.95 10.1111L266.512 22.0064C275.013 26.9628 282.329 38.4617 283.713 48.9692L287.469 77.9145L339.071 107.851C343.223 110.23 346.584 115.98 346.584 120.738V206.979C346.584 211.737 343.223 213.72 339.071 211.341L261.965 150.476C257.813 148.097 254.452 142.348 254.452 137.59V78.1128L245.95 10.1111Z" fill="#C9CCE1"/>
<path d="M91.3417 349.327L334.524 208.367V171.689L91.3417 312.649V349.327Z" fill="#D6D8E5"/>
<path d="M286.283 103.886L327.802 127.875C333.733 131.245 338.478 139.572 338.478 146.313V184.378L286.283 137.986V103.886Z" fill="#C9CCE1"/>
<path d="M95.4936 325.338L338.478 184.378L286.283 103.886L43.2985 244.846L95.4936 325.338Z" fill="#C9CCE1"/>
<path d="M0.197753 162.768L40.5304 220.857L62.2784 207.97L84.6195 220.857L276.397 109.635L286.48 103.886L287.667 77.9145L309.415 65.0279L305.658 36.0826C304.472 25.575 297.157 14.0762 288.458 9.11978L276.595 2.18083C271.257 -0.991265 264.535 -0.991265 259.394 2.18083L246.148 9.9128L10.4786 146.511C4.15193 150.08 -0.790792 151.864 0.197753 162.768Z" fill="#D6D8E5"/>
<path d="M253.661 128.866L314.951 163.957L343.223 103.489L282.526 68.5964L253.661 128.866Z" fill="#2B303F"/>
<path d="M321.08 131.642C313.369 148.494 310.799 162.966 315.346 163.958C319.696 165.147 329.581 152.261 337.094 135.607C344.607 118.954 347.375 104.481 342.828 103.291C338.478 102.3 328.592 114.989 321.08 131.642Z" fill="#D6D8E5"/>
<path d="M260.185 96.7489C252.475 113.601 249.904 128.073 254.452 129.065C258.801 130.254 268.687 117.367 276.2 100.714C283.91 83.8622 286.48 69.3896 281.933 68.3983C277.584 67.2088 267.698 79.8971 260.185 96.7489Z" fill="#2B303F"/>
<path d="M73.9431 226.21C67.0233 219.073 64.6507 208.763 68.8026 203.014C72.7568 197.463 81.6537 198.652 88.5736 205.79C95.4934 212.927 97.8659 223.236 93.714 228.985C89.7598 234.537 80.8629 233.347 73.9431 226.21Z" fill="#2B303F"/>
<path d="M78.4905 229.779L134.047 261.896L138.792 233.545L83.4332 201.824L78.4905 229.779Z" fill="#2B303F"/>
<path d="M128.906 257.732C121.986 250.595 119.614 240.286 123.766 234.536C127.72 228.985 136.617 230.175 143.537 237.312C150.457 244.449 152.829 254.758 148.677 260.508C144.525 266.059 135.826 264.87 128.906 257.732Z" fill="#D6D8E5"/>
<path d="M99.4478 350.12V263.879C99.4478 259.12 96.0867 253.371 91.9348 250.992L40.3327 221.055L62.0807 208.169L113.683 238.105C117.835 240.484 121.196 246.234 121.196 250.992V337.233C121.196 339.612 120.405 341.396 119.021 342.19L97.273 354.878C98.6569 354.085 99.4478 352.499 99.4478 350.12Z" fill="#D6D8E5"/>
<path d="M0.395372 164.552C-0.988592 157.217 5.53582 157.018 7.90833 158.406L19.5732 165.147C28.0747 170.103 35.3899 181.602 36.7739 192.11L40.5303 221.055L92.1324 250.992C96.2843 253.371 99.6454 259.12 99.6454 263.878V350.12C99.6454 354.878 96.2843 356.86 92.1324 354.481L15.0259 309.874C10.874 307.495 7.51291 301.745 7.51291 296.987V221.253L0.395372 164.552Z" fill="#DBD2C4"/>
<path d="M0.395372 164.552C-0.988592 157.217 5.53582 157.018 7.90833 158.406L19.5732 165.147C28.0747 170.103 35.3899 181.602 36.7739 192.11L40.5303 221.055L92.1324 250.992C96.2843 253.371 99.6454 259.12 99.6454 263.878V350.12C99.6454 354.878 96.2843 356.86 92.1324 354.481L15.0259 309.874C10.874 307.495 7.51291 301.745 7.51291 296.987V221.253L0.395372 164.552Z" fill="#C9CCE1"/>
<path d="M144.525 68.7948L203.838 34.6948C204.234 34.2983 204.827 34.1 205.42 33.9018C207.199 33.307 208.979 33.307 210.758 34.2983L220.643 40.0477C229.145 45.0041 236.46 56.5029 237.646 67.0105L241.601 124.108C241.798 127.082 243.578 129.858 246.148 131.444L278.968 150.476L289.051 156.424C293.203 158.803 301.111 166.535 301.111 176.646L300.913 195.48L271.455 212.134L166.867 272.602L167.064 248.613C167.064 243.855 163.703 238.105 159.551 235.726L112.101 208.367C109.531 206.781 107.752 204.005 107.554 201.031L103.6 143.934C102.413 133.426 95.0981 121.927 86.3989 116.971L76.5135 111.221C74.5364 110.032 72.3616 110.23 70.7799 111.023L144.525 68.7948Z" fill="#2E245B"/>
<path d="M299.727 204.005C300.122 204.005 300.32 203.807 300.32 203.41V192.705C300.32 192.308 300.122 192.11 299.727 192.11C299.332 192.11 299.134 192.308 299.134 192.705V203.41C299.134 203.807 299.332 204.005 299.727 204.005Z" fill="#2B303F"/>
<path d="M296.959 205.591C297.354 205.591 297.552 205.393 297.552 204.997V194.291C297.552 193.894 297.354 193.696 296.959 193.696C296.564 193.696 296.366 193.894 296.366 194.291V204.997C296.564 205.195 296.761 205.591 296.959 205.591Z" fill="#2B303F"/>
<path d="M294.389 206.979C294.784 206.979 294.982 206.781 294.982 206.384V195.678C294.982 195.282 294.784 195.084 294.389 195.084C293.993 195.084 293.796 195.282 293.796 195.678V206.384C293.993 206.781 294.191 206.979 294.389 206.979Z" fill="#2B303F"/>
<path d="M291.819 208.565C292.214 208.565 292.412 208.367 292.412 207.971V197.265C292.412 196.868 292.214 196.67 291.819 196.67C291.423 196.67 291.226 196.868 291.226 197.265V207.971C291.423 208.169 291.621 208.565 291.819 208.565Z" fill="#2B303F"/>
<path d="M289.248 209.953C289.644 209.953 289.841 209.755 289.841 209.358V198.652C289.841 198.256 289.644 198.058 289.248 198.058C288.853 198.058 288.655 198.256 288.655 198.652V209.358C288.655 209.755 289.051 209.953 289.248 209.953Z" fill="#2B303F"/>
<path d="M286.678 211.539C287.074 211.539 287.271 211.341 287.271 210.944V200.238C287.271 199.842 287.074 199.644 286.678 199.644C286.283 199.644 286.085 199.842 286.085 200.238V210.944C286.085 211.142 286.48 211.539 286.678 211.539Z" fill="#2B303F"/>
<path d="M284.108 212.927C284.503 212.927 284.701 212.729 284.701 212.332V201.626C284.701 201.23 284.503 201.031 284.108 201.031C283.713 201.031 283.515 201.23 283.515 201.626V212.332C283.515 212.729 283.91 212.927 284.108 212.927Z" fill="#2B303F"/>
<path d="M281.538 214.513C281.933 214.513 282.131 214.315 282.131 213.918V203.212C282.131 202.816 281.933 202.617 281.538 202.617C281.142 202.617 280.945 202.816 280.945 203.212V213.918C280.945 214.116 281.142 214.513 281.538 214.513Z" fill="#2B303F"/>
<path d="M278.968 215.901C279.363 215.901 279.561 215.702 279.561 215.306V204.6C279.561 204.204 279.363 204.005 278.968 204.005C278.572 204.005 278.374 204.204 278.374 204.6V215.306C278.374 215.702 278.572 215.901 278.968 215.901Z" fill="#2B303F"/>
<path d="M276.397 217.487C276.793 217.487 276.99 217.288 276.99 216.892V206.186C276.99 205.79 276.793 205.591 276.397 205.591C276.002 205.591 275.804 205.79 275.804 206.186V216.892C275.804 217.09 276.002 217.487 276.397 217.487Z" fill="#2B303F"/>
<path d="M273.827 218.874C274.222 218.874 274.42 218.676 274.42 218.28V207.574C274.42 207.177 274.222 206.979 273.827 206.979C273.432 206.979 273.234 207.177 273.234 207.574V218.28C273.234 218.676 273.432 218.874 273.827 218.874Z" fill="#2B303F"/>
<path d="M271.257 220.461C271.652 220.461 271.85 220.262 271.85 219.866V209.16C271.85 208.763 271.652 208.565 271.257 208.565C270.861 208.565 270.664 208.763 270.664 209.16V219.866C270.664 220.064 270.861 220.461 271.257 220.461Z" fill="#2B303F"/>
<path d="M268.687 221.848C269.082 221.848 269.28 221.65 269.28 221.253V210.548C269.28 210.151 269.082 209.953 268.687 209.953C268.291 209.953 268.094 210.151 268.094 210.548V221.253C268.094 221.65 268.291 221.848 268.687 221.848Z" fill="#2B303F"/>
<path d="M266.116 223.434C266.512 223.434 266.709 223.236 266.709 222.84V212.134C266.709 211.737 266.512 211.539 266.116 211.539C265.721 211.539 265.523 211.737 265.523 212.134V222.84C265.523 223.038 265.721 223.434 266.116 223.434Z" fill="#2B303F"/>
<path d="M263.546 224.822C263.942 224.822 264.139 224.624 264.139 224.227V213.522C264.139 213.125 263.942 212.927 263.546 212.927C263.151 212.927 262.953 213.125 262.953 213.522V224.227C262.953 224.624 263.151 224.822 263.546 224.822Z" fill="#2B303F"/>
<path d="M260.778 226.408C261.174 226.408 261.371 226.21 261.371 225.813V215.107C261.371 214.711 261.174 214.513 260.778 214.513C260.383 214.513 260.185 214.711 260.185 215.107V225.813C260.383 226.012 260.581 226.408 260.778 226.408Z" fill="#2B303F"/>
<path d="M258.208 227.796C258.603 227.796 258.801 227.598 258.801 227.201V216.495C258.801 216.099 258.603 215.901 258.208 215.901C257.813 215.901 257.615 216.099 257.615 216.495V227.201C257.813 227.598 258.01 227.796 258.208 227.796Z" fill="#2B303F"/>
<path d="M255.638 229.382C256.033 229.382 256.231 229.184 256.231 228.787V218.081C256.231 217.685 256.033 217.487 255.638 217.487C255.242 217.487 255.045 217.685 255.045 218.081V228.787C255.242 228.985 255.44 229.382 255.638 229.382Z" fill="#2B303F"/>
<path d="M253.068 230.77C253.463 230.77 253.661 230.572 253.661 230.175V219.469C253.661 219.073 253.463 218.875 253.068 218.875C252.672 218.875 252.475 219.073 252.475 219.469V230.175C252.475 230.572 252.87 230.77 253.068 230.77Z" fill="#2B303F"/>
<path d="M250.497 232.356C250.893 232.356 251.09 232.158 251.09 231.761V221.055C251.09 220.659 250.893 220.46 250.497 220.46C250.102 220.46 249.904 220.659 249.904 221.055V231.761C249.904 231.959 250.3 232.356 250.497 232.356Z" fill="#2B303F"/>
<path d="M247.927 233.743C248.323 233.743 248.52 233.545 248.52 233.149V222.443C248.52 222.046 248.323 221.848 247.927 221.848C247.532 221.848 247.334 222.046 247.334 222.443V233.149C247.334 233.545 247.73 233.743 247.927 233.743Z" fill="#2B303F"/>
<path d="M245.357 235.33C245.752 235.33 245.95 235.131 245.95 234.735V224.029C245.95 223.633 245.752 223.434 245.357 223.434C244.962 223.434 244.764 223.633 244.764 224.029V234.735C244.764 234.933 245.159 235.33 245.357 235.33Z" fill="#2B303F"/>
<path d="M242.787 236.717C243.182 236.717 243.38 236.519 243.38 236.123V225.417C243.38 225.02 243.182 224.822 242.787 224.822C242.391 224.822 242.193 225.02 242.193 225.417V236.123C242.193 236.519 242.391 236.717 242.787 236.717Z" fill="#2B303F"/>
<path d="M240.217 238.304C240.612 238.304 240.81 238.105 240.81 237.709V227.003C240.81 226.606 240.612 226.408 240.217 226.408C239.821 226.408 239.623 226.606 239.623 227.003V237.709C239.623 237.907 239.821 238.304 240.217 238.304Z" fill="#2B303F"/>
<path d="M237.646 239.691C238.042 239.691 238.239 239.493 238.239 239.096V228.391C238.239 227.994 238.042 227.796 237.646 227.796C237.251 227.796 237.053 227.994 237.053 228.391V239.096C237.053 239.493 237.251 239.691 237.646 239.691Z" fill="#2B303F"/>
<path d="M235.076 241.277C235.471 241.277 235.669 241.079 235.669 240.683V229.977C235.669 229.58 235.471 229.382 235.076 229.382C234.681 229.382 234.483 229.58 234.483 229.977V240.683C234.483 240.881 234.681 241.277 235.076 241.277Z" fill="#2B303F"/>
<path d="M232.506 242.665C232.901 242.665 233.099 242.467 233.099 242.07V231.365C233.099 230.968 232.901 230.77 232.506 230.77C232.11 230.77 231.913 230.968 231.913 231.365V242.07C231.913 242.467 232.11 242.665 232.506 242.665Z" fill="#2B303F"/>
<path d="M229.936 244.251C230.331 244.251 230.529 244.053 230.529 243.657V232.951C230.529 232.554 230.331 232.356 229.936 232.356C229.54 232.356 229.342 232.554 229.342 232.951V243.657C229.342 243.855 229.54 244.251 229.936 244.251Z" fill="#2B303F"/>
<path d="M227.365 245.639C227.761 245.639 227.959 245.441 227.959 245.044V234.338C227.959 233.942 227.761 233.744 227.365 233.744C226.97 233.744 226.772 233.942 226.772 234.338V245.044C226.772 245.441 226.97 245.639 227.365 245.639Z" fill="#2B303F"/>
<path d="M224.598 247.225C224.993 247.225 225.191 247.027 225.191 246.63V235.925C225.191 235.528 224.993 235.33 224.598 235.33C224.202 235.33 224.004 235.528 224.004 235.925V246.63C224.202 246.829 224.4 247.225 224.598 247.225Z" fill="#2B303F"/>
<path d="M222.027 248.613C222.423 248.613 222.62 248.415 222.62 248.018V237.312C222.62 236.916 222.423 236.718 222.027 236.718C221.632 236.718 221.434 236.916 221.434 237.312V248.018C221.632 248.415 221.83 248.613 222.027 248.613Z" fill="#2B303F"/>
<path d="M219.457 250.199C219.852 250.199 220.05 250.001 220.05 249.604V238.898C220.05 238.502 219.852 238.303 219.457 238.303C219.062 238.303 218.864 238.502 218.864 238.898V249.604C219.062 249.802 219.259 250.199 219.457 250.199Z" fill="#2B303F"/>
<path d="M216.887 251.587C217.282 251.587 217.48 251.388 217.48 250.992V240.286C217.48 239.889 217.282 239.691 216.887 239.691C216.491 239.691 216.294 239.889 216.294 240.286V250.992C216.294 251.388 216.689 251.587 216.887 251.587Z" fill="#2B303F"/>
<path d="M214.317 253.173C214.712 253.173 214.91 252.974 214.91 252.578V241.872C214.91 241.476 214.712 241.277 214.317 241.277C213.921 241.277 213.724 241.476 213.724 241.872V252.578C213.724 252.776 214.119 253.173 214.317 253.173Z" fill="#2B303F"/>
<path d="M211.746 254.56C212.142 254.56 212.34 254.362 212.34 253.966V243.26C212.34 242.863 212.142 242.665 211.746 242.665C211.351 242.665 211.153 242.863 211.153 243.26V253.966C211.153 254.362 211.549 254.56 211.746 254.56Z" fill="#2B303F"/>
<path d="M209.176 256.147C209.572 256.147 209.769 255.948 209.769 255.552V244.846C209.769 244.449 209.572 244.251 209.176 244.251C208.781 244.251 208.583 244.449 208.583 244.846V255.552C208.583 255.75 208.978 256.147 209.176 256.147Z" fill="#2B303F"/>
<path d="M206.606 257.534C207.001 257.534 207.199 257.336 207.199 256.939V246.234C207.199 245.837 207.001 245.639 206.606 245.639C206.211 245.639 206.013 245.837 206.013 246.234V256.939C206.013 257.336 206.211 257.534 206.606 257.534Z" fill="#2B303F"/>
<path d="M204.036 259.12C204.431 259.12 204.629 258.922 204.629 258.525V247.82C204.629 247.423 204.431 247.225 204.036 247.225C203.64 247.225 203.443 247.423 203.443 247.82V258.525C203.443 258.724 203.64 259.12 204.036 259.12Z" fill="#2B303F"/>
<path d="M201.466 260.508C201.861 260.508 202.059 260.31 202.059 259.913V249.208C202.059 248.811 201.861 248.613 201.466 248.613C201.07 248.613 200.872 248.811 200.872 249.208V259.913C200.872 260.31 201.07 260.508 201.466 260.508Z" fill="#2B303F"/>
<path d="M198.895 262.094C199.291 262.094 199.488 261.896 199.488 261.5V250.794C199.488 250.397 199.291 250.199 198.895 250.199C198.5 250.199 198.302 250.397 198.302 250.794V261.5C198.302 261.698 198.5 262.094 198.895 262.094Z" fill="#2B303F"/>
<path d="M196.325 263.482C196.72 263.482 196.918 263.284 196.918 262.887V252.181C196.918 251.785 196.72 251.587 196.325 251.587C195.93 251.587 195.732 251.785 195.732 252.181V262.887C195.732 263.284 195.93 263.482 196.325 263.482Z" fill="#2B303F"/>
<path d="M193.755 265.068C194.15 265.068 194.348 264.87 194.348 264.473V253.767C194.348 253.371 194.15 253.173 193.755 253.173C193.359 253.173 193.162 253.371 193.162 253.767V264.473C193.162 264.671 193.359 265.068 193.755 265.068Z" fill="#2B303F"/>
<path d="M191.185 266.456C191.58 266.456 191.778 266.258 191.778 265.861V255.155C191.778 254.759 191.58 254.561 191.185 254.561C190.789 254.561 190.592 254.759 190.592 255.155V265.861C190.592 266.258 190.789 266.456 191.185 266.456Z" fill="#2B303F"/>
<path d="M188.615 268.042C189.01 268.042 189.208 267.843 189.208 267.447V256.741C189.208 256.345 189.01 256.146 188.615 256.146C188.219 256.146 188.021 256.345 188.021 256.741V267.447C188.021 267.645 188.219 268.042 188.615 268.042Z" fill="#2B303F"/>
<path d="M185.847 269.43C186.242 269.43 186.44 269.231 186.44 268.835V258.129C186.44 257.732 186.242 257.534 185.847 257.534C185.451 257.534 185.253 257.732 185.253 258.129V268.835C185.451 269.231 185.649 269.43 185.847 269.43Z" fill="#2B303F"/>
<path d="M183.276 271.016C183.672 271.016 183.869 270.817 183.869 270.421V259.715C183.869 259.319 183.672 259.12 183.276 259.12C182.881 259.12 182.683 259.319 182.683 259.715V270.421C182.881 270.619 183.079 271.016 183.276 271.016Z" fill="#2B303F"/>
<path d="M180.706 272.403C181.102 272.403 181.299 272.205 181.299 271.809V261.103C181.299 260.706 181.102 260.508 180.706 260.508C180.311 260.508 180.113 260.706 180.113 261.103V271.809C180.311 272.205 180.508 272.403 180.706 272.403Z" fill="#2B303F"/>
<path d="M178.136 273.99C178.531 273.99 178.729 273.791 178.729 273.395V262.689C178.729 262.293 178.531 262.094 178.136 262.094C177.74 262.094 177.543 262.293 177.543 262.689V273.395C177.543 273.593 177.938 273.99 178.136 273.99Z" fill="#2B303F"/>
<path d="M175.566 275.377C175.961 275.377 176.159 275.179 176.159 274.783V264.077C176.159 263.68 175.961 263.482 175.566 263.482C175.17 263.482 174.973 263.68 174.973 264.077V274.783C174.973 275.179 175.368 275.377 175.566 275.377Z" fill="#2B303F"/>
<path d="M172.995 276.963C173.391 276.963 173.589 276.765 173.589 276.369V265.663C173.589 265.266 173.391 265.068 172.995 265.068C172.6 265.068 172.402 265.266 172.402 265.663V276.369C172.402 276.567 172.798 276.963 172.995 276.963Z" fill="#2B303F"/>
<path d="M170.425 278.351C170.821 278.351 171.018 278.153 171.018 277.756V267.051C171.018 266.654 170.821 266.456 170.425 266.456C170.03 266.456 169.832 266.654 169.832 267.051V277.756C169.832 278.153 170.228 278.351 170.425 278.351Z" fill="#2B303F"/>
<path d="M167.855 279.937C168.25 279.937 168.448 279.739 168.448 279.342V268.637C168.448 268.24 168.25 268.042 167.855 268.042C167.46 268.042 167.262 268.24 167.262 268.637V279.342C167.262 279.541 167.46 279.937 167.855 279.937Z" fill="#2B303F"/>
<path d="M265.919 202.617L289.842 188.739V184.378C290.237 168.517 282.329 164.949 277.188 161.975L240.612 140.761C234.878 137.391 231.122 131.443 230.529 124.703L226.575 68.0016C225.586 61.0626 220.446 52.7359 214.91 49.5638L207.595 45.2021L150.259 78.5091L95.4936 109.834C105.379 117.169 113.09 130.056 114.671 142.744V142.942L118.032 190.92C118.428 196.075 121.393 200.833 125.743 203.41L165.087 226.21C172.6 230.571 178.136 240.088 178.136 248.811V253.569L265.919 202.617Z" fill="#9CA6C1"/>
<path opacity="0.5" d="M310.799 161.578L296.366 169.707L276.793 201.626L247.927 200.238L222.423 214.513L172.995 235.528C158.365 241.674 142.351 243.458 126.732 240.286L113.88 237.709L91.3416 237.114L152.631 205.988L87.3874 219.866L55.9516 217.487L63.0692 203.807L240.414 144.132L274.618 120.936C280.154 121.531 290.435 91.5942 294.784 93.3785C299.134 95.1628 287.271 116.178 302.1 133.624C307.833 140.365 310.799 149.683 310.799 161.578Z" fill="#2B303F"/>
<path d="M209.967 130.453C214.317 124.108 218.469 118.755 221.039 113.601C227.761 100.912 236.856 96.3525 247.927 99.9211L230.727 143.537L224.795 147.304C222.423 139.572 216.689 134.418 209.967 130.453Z" fill="#F4CE2C"/>
<path d="M203.047 141.357C205.222 137.392 207.792 133.625 209.967 130.453C216.689 134.418 222.225 139.572 224.598 147.503L202.85 160.984L191.185 154.243L188.615 144.132C193.36 142.348 198.698 140.564 203.047 141.357Z" fill="#FFD9BE"/>
<path d="M64.4534 213.918C92.3303 208.169 112.299 213.918 131.872 202.023L193.36 203.014L221.83 175.06L201.861 156.424L187.824 164.354C167.657 163.165 151.445 167.13 138.397 175.456C133.058 176.051 127.72 177.835 122.778 180.611C99.0524 183.585 80.0724 192.705 70.78 190.92C70.9777 191.317 70.9777 191.515 71.1754 191.912C72.7571 197.265 72.5594 205.988 68.0121 211.142C66.8259 212.332 65.8373 213.125 64.4534 213.918Z" fill="#308DC2"/>
<path d="M104.391 235.131C128.709 234.536 154.806 237.114 171.809 220.46C171.809 220.46 188.615 218.874 200.675 217.09C201.663 216.892 210.363 218.874 214.91 217.685C222.027 215.504 227.563 212.332 231.715 208.168C235.472 204.402 238.437 199.842 240.612 194.291L222.818 176.646L211.944 165.742L204.827 173.672L199.291 179.818C193.162 180.016 186.835 181.602 180.706 184.179C174.775 186.757 168.646 190.127 162.912 194.489C159.551 196.868 156.19 199.643 152.829 202.617C136.222 208.565 119.219 216.099 109.926 214.116C110.52 217.09 110.717 220.262 110.322 223.434C109.926 227.796 108.345 231.959 105.972 234.338C105.379 234.536 104.786 234.933 104.391 235.131Z" fill="#308DC2"/>
<path opacity="0.5" d="M163.505 195.282L152.434 202.419L131.477 205.988C106.368 217.685 83.2356 221.65 62.8716 213.918L68.8028 201.031C92.3302 207.376 115.858 206.186 129.697 193.101C141.362 195.678 153.818 194.291 157.179 189.532C151.445 184.576 144.921 179.421 139.187 174.862L180.508 184.18L192.766 186.955L212.735 180.016C222.818 188.541 231.913 199.049 231.715 208.169C227.563 212.332 222.027 215.504 214.91 217.685C210.363 218.676 201.861 216.892 200.675 217.09C188.615 218.874 171.809 220.46 171.809 220.46C154.806 237.114 128.709 234.537 104.39 235.131C107.554 233.149 109.531 228.391 110.124 223.236C132.07 230.571 150.852 227.598 172.402 210.548C173.391 206.582 169.437 201.23 163.505 195.282Z" fill="#308DC2"/>
<path d="M56.1495 217.487C58.7198 217.288 61.8831 215.702 64.651 213.918C65.8373 213.125 67.0235 212.134 68.0121 211.341C72.5594 206.186 72.7571 197.463 71.1754 192.11C70.9777 191.912 70.9777 191.515 70.78 191.119C70.5823 190.127 70.78 188.938 70.3846 187.352C72.3617 177.835 75.1296 167.923 66.6281 164.751C55.9518 161.777 51.6022 181.008 48.6366 198.058C45.8687 208.565 45.4733 218.676 56.1495 217.487Z" fill="#1E2D56"/>
<path d="M96.2844 238.898C99.0523 238.105 101.82 237.114 104.39 235.131C104.786 234.735 105.379 234.537 105.774 234.14C108.147 231.761 109.729 227.796 110.124 223.236C110.519 220.064 110.322 216.892 109.729 213.918C108.938 212.927 108.74 211.539 108.345 209.358C108.74 198.851 108.542 188.541 100.041 185.369C89.3645 182.395 89.1668 203.014 87.5852 219.866C83.8287 229.778 84.2241 242.07 96.2844 238.898Z" fill="#1E2D56"/>
<path d="M188.812 163.759C191.976 165.147 197.907 168.914 204.431 173.672C207.199 175.655 209.769 177.835 212.537 180.016C222.62 188.541 231.715 199.049 231.517 208.169C231.517 208.367 231.517 208.565 231.517 208.565C231.517 208.565 241.205 196.67 246.346 191.317C257.615 179.62 270.268 175.655 282.526 166.535C290.435 160.785 298.145 153.053 305.263 139.969C298.541 126.487 289.842 113.799 277.979 108.446C270.861 102.696 260.185 100.516 247.927 99.9209L232.704 111.42C226.97 118.16 222.225 128.668 215.108 139.374C208.583 149.485 197.511 158.208 188.812 163.759Z" fill="#F4CE2C"/>
<path d="M225.982 167.923C222.225 168.121 218.271 168.121 213.724 167.923C209.769 167.923 210.956 170.698 213.724 171.095L226.772 172.483L225.982 167.923Z" fill="#FFD9BE"/>
<path d="M289 96.6284C288.331 105.12 287.663 113.208 288.164 119.273C288.164 119.273 277.466 129.989 267.102 122.104C262.923 119.071 266.266 109.568 266.266 109.568L272.284 94L289 96.6284Z" fill="#FFD9BE"/>
<path opacity="0.5" d="M289 108.951C289 108.951 278.672 126.408 263.665 122.403C254.79 120.041 270.927 107 270.927 107L289 108.951Z" fill="#FFD9BE"/>
<path d="M298.541 81.2852C297.948 90.8015 293.796 96.5509 288.062 97.5422L283.515 104.481C281.736 107.257 278.968 109.239 275.804 109.834L266.314 112.015C263.942 111.817 262.558 111.222 260.778 108.843C260.976 99.9213 258.801 93.9736 260.185 86.8364C260.581 81.88 262.953 75.734 266.512 69.1916C266.512 69.1916 276.793 58.8823 289.051 62.8474C299.925 66.6143 298.541 81.2852 298.541 81.2852Z" fill="#FFD9BE"/>
<path d="M289.644 103.886C290.435 103.49 291.226 102.895 291.819 102.102C296.366 95.956 299.332 90.2065 299.925 82.0781C300.913 69.5879 294.784 62.649 286.678 61.4595C274.42 59.6752 264.337 66.8124 261.569 76.9234C261.174 78.3112 261.569 79.699 262.558 80.6903C265.919 84.0606 274.42 87.2327 281.538 87.431C283.515 87.6292 285.294 89.2153 285.294 91.1978V95.5594L290.83 93.1804L288.458 102.498C288.26 103.688 289.051 104.283 289.644 103.886Z" fill="#1E2D56"/>
<path d="M288.062 94.7665C288.853 92.7839 291.226 87.0345 294.191 90.0084C295.971 91.7927 294.587 95.163 293.598 96.9473C292.807 98.5334 290.237 100.714 288.458 99.9212C287.469 99.3264 287.271 98.3351 287.271 97.3438C287.469 96.3525 287.667 95.5595 288.062 94.7665Z" fill="#FFD9BE"/>
<path opacity="0.5" d="M231.715 208.169C231.715 208.367 231.715 208.565 231.715 208.565C231.715 208.565 241.403 196.67 246.543 191.317C257.813 179.62 270.466 175.655 282.724 166.535L286.48 144.132C271.257 160.587 254.452 172.483 233.89 172.681L222.818 176.448L212.933 179.818C222.818 188.541 231.913 198.851 231.715 208.169Z" fill="#F4CE2C"/>
<path d="M271.455 180.611C271.85 177.241 273.036 173.276 274.618 168.914C282.329 171.095 289.644 174.862 293.994 181.602C289.249 193.3 283.91 202.816 276.991 203.609C264.733 203.014 249.509 190.92 234.879 180.215L233.099 169.509L271.455 180.611Z" fill="#FFD9BE"/>
<path d="M274.618 168.914C276.2 164.553 278.177 159.596 279.956 154.243C284.306 140.167 294.784 131.444 304.274 137.986C309.217 145.718 307.042 154.64 300.122 165.742C298.145 171.095 295.971 176.448 293.993 181.603C289.842 174.862 282.329 171.095 274.618 168.914Z" fill="#F4CE2C"/>
<path d="M186.745 195.994L197.703 202.338L195.627 205.944L184.669 199.599L186.745 195.994Z" fill="#1E2D56"/>
<path d="M236.856 179.62L194.546 204.005C194.546 205.988 195.93 206.583 197.511 205.79L233.89 184.775C235.669 183.783 236.856 181.602 236.856 179.62Z" fill="#1E2D56"/>
<path d="M140.769 172.483L182.881 148.295L236.856 179.62L194.744 204.005L140.769 172.483Z" fill="#1E2D56"/>
<path d="M200.082 194.093L197.512 195.48L200.477 197.066L203.047 195.679L200.082 194.093Z" fill="#DADADA"/>
<path d="M190.592 191.317L193.557 193.101L195.93 191.713L192.964 189.929L190.592 191.317Z" fill="#DADADA"/>
<path d="M189.405 187.947L187.033 189.334L189.999 190.92L192.371 189.533L189.405 187.947Z" fill="#DADADA"/>
<path d="M185.847 185.766L183.474 187.154L186.44 188.938L188.812 187.55L185.847 185.766Z" fill="#DADADA"/>
<path d="M182.288 183.783L179.915 185.171L182.881 186.757L185.254 185.369L182.288 183.783Z" fill="#DADADA"/>
<path d="M172.798 181.008L175.763 182.792L178.136 181.404L175.17 179.62L172.798 181.008Z" fill="#DADADA"/>
<path d="M171.612 177.637L169.239 179.025L172.205 180.611L174.577 179.223L171.612 177.637Z" fill="#DADADA"/>
<path d="M168.053 175.456L165.68 176.844L168.646 178.628L171.018 177.241L168.053 175.456Z" fill="#DADADA"/>
<path d="M177.741 165.147L180.113 163.76L177.148 161.975L174.775 163.363L177.741 165.147Z" fill="#DADADA"/>
<path d="M174.182 162.967L176.554 161.579L173.589 159.993L171.216 161.38L174.182 162.967Z" fill="#DADADA"/>
<path d="M172.996 159.596L170.03 157.812L167.657 159.2L170.623 160.984L172.996 159.596Z" fill="#DADADA"/>
<path d="M215.701 187.947L218.073 186.559L215.108 184.775L212.735 186.162L215.701 187.947Z" fill="#DADADA"/>
<path d="M212.142 185.766L214.514 184.378L211.549 182.792L209.176 184.18L212.142 185.766Z" fill="#DADADA"/>
<path d="M191.383 173.87L196.721 176.844L197.907 177.637L198.5 177.836L199.884 178.827L202.059 180.016L205.025 181.602L208.583 183.783L210.956 182.395L201.07 176.646L200.873 176.448L193.755 172.483L191.383 173.87Z" fill="#DADADA"/>
<path d="M190.789 173.474L193.162 172.086L190.196 170.302L187.824 171.69L190.789 173.474Z" fill="#DADADA"/>
<path d="M187.231 171.491L189.603 170.104L186.638 168.319L184.265 169.707L187.231 171.491Z" fill="#DADADA"/>
<path d="M186.044 167.923L183.079 166.138L180.706 167.724L183.672 169.311L186.044 167.923Z" fill="#DADADA"/>
<path d="M177.148 165.346L174.182 163.76L171.809 165.147L174.775 166.733L177.148 165.346Z" fill="#DADADA"/>
<path d="M173.589 163.363L170.623 161.579L168.251 162.966L171.216 164.751L173.589 163.363Z" fill="#DADADA"/>
<path d="M170.03 161.38L167.064 159.596L164.692 160.984L167.657 162.768L170.03 161.38Z" fill="#DADADA"/>
<path d="M215.108 188.145L212.142 186.559L209.572 187.947L212.537 189.533L215.108 188.145Z" fill="#DADADA"/>
<path d="M206.013 185.766L208.979 187.55L211.549 186.162L208.583 184.378L206.013 185.766Z" fill="#DADADA"/>
<path d="M202.454 183.783L205.42 185.568L207.99 184.18L205.024 182.396L202.454 183.783Z" fill="#DADADA"/>
<path d="M198.895 181.801L201.861 183.387L204.431 181.999L201.466 180.413L198.895 181.801Z" fill="#DADADA"/>
<path d="M195.337 179.62L198.5 181.404L200.873 180.016L197.907 178.232L195.337 179.62Z" fill="#DADADA"/>
<path d="M191.976 177.637L194.941 179.223L197.314 177.836L194.348 176.25L191.976 177.637Z" fill="#DADADA"/>
<path d="M188.417 175.457L191.383 177.241L193.755 175.853L190.789 174.069L188.417 175.457Z" fill="#DADADA"/>
<path d="M184.858 173.474L187.824 175.258L190.196 173.87L187.231 172.086L184.858 173.474Z" fill="#DADADA"/>
<path d="M181.299 171.491L184.265 173.077L186.637 171.69L183.672 170.104L181.299 171.491Z" fill="#DADADA"/>
<path d="M174.182 167.13L171.216 165.346L168.844 166.733L171.809 168.518L174.182 167.13Z" fill="#DADADA"/>
<path d="M165.285 164.751L168.251 166.535L170.623 165.147L167.657 163.363L165.285 164.751Z" fill="#DADADA"/>
<path d="M167.064 162.966L164.099 161.38L161.726 162.768L164.692 164.354L167.064 162.966Z" fill="#DADADA"/>
<path d="M211.944 189.929L208.979 188.145L206.606 189.533L209.572 191.317L211.944 189.929Z" fill="#DADADA"/>
<path d="M203.047 187.55L206.013 189.334L208.583 187.947L205.42 186.162L203.047 187.55Z" fill="#DADADA"/>
<path d="M205.025 185.766L201.861 184.18L199.489 185.568L202.454 187.154L205.025 185.766Z" fill="#DADADA"/>
<path d="M201.466 183.783L198.5 181.999L195.93 183.387L198.895 185.171L201.466 183.783Z" fill="#DADADA"/>
<path d="M197.907 181.801L194.941 180.016L192.371 181.404L195.337 183.188L197.907 181.801Z" fill="#DADADA"/>
<path d="M194.348 179.62L191.383 177.836L188.812 179.223L191.778 181.008L194.348 179.62Z" fill="#DADADA"/>
<path d="M185.253 177.241L188.219 179.025L190.789 177.637L187.824 175.853L185.253 177.241Z" fill="#DADADA"/>
<path d="M187.231 175.457L184.265 173.871L181.695 175.258L184.66 176.844L187.231 175.457Z" fill="#DADADA"/>
<path d="M177.543 172.879L181.102 174.862L183.672 173.474L180.113 171.491L183.079 169.707L180.113 167.923L177.147 169.707L176.159 170.302L174.577 171.095L176.554 172.284L177.543 172.879Z" fill="#DADADA"/>
<path d="M168.844 170.302L171.216 168.914L168.251 167.13L165.878 168.517L168.844 170.302Z" fill="#DADADA"/>
<path d="M164.692 165.147L162.319 166.535L165.285 168.121L167.657 166.733L164.692 165.147Z" fill="#DADADA"/>
<path d="M164.099 164.751L161.133 162.967L158.761 164.354L161.726 166.139L164.099 164.751Z" fill="#DADADA"/>
<path d="M208.979 191.713L206.013 189.929L203.64 191.317L206.606 193.101L208.979 191.713Z" fill="#DADADA"/>
<path d="M203.047 190.92L205.42 189.533L202.454 187.947L200.082 189.334L203.047 190.92Z" fill="#DADADA"/>
<path d="M201.861 187.55L198.896 185.766L196.523 187.154L199.489 188.938L201.861 187.55Z" fill="#DADADA"/>
<path d="M195.337 183.783L192.964 185.171L195.93 186.956L198.302 185.568L195.337 183.783Z" fill="#DADADA"/>
<path d="M194.744 183.387L191.778 181.801L189.405 183.189L192.371 184.775L194.744 183.387Z" fill="#DADADA"/>
<path d="M191.185 181.404L188.219 179.62L185.847 181.008L188.812 182.792L191.185 181.404Z" fill="#DADADA"/>
<path d="M185.253 180.809L187.626 179.223L184.66 177.637L182.288 179.025L185.253 180.809Z" fill="#DADADA"/>
<path d="M184.067 177.241L181.102 175.456L178.729 176.844L181.695 178.628L184.067 177.241Z" fill="#DADADA"/>
<path d="M177.147 173.077L175.961 172.482L173.984 171.491L171.612 172.879L173.589 173.87L174.577 174.465L178.136 176.646L180.706 175.258L177.147 173.077Z" fill="#DADADA"/>
<path d="M159.947 172.086L162.913 173.672L165.285 172.285L162.319 170.698L159.947 172.086Z" fill="#DADADA"/>
<path d="M158.761 168.518L156.388 169.905L159.354 171.69L161.726 170.302L158.761 168.518Z" fill="#DADADA"/>
<path d="M155.202 166.535L152.829 167.923L155.795 169.509L158.167 168.121L155.202 166.535Z" fill="#DADADA"/>
<path d="M211.153 168.319L204.036 172.483C203.64 172.681 203.245 172.681 202.85 172.483L192.173 166.337C191.778 166.139 191.778 165.94 192.173 165.742L199.291 161.579C199.686 161.38 200.082 161.38 200.477 161.579L211.153 167.725C211.549 167.923 211.549 168.319 211.153 168.319Z" fill="#878787"/>
<path d="M198.302 146.313L197.709 149.089L200.279 156.028L201.07 161.38C201.466 163.759 199.093 163.958 198.105 161.777L196.721 157.415C194.941 156.028 193.36 155.036 191.58 154.441L189.208 155.433L185.649 161.579C184.66 163.165 182.683 162.57 183.276 160.587L184.463 154.64L181.695 156.226L176.159 162.372C174.577 163.958 172.6 163.165 173.391 161.579L177.345 155.234L170.623 161.579C169.239 162.768 167.657 161.579 169.239 159.398L171.414 156.622C170.623 156.622 170.425 155.829 171.414 154.838L175.566 151.071L188.417 144.33L196.128 142.943L198.302 146.313Z" fill="#FFD9BE"/>
<path d="M140.571 173.078L128.906 130.453C127.325 131.84 126.336 134.219 126.732 135.806L137.012 172.879C137.408 174.465 138.989 174.664 140.571 173.078Z" fill="#1E2D56"/>
<path d="M182.881 161.777L191.778 205.195L137.803 174.069L128.906 130.651L182.881 161.777Z" fill="#1E2D56"/>
<path d="M194.743 204.402L183.079 161.777C181.497 163.165 180.508 165.544 180.904 167.13L190.987 204.204C191.382 205.79 192.964 205.988 194.743 204.402Z" fill="#1E2D56"/>
<path d="M160.144 169.707C160.54 171.492 159.354 172.285 157.574 171.293C155.795 170.302 154.213 168.121 154.015 166.337C153.62 164.553 154.806 163.76 156.586 164.751C158.365 165.544 159.947 167.923 160.144 169.707Z" fill="#DADADA"/>
<path d="M240.414 180.611L235.274 180.413C233.099 183.783 228.552 184.378 223.411 184.378L217.48 188.343C215.898 189.533 213.724 188.74 215.305 186.757L220.446 181.999L219.457 181.008L210.362 184.973C207.001 186.162 205.617 184.378 207.99 182.594L215.701 178.034L204.431 180.809C200.675 181.801 199.488 178.827 202.85 177.637L214.514 173.672H201.861C198.698 173.672 198.302 171.095 201.861 170.897L218.073 168.716L222.423 168.121C224.4 167.923 226.575 167.923 228.552 168.518L233.099 169.707L241.798 173.474L240.414 180.611Z" fill="#FFD9BE"/>
</g>
<path opacity="0.5" d="M367.873 451C455.888 451 527.238 409.876 527.238 359.147C527.238 308.417 455.888 267.293 367.873 267.293C279.857 267.293 208.507 308.417 208.507 359.147C208.507 409.876 279.857 451 367.873 451Z" fill="#ECECEC"/>
<g clip-path="url(#clip1)">
<path d="M260.453 346.041L258.18 341.923L290.216 323.393L291.869 327.922L260.453 346.041Z" fill="#1E2D56"/>
<path d="M226.545 323.599L224.169 327.7L258.535 347.466L260.912 343.365L226.545 323.599Z" fill="#1E2D56"/>
<path d="M288.562 327.922L258.18 310.215L260.453 306.303L290.629 323.599L288.562 327.922Z" fill="#1E2D56"/>
<path d="M226.557 328.54L225.523 323.599L258.593 304.656L260.867 308.774L226.557 328.54Z" fill="#1E2D56"/>
<path d="M258.386 366.013C260.247 366.013 261.9 367.043 261.9 368.484C261.9 369.719 260.247 370.955 258.386 370.955C256.526 370.955 254.873 369.925 254.873 368.484C254.873 367.043 256.32 366.013 258.386 366.013Z" fill="#1E2D56"/>
<path d="M258.386 331.217C260.247 331.217 261.9 332.246 261.9 333.688C261.9 334.923 260.247 336.158 258.386 336.158C256.526 336.158 254.873 335.129 254.873 333.688C254.873 332.452 256.32 331.217 258.386 331.217Z" fill="#D6D8E5"/>
<path d="M289.183 345.012C289.183 343.776 290.836 342.541 292.696 342.541C294.556 342.541 296.21 343.571 296.21 345.012C296.21 346.247 294.556 347.483 292.696 347.483C290.629 347.483 289.183 346.453 289.183 345.012Z" fill="#D6D8E5"/>
<path d="M219.53 349.953C219.53 348.718 221.183 347.482 223.043 347.482C224.903 347.482 226.557 348.512 226.557 349.953C226.557 351.189 224.903 352.424 223.043 352.424C221.183 352.218 219.53 351.189 219.53 349.953Z" fill="#1E2D56"/>
<path d="M258.386 286.331C260.867 286.331 262.934 287.772 262.934 289.42C262.934 291.067 260.867 292.508 258.386 292.508C255.906 292.508 253.839 291.067 253.839 289.42C253.839 287.772 255.7 286.331 258.386 286.331Z" fill="#D6D8E5"/>
<path d="M273.268 276.036C273.268 274.389 275.335 272.948 277.815 272.948C280.295 272.948 282.362 274.389 282.362 276.036C282.362 277.683 280.295 279.125 277.815 279.125C275.335 279.125 273.268 277.889 273.268 276.036Z" fill="#D6D8E5"/>
<path d="M234.411 276.036C234.411 274.389 236.478 272.948 238.958 272.948C241.438 272.948 243.505 274.389 243.505 276.036C243.505 277.683 241.438 279.125 238.958 279.125C236.271 279.125 234.411 277.889 234.411 276.036Z" fill="#D6D8E5"/>
<path d="M226.557 349.953H219.53L234.411 276.036H243.298L226.557 349.953Z" fill="#1E2D56"/>
<path d="M289.183 345.012H296.003L282.362 276.036H273.268L289.183 345.012Z" fill="#D6D8E5"/>
<path d="M261.693 368.278H254.873L253.839 289.419H262.727L261.693 368.278Z" fill="#1E2D56"/>
<path d="M281.949 267.183C294.97 274.801 294.97 286.949 281.949 294.567C268.927 302.185 247.639 302.185 234.411 294.567C221.39 286.949 221.39 274.801 234.411 267.183C247.639 259.564 268.927 259.564 281.949 267.183Z" fill="#2E245B"/>
<path d="M281.949 261.624C294.97 269.242 294.97 281.39 281.949 289.008C268.927 296.626 247.639 296.626 234.411 289.008C221.39 281.39 221.39 269.242 234.411 261.624C247.639 254.005 268.927 254.005 281.949 261.624Z" fill="#D6D8E5"/>
<path d="M389.632 326.069C373.097 335.541 373.097 350.983 389.632 360.454C406.167 369.925 433.036 369.925 449.571 360.454C466.106 350.983 466.106 335.541 449.571 326.069C433.036 316.598 406.167 316.598 389.632 326.069Z" fill="#2E245B"/>
<path d="M389.632 321.746C373.097 331.217 373.097 346.659 389.632 356.13C406.167 365.602 433.036 365.602 449.571 356.13C466.106 346.659 466.106 331.217 449.571 321.746C433.036 312.274 406.167 312.274 389.632 321.746Z" fill="#D6D8E5"/>
<path d="M408.234 332.04C402.033 335.746 402.033 341.512 408.234 345.218C414.434 348.924 424.769 348.924 430.969 345.218C437.17 341.512 437.17 335.746 430.969 332.04C424.769 328.334 414.641 328.334 408.234 332.04Z" fill="#2E245B"/>
<path d="M408.234 327.922C402.033 331.629 402.033 337.394 408.234 341.1C414.434 344.806 424.769 344.806 430.969 341.1C437.17 337.394 437.17 331.629 430.969 327.922C424.769 324.216 414.641 324.216 408.234 327.922Z" fill="#D6D8E5"/>
<path d="M410.921 326.481C406.167 329.364 406.167 333.688 410.921 336.57C415.674 339.453 423.528 339.453 428.489 336.57C433.243 333.688 433.243 329.364 428.489 326.481C423.528 323.599 415.674 323.599 410.921 326.481Z" fill="#2E245B"/>
<path d="M432.002 250.917H407.2V332.04H432.002V250.917Z" fill="#2E245B"/>
<path d="M346.228 200.472C305.718 223.738 305.718 261.623 346.228 284.89C386.738 308.156 452.464 308.156 492.975 284.89C533.485 261.623 533.485 223.738 492.975 200.472C452.464 177.206 386.738 177.206 346.228 200.472Z" fill="#2E245B"/>
<path d="M419.601 296.42C476.904 296.42 523.358 269.687 523.358 236.71C523.358 203.733 476.904 177 419.601 177C362.298 177 315.845 203.733 315.845 236.71C315.845 269.687 362.298 296.42 419.601 296.42Z" fill="#D7E0D7"/>
<path d="M419.601 296.42C476.904 296.42 523.358 269.687 523.358 236.71C523.358 203.733 476.904 177 419.601 177C362.298 177 315.845 203.733 315.845 236.71C315.845 269.687 362.298 296.42 419.601 296.42Z" fill="#D6D8E5"/>
<path d="M360.489 208.708L455.358 220.855V223.12L360.489 210.972V208.708Z" fill="#3C3C3B"/>
<path d="M360.903 211.384L417.948 244.122C418.361 244.328 418.981 244.328 419.395 244.122L455.151 223.532C455.565 223.326 455.565 222.915 455.151 222.709L398.106 189.971C397.693 189.765 397.073 189.765 396.659 189.971L360.903 210.561C360.489 210.767 360.489 211.178 360.903 211.384Z" fill="#2E245B"/>
<path d="M360.904 209.119L417.949 241.857C418.362 242.063 418.982 242.063 419.396 241.857L455.152 221.267C455.566 221.062 455.566 220.65 455.152 220.444L398.107 187.706C397.694 187.5 397.074 187.5 396.66 187.706L360.904 208.296C360.49 208.502 360.49 208.914 360.904 209.119Z" fill="#878787"/>
<path opacity="0.5" d="M405.96 194.707L406.993 195.324L409.887 196.971L410.92 197.589L414.021 199.442L415.054 199.854L417.948 201.707L418.981 202.119L421.875 203.972L422.908 204.59L426.008 206.237L426.835 206.854L429.936 208.502L430.969 209.119L433.863 210.766L434.896 211.384L437.79 213.031L438.823 213.649L441.923 215.296L442.75 215.914L445.85 217.561L446.884 218.179L450.811 220.444L446.884 222.709L445.85 223.326L443.163 224.973L442.13 225.591L439.236 227.238L438.203 227.856L435.309 229.503L434.276 229.915L431.589 231.562L430.556 232.18L426.629 234.445L422.702 232.18L421.668 231.562L414.641 227.65L413.814 227.032L390.872 213.855L389.839 213.237L386.945 211.59L385.911 210.972L382.811 209.325L381.778 208.708L378.884 206.854L377.851 206.443L373.924 203.972L377.851 201.913L378.677 201.295L381.571 199.648L382.605 199.03L389.425 195.118L390.252 194.707L393.145 193.059L394.179 192.442L398.106 190.177L405.96 194.707Z" fill="#2E245B"/>
<path d="M445.85 218.591L449.364 220.444L445.85 222.503L442.543 220.444L445.85 218.591Z" fill="#706F6F"/>
<path d="M441.923 216.326L445.23 218.179L441.923 220.238L438.41 218.179L441.923 216.326Z" fill="white"/>
<path d="M437.996 217.973L434.483 215.914L437.79 214.061L441.303 215.914L437.996 217.973Z" fill="white"/>
<path d="M433.862 211.59L437.376 213.649L434.069 215.502L430.555 213.649L433.862 211.59Z" fill="white"/>
<path d="M429.936 209.325L433.449 211.384L429.936 213.237L426.629 211.384L429.936 209.325Z" fill="white"/>
<path d="M426.009 207.061L429.316 209.12L426.009 210.973L422.495 208.914L426.009 207.061Z" fill="white"/>
<path d="M421.875 204.796L425.388 206.855L422.081 208.708L418.568 206.649L421.875 204.796Z" fill="white"/>
<path d="M417.948 202.531L421.461 204.59L418.154 206.443L414.641 204.384L417.948 202.531Z" fill="white"/>
<path d="M414.021 204.178L410.714 202.119L414.021 200.266L417.534 202.119L414.021 204.178Z" fill="white"/>
<path d="M410.094 201.913L406.58 199.854L409.887 198.001L413.401 199.854L410.094 201.913Z" fill="white"/>
<path d="M406.167 199.648L402.653 197.589L405.96 195.736L409.474 197.589L406.167 199.648Z" fill="white"/>
<path d="M405.547 195.324L402.24 197.177L394.799 193.059L398.106 191L405.547 195.324Z" fill="#706F6F"/>
<path d="M441.923 220.856L445.437 222.709L442.13 224.768L438.616 222.709L441.923 220.856Z" fill="white"/>
<path d="M437.996 218.385L441.51 220.444L438.203 222.297L434.689 220.444L437.996 218.385Z" fill="white"/>
<path d="M434.069 220.032L430.555 218.179L434.069 216.12L437.376 218.179L434.069 220.032Z" fill="white"/>
<path d="M429.936 213.855L433.449 215.914L430.142 217.767L426.629 215.708L429.936 213.855Z" fill="white"/>
<path d="M426.008 211.59L429.522 213.649L426.215 215.502L422.701 213.443L426.008 211.59Z" fill="white"/>
<path d="M422.081 209.325L425.595 211.384L422.081 213.237L418.774 211.178L422.081 209.325Z" fill="white"/>
<path d="M418.154 207.061L421.461 208.914L418.154 210.973L414.641 208.914L418.154 207.061Z" fill="white"/>
<path d="M414.021 204.796L417.534 206.649L414.228 208.708L410.714 206.649L414.021 204.796Z" fill="white"/>
<path d="M410.3 206.443L406.787 204.384L410.094 202.531L413.607 204.384L410.3 206.443Z" fill="white"/>
<path d="M406.167 203.972L402.86 202.119L406.167 200.06L409.68 202.119L406.167 203.972Z" fill="white"/>
<path d="M402.24 201.707L398.726 199.854L402.24 197.795L405.547 199.854L402.24 201.707Z" fill="white"/>
<path d="M398.106 195.53L401.619 197.589L398.312 199.442L394.799 197.589L398.106 195.53Z" fill="white"/>
<path d="M394.385 197.177L390.872 195.118L394.179 193.265L397.692 195.324L394.385 197.177Z" fill="white"/>
<path d="M438.203 222.915L441.51 224.974L438.203 226.827L434.689 224.974L438.203 222.915Z" fill="white"/>
<path d="M434.069 220.65L437.583 222.709L434.276 224.562L430.762 222.709L434.069 220.65Z" fill="white"/>
<path d="M430.349 222.297L426.835 220.238L430.142 218.385L433.656 220.444L430.349 222.297Z" fill="white"/>
<path d="M426.215 216.12L429.729 218.179L426.215 220.032L422.908 217.973L426.215 216.12Z" fill="white"/>
<path d="M422.081 213.855L425.595 215.708L422.288 217.767L418.774 215.708L422.081 213.855Z" fill="white"/>
<path d="M418.154 211.59L421.668 213.443L418.361 215.502L414.848 213.443L418.154 211.59Z" fill="white"/>
<path d="M414.227 209.325L417.741 211.178L414.434 213.237L410.92 211.178L414.227 209.325Z" fill="white"/>
<path d="M410.3 206.854L413.814 208.913L410.3 210.767L406.993 208.913L410.3 206.854Z" fill="white"/>
<path d="M406.373 208.502L402.86 206.649L406.167 204.59L409.68 206.649L406.373 208.502Z" fill="white"/>
<path d="M402.446 206.237L398.932 204.384L402.239 202.325L405.753 204.384L402.446 206.237Z" fill="white"/>
<path d="M398.519 203.972L395.006 201.913L398.313 200.06L401.826 202.119L398.519 203.972Z" fill="white"/>
<path d="M394.385 197.795L397.692 199.854L394.385 201.707L390.872 199.648L394.385 197.795Z" fill="white"/>
<path d="M390.045 199.648L393.972 201.913L390.665 203.766C386.945 201.707 383.225 199.442 383.225 199.442C383.225 199.442 383.638 199.237 390.459 195.324L393.972 197.383L390.045 199.648Z" fill="#706F6F"/>
<path d="M430.349 222.915L437.789 227.238L434.276 229.091L426.835 224.768L430.349 222.915Z" fill="#706F6F"/>
<path d="M426.422 224.562L422.908 222.503L426.215 220.65L429.729 222.709L426.422 224.562Z" fill="white"/>
<path d="M422.288 218.385L425.802 220.238L422.495 222.297L418.981 220.238L422.288 218.385Z" fill="white"/>
<path d="M418.361 216.12L421.875 217.973L418.361 220.032L415.054 217.973L418.361 216.12Z" fill="white"/>
<path d="M414.434 213.649L417.741 215.708L414.434 217.561L410.92 215.708L414.434 213.649Z" fill="white"/>
<path d="M410.3 211.384L413.814 213.443L410.507 215.296L406.993 213.443L410.3 211.384Z" fill="white"/>
<path d="M406.373 209.119L409.887 211.178L406.58 213.031L403.066 211.178L406.373 209.119Z" fill="white"/>
<path d="M402.446 210.767L399.139 208.708L402.446 206.854L405.96 208.913L402.446 210.767Z" fill="white"/>
<path d="M398.519 208.502L395.006 206.443L398.519 204.59L401.826 206.649L398.519 208.502Z" fill="white"/>
<path d="M394.592 206.237L391.079 204.178L394.386 202.325L397.899 204.384L394.592 206.237Z" fill="white"/>
<path d="M425.182 228.268L423.115 227.033L426.422 225.179L433.863 229.503L430.556 231.356L426.629 229.091L425.182 228.268Z" fill="#706F6F"/>
<path d="M422.495 226.827L419.188 224.768L422.495 222.915L426.008 224.768L422.495 226.827Z" fill="white"/>
<path d="M418.361 220.444L421.875 222.503L418.568 224.356L415.054 222.503L418.361 220.444Z" fill="white"/>
<path d="M414.434 218.179L417.948 220.238L414.641 222.091L411.127 220.238L414.434 218.179Z" fill="white"/>
<path d="M410.507 215.914L414.021 217.973L410.714 219.826L407.2 217.973L410.507 215.914Z" fill="white"/>
<path d="M406.58 213.649L409.887 215.708L406.58 217.561L403.273 215.502L406.58 213.649Z" fill="white"/>
<path d="M402.446 211.384L405.96 213.443L402.653 215.296L399.139 213.237L402.446 211.384Z" fill="white"/>
<path d="M398.726 213.031L395.212 210.972L398.519 209.119L402.033 211.178L398.726 213.031Z" fill="white"/>
<path d="M394.799 210.767L391.285 208.708L394.592 206.854L398.106 208.708L394.799 210.767Z" fill="white"/>
<path d="M390.665 208.502L387.151 206.443L390.665 204.59L393.972 206.443L390.665 208.502Z" fill="white"/>
<path d="M386.738 206.237L379.297 201.913L382.604 199.854L390.045 204.178L386.738 206.237Z" fill="#706F6F"/>
<path d="M426.629 233.621L423.115 231.562L426.629 229.709L429.936 231.562L426.629 233.621Z" fill="white"/>
<path d="M422.082 227.033L426.009 229.297L422.702 231.151L418.775 228.886L417.534 228.268L415.261 227.033L418.568 224.974L420.841 226.209L422.082 227.033Z" fill="white"/>
<path d="M414.641 226.621C409.68 223.738 402.239 219.414 391.285 213.237L394.592 211.384C405.546 217.767 412.987 222.091 417.948 224.768L414.641 226.621Z" fill="#706F6F"/>
<path d="M390.872 213.032L387.358 210.973L390.665 208.914L394.179 210.973L390.872 213.032Z" fill="white"/>
<path d="M386.945 210.561L383.431 208.708L386.738 206.649L390.252 208.708L386.945 210.561Z" fill="white"/>
<path d="M382.811 208.296L379.504 206.443L382.811 204.384L386.325 206.443L382.811 208.296Z" fill="white"/>
<path d="M378.884 206.031L375.37 203.972L378.677 202.119L382.191 204.178L378.884 206.031Z" fill="white"/>
<path d="M388.185 219.003L392.112 216.738C392.526 216.532 393.146 216.532 393.559 216.738L404.72 223.121C405.133 223.327 405.133 223.738 404.72 223.944L400.793 226.209L388.185 219.003Z" fill="#706F6F"/>
<path d="M400.379 226.415L398.726 227.239C398.313 227.445 397.692 227.445 397.279 227.239L391.905 224.15L394.179 222.915L400.379 226.415Z" fill="white"/>
<path d="M393.972 222.709L391.699 223.944L386.325 220.856C385.912 220.65 385.912 220.238 386.325 220.032L387.978 219.208L393.972 222.709Z" fill="white"/>
<path d="M410.094 140.35L410.92 140.144C411.127 140.144 411.334 140.144 411.334 140.144L468.999 173.294C469.412 173.499 469.412 173.911 469.206 174.735L457.631 219.003C457.425 220.032 455.978 221.062 454.944 220.65L454.531 220.444L463.418 182.971L408.853 151.262L409.473 147.35L399.553 185.236C399.346 186.059 398.519 186.883 397.899 187.089L397.486 186.471L410.094 140.35Z" fill="#2E245B"/>
<path d="M409.473 140.967L397.486 186.882C397.486 187.294 397.486 187.706 397.899 187.912L455.151 220.65C455.358 220.856 455.771 220.65 455.771 220.444L467.966 174.117C468.172 173.705 467.966 173.293 467.552 173.087L410.714 140.35C410.3 140.144 409.68 140.35 409.473 140.967Z" fill="#3C3C3B"/>
<path d="M400.173 186.265L454.118 217.356L454.324 216.738L465.279 174.529L411.747 143.644L411.334 143.438L400.173 186.265Z" fill="white"/>
<path d="M400.793 185.853L408.234 190.177L429.936 202.737L454.324 216.738L462.385 185.647L464.039 179.882L465.279 174.529L464.659 174.117L441.717 160.94L411.747 143.644L400.793 185.853Z" fill="#55B2E6"/>
<path d="M409.68 184L447.711 205.62L455.565 175.559L417.741 153.733L409.68 184Z" fill="white"/>
<path d="M416.914 156.822L454.945 178.647L455.565 175.558L417.741 153.733L416.914 156.822Z" fill="#FF8657"/>
<path d="M416.914 156.822L419.808 158.675L420.635 155.381L417.741 153.733L416.914 156.822Z" fill="#9FCEF0"/>
<path d="M433.449 184.824L446.884 192.648L450.397 179.471L436.963 171.646L433.449 184.824Z" fill="#9FCEF0"/>
<path d="M418.361 162.175L434.896 171.646L435.103 170.617L418.568 161.352L418.361 162.175Z" fill="#2E245B"/>
<path d="M417.741 164.646L434.276 174.117L434.483 173.088L417.948 163.616L417.741 164.646Z" fill="#2E245B"/>
<path d="M417.121 167.117L433.656 176.588L433.863 175.558L417.328 166.087L417.121 167.117Z" fill="#2E245B"/>
<path d="M416.501 169.587L432.829 178.853L433.243 178.029L416.708 168.558L416.501 169.587Z" fill="#2E245B"/>
<path d="M415.881 171.852L432.209 181.324L432.623 180.294L416.088 170.823L415.881 171.852Z" fill="#2E245B"/>
<path d="M415.261 174.323L431.589 183.794L432.002 182.765L415.468 173.294L415.261 174.323Z" fill="#2E245B"/>
<path d="M414.434 176.794L446.264 194.913L446.677 193.883L414.848 175.764L414.434 176.794Z" fill="#2E245B"/>
<path d="M413.814 179.265L445.644 197.384L446.057 196.354L414.227 178.235L413.814 179.265Z" fill="#2E245B"/>
<path d="M413.194 181.529L445.024 199.854L445.437 198.825L413.607 180.5L413.194 181.529Z" fill="#2E245B"/>
<path d="M413.194 266.359L423.322 272.124C423.528 272.33 423.942 272.33 424.148 272.124L443.577 261.006C443.784 261.006 443.784 260.8 443.784 260.8C443.784 260.8 443.784 260.594 443.577 260.594L433.449 254.829C433.243 254.623 432.829 254.623 432.623 254.829L413.194 265.947C412.987 265.947 412.987 266.359 413.194 266.359Z" fill="#2E245B"/>
<path d="M443.784 259.771V260.8L413.194 266.153V265.124L443.784 259.771Z" fill="#2E245B"/>
<path d="M413.194 265.33L423.322 271.095C423.528 271.301 423.942 271.301 424.148 271.095L443.577 259.976C443.784 259.976 443.784 259.77 443.784 259.77C443.784 259.77 443.784 259.565 443.577 259.565L433.449 253.799C433.243 253.594 432.829 253.594 432.623 253.799L413.194 264.918C412.987 265.124 412.987 265.33 413.194 265.33Z" fill="#2E245B"/>
<path d="M424.562 270.477L441.923 260.388L437.376 257.711L435.929 256.888L433.656 255.652L432.829 255.241L432.002 254.829L414.641 264.918L424.562 270.477Z" fill="#55B2E6"/>
<path d="M435.929 256.682L438.41 258.123C438.41 258.123 438.616 258.123 438.823 258.123L439.443 257.712V257.506L436.963 256.064C436.963 256.064 436.756 256.064 436.55 256.064L435.929 256.476V256.682Z" fill="white"/>
<path d="M438.616 258.124C438.616 258.124 438.823 258.124 438.616 258.124L439.443 257.712C439.443 257.506 436.963 256.271 436.963 256.271H436.756L436.136 256.682C436.136 256.682 438.616 258.124 438.616 258.124Z" fill="#2E245B"/>
<path d="M419.188 268.418C419.395 268.624 419.395 268.624 419.188 268.418L420.015 268.212C420.015 268.006 419.808 268.006 419.808 268.212L419.188 268.418Z" fill="#2E245B"/>
<path d="M418.981 268.212C418.981 268.418 418.981 268.418 418.981 268.212L419.808 268.006C419.808 267.801 419.601 267.801 419.601 268.006L418.981 268.212Z" fill="#2E245B"/>
<path d="M418.568 268.007C418.775 268.212 418.775 268.212 418.568 268.007L419.395 267.801C419.395 267.595 419.188 267.595 419.188 267.801L418.568 268.007Z" fill="#2E245B"/>
<path d="M418.361 267.801C418.361 268.007 418.361 268.007 418.361 267.801L419.188 267.595C419.188 267.389 418.981 267.389 418.981 267.595L418.361 267.801Z" fill="#2E245B"/>
<path d="M417.948 267.595C417.948 267.801 418.155 267.801 417.948 267.595L418.775 267.389C418.775 267.183 418.568 267.183 418.568 267.389L417.948 267.595Z" fill="#2E245B"/>
<path opacity="0.5" d="M419.188 268.418C419.395 268.624 419.395 268.624 419.188 268.418L420.015 268.212C420.015 268.006 419.808 268.006 419.808 268.212L419.188 268.418Z" fill="#2E245B"/>
<path opacity="0.5" d="M418.981 268.212C418.981 268.418 418.981 268.418 418.981 268.212L419.808 268.006C419.808 267.801 419.601 267.801 419.601 268.006L418.981 268.212Z" fill="#2E245B"/>
<path opacity="0.5" d="M418.568 268.007C418.775 268.212 418.775 268.212 418.568 268.007L419.395 267.801C419.395 267.595 419.188 267.595 419.188 267.801L418.568 268.007Z" fill="#2E245B"/>
<path opacity="0.5" d="M418.361 267.801C418.361 268.007 418.361 268.007 418.361 267.801L419.188 267.595C419.188 267.389 418.981 267.389 418.981 267.595L418.361 267.801Z" fill="#2E245B"/>
<path opacity="0.5" d="M417.948 267.595C417.948 267.801 418.155 267.801 417.948 267.595L418.775 267.389C418.775 267.183 418.568 267.183 418.568 267.389L417.948 267.595Z" fill="#2E245B"/>
<path opacity="0.5" d="M422.495 269.859C422.288 269.859 422.288 270.065 422.495 270.065C422.702 270.065 422.702 270.065 422.908 270.065C423.115 270.065 423.115 269.859 422.908 269.859C422.702 269.859 422.495 269.859 422.495 269.859Z" fill="white"/>
<path opacity="0.5" d="M421.048 269.036C420.842 269.036 420.842 269.242 421.048 269.242C421.255 269.242 421.255 269.242 421.462 269.242C421.668 269.242 421.668 269.036 421.462 269.036C421.255 269.036 421.048 269.036 421.048 269.036Z" fill="#2E245B"/>
<path opacity="0.5" d="M485.741 237.534C493.595 241.446 493.595 247.623 485.741 251.535C477.887 255.447 465.072 255.447 457.218 251.535C449.364 247.623 449.364 241.446 457.218 237.534C465.279 233.622 477.887 233.622 485.741 237.534Z" fill="#D6D8E5"/>
<path d="M509.923 243.917H471.893V247.829H509.923V243.917Z" fill="#1E2D56"/>
<path d="M504.342 240.005C511.783 244.329 511.783 251.123 504.342 255.447C496.902 259.771 484.914 259.771 477.473 255.447C470.032 251.123 470.032 244.329 477.473 240.005C484.914 235.887 496.902 235.887 504.342 240.005Z" fill="#6F89D1"/>
<path d="M477.473 252.358C478.3 252.77 479.127 253.182 479.953 253.594C487.394 256.682 497.728 256.271 504.342 252.358C511.783 247.829 511.783 240.416 504.342 236.093C496.902 231.563 484.914 231.563 477.473 236.093C476.233 236.916 474.993 237.74 474.166 238.769C470.239 243.093 471.273 248.652 477.473 252.358Z" fill="#1E2D56"/>
<path d="M481.814 244.946C482.847 245.564 482.847 246.387 481.814 247.005C480.78 247.623 479.333 247.623 478.3 247.005C477.267 246.387 477.267 245.564 478.3 244.946C479.333 244.328 480.987 244.328 481.814 244.946Z" fill="#EDEDED"/>
<path d="M481.4 244.946C482.02 245.358 482.02 245.976 481.4 246.387C480.78 246.799 479.54 246.799 478.92 246.387C478.3 245.976 478.3 245.358 478.92 244.946C479.54 244.534 480.573 244.534 481.4 244.946Z" fill="#1E2D56"/>
<path d="M481.4 243.917H478.713L478.3 245.77H481.813L481.4 243.917Z" fill="#1E2D56"/>
<path d="M480.987 243.505C481.607 243.711 481.607 244.328 480.987 244.534C480.367 244.74 479.54 244.74 479.127 244.534C478.507 244.328 478.507 243.711 479.127 243.505C479.747 243.093 480.573 243.093 480.987 243.505Z" fill="#1E2D56"/>
<path d="M458.513 183.33L455.77 188.171L479.887 201.734L482.63 196.893L458.513 183.33Z" fill="#1E2D56"/>
<path d="M497.315 236.916C497.315 238.151 494.421 238.151 494.628 236.916V192.854C494.628 188.736 492.354 185.03 488.841 182.971C485.327 180.912 480.78 180.912 477.266 182.971L475.82 183.795L474.373 181.53L475.82 180.706C480.16 178.235 485.74 178.235 490.081 180.706C494.421 183.177 497.315 187.913 497.315 193.06V236.916V236.916Z" fill="#2E245B"/>
<path d="M479.333 194.707C482.434 200.061 479.953 204.384 473.753 204.59C467.552 204.59 459.905 200.266 456.598 194.913C453.498 189.56 455.978 185.236 462.178 185.03C468.379 185.03 476.026 189.354 479.333 194.707Z" fill="#6F89D1"/>
<path d="M483.054 193.06L481.4 183.795L470.652 177.618L462.178 180.912C461.972 180.912 461.765 181.118 461.558 181.118H461.352C457.838 182.559 457.011 186.059 459.491 190.177C462.592 195.531 470.239 199.855 476.646 199.855C481.4 199.855 483.88 196.972 483.054 193.06Z" fill="#1E2D56"/>
<path d="M474.58 170L469.826 178.441C469.412 179.265 469.412 180.5 470.239 181.736C471.686 184.206 475.2 186.265 478.3 186.265C479.747 186.265 480.78 185.648 481.193 184.824L485.947 176.382L474.58 170Z" fill="#6F89D1"/>
<path d="M485.741 172.882C487.187 175.353 486.154 177.412 483.054 177.412C480.16 177.412 476.646 175.353 474.993 172.882C473.546 170.411 474.58 168.352 477.68 168.352C480.574 168.352 484.294 170.205 485.741 172.882Z" fill="#1E2D56"/>
<path d="M482.847 171.853C483.467 172.882 483.054 173.5 481.813 173.5C480.78 173.5 479.333 172.676 478.713 171.853C478.093 170.823 478.506 170.205 479.747 170.205C480.987 170.205 482.433 171.029 482.847 171.853Z" fill="#6F89D1"/>
<path d="M318.325 129.644C323.492 139.732 323.079 160.116 322.252 181.324C322.666 194.089 317.498 206.031 310.058 222.709L304.891 246.799C301.997 238.975 300.344 231.151 300.964 223.327C303.237 206.443 304.891 194.913 306.751 179.677L302.41 150.027C297.863 137.468 307.991 119.76 318.325 129.644Z" fill="#FFD9BE"/>
<path d="M289.596 354.483V363.955L273.475 380.838C270.788 384.133 265.207 387.427 268.101 393.398C270.581 395.251 273.475 396.075 277.195 395.457C282.362 395.045 286.496 392.78 289.596 389.28L307.164 368.073L301.377 351.601L289.596 354.483Z" fill="#2E245B"/>
<path d="M274.508 307.333L288.976 363.337C291.663 368.484 296.83 370.131 300.757 368.278C303.031 367.249 305.098 364.984 305.511 361.484C301.377 336.57 305.511 313.098 296.83 300.538C302.617 289.626 310.885 276.242 319.566 261.212C321.839 257.094 324.113 252.976 326.386 248.858L324.319 241.857L312.332 201.708C293.523 225.797 281.535 255.035 274.301 293.949C273.268 298.479 273.268 303.009 274.508 307.333Z" fill="#C33AFC"/>
<path opacity="0.5" d="M290.009 298.685C298.07 314.539 300.137 340.276 300.757 368.484C303.03 367.455 305.097 365.19 305.511 361.69C301.377 336.776 305.511 313.304 296.83 300.744C302.617 289.831 310.885 276.448 319.565 261.418L334.24 248.858L324.526 241.857L312.538 233.416C311.918 255.652 303.857 277.272 290.009 298.685Z" fill="#C33AFC"/>
<path d="M303.444 390.515L299.93 400.604C301.584 401.839 301.79 405.34 301.584 409.869C298.897 415.635 298.69 415.635 293.316 418.105C288.149 424.9 279.055 432.106 272.854 433.136C269.134 433.959 265 433.342 262.934 431.077C261.693 426.135 264.587 421.606 274.715 412.34L284.429 398.133L290.423 385.368L303.444 390.515Z" fill="#2E245B"/>
<path d="M284.636 398.133C288.149 400.398 291.456 402.251 294.557 402.663C298.484 403.281 301.584 401.839 303.857 396.898C314.812 363.954 332.173 343.776 328.866 319.686L360.076 256.27C373.717 228.886 367.723 221.473 362.143 214.473C360.283 212.002 358.422 209.531 357.389 206.237C342.094 212.002 321.839 219.62 307.371 208.502C307.991 246.593 319.566 243.504 322.252 246.593C319.979 252.152 309.231 283.449 307.164 323.804C301.17 348.1 294.557 373.632 284.636 398.133Z" fill="#C33AFC"/>
<path opacity="0.5" d="M294.35 402.663C298.277 403.281 301.377 401.84 303.651 396.898C314.605 363.955 331.967 343.777 328.66 319.687L359.869 256.27C373.51 228.886 367.516 221.474 361.936 214.473L336.307 228.062C354.289 243.093 338.374 278.713 321.839 314.539C325.353 337.394 310.471 369.72 294.35 402.663Z" fill="#C33AFC"/>
<path d="M329.073 103.494C317.912 105.142 315.638 118.525 311.505 126.555C294.97 113.995 306.544 89.2875 329.073 103.494Z" fill="#2E245B"/>
<path d="M334.24 113.584C349.948 112.348 356.562 123.055 357.802 132.938C359.662 146.115 356.769 151.469 352.222 158.263C349.121 163.205 339.821 171.235 339.821 171.235C334.24 145.704 346.848 130.673 342.301 123.055C339.821 119.143 334.24 117.084 334.24 117.084V113.584Z" fill="#2E245B"/>
<path d="M309.438 190.795C310.885 200.884 306.958 205.002 303.444 214.061C304.477 220.444 311.091 230.739 319.565 232.18C337.754 235.475 358.836 230.327 366.07 220.856C361.729 211.796 353.669 205.414 357.802 195.736C360.903 190.383 363.176 184.824 364.416 178.647C366.07 171.029 366.276 162.999 365.656 154.351C356.976 145.498 347.881 138.291 337.547 136.026L314.812 127.379C301.5 123.5 300.14 141.441 302 150.5C301.173 164.501 299.207 163.647 299 172.5C299 179.707 301.17 190.177 309.438 190.795Z" fill="#FF8657"/>
<path opacity="0.5" d="M303.444 214.267C304.477 220.65 311.091 230.945 319.565 232.386C337.754 235.68 358.836 230.533 366.07 221.062C362.143 212.414 353.668 205.619 357.802 195.942C360.902 190.589 363.176 185.03 364.416 178.853L353.875 178.647C347.675 192.442 344.781 206.237 331.14 203.561C321.632 201.707 318.532 193.883 320.805 184.206C318.119 187.501 312.745 191.001 309.438 190.795C310.885 200.884 306.958 205.002 303.444 214.267Z" fill="#FF8657"/>
<path d="M341.765 137.06C338.665 131.913 337.631 126.971 337.218 121L319.03 122.441L319.236 135.413C312.623 153.944 340.112 149.002 341.765 137.06Z" fill="#FFD9BE"/>
<path opacity="0.5" d="M337.397 125C336.157 135.707 332.23 151.561 322.723 146.619C317.142 143.737 319.209 134.677 320.243 127.059L337.397 125Z" fill="#FFD9BE"/>
<path d="M343.954 127.379C354.082 110.495 348.915 95.6704 335.067 92.376C319.979 88.8758 309.851 99.7883 309.851 112.966C309.438 126.967 312.952 136.85 318.325 137.673C327.006 139.115 333.413 135.203 335.894 129.438L343.954 127.379Z" fill="#FFD9BE"/>
<path d="M346.228 129.849L346.641 137.262C343.748 129.232 339.614 129.026 339.407 126.761L338.787 122.437L334.654 123.878C326.593 124.29 324.939 110.083 309.851 111.936C308.405 98.347 318.532 90.7288 331.14 90.9347C346.228 92.1701 351.188 101.024 350.568 111.73C350.155 118.525 349.328 124.496 346.228 129.849Z" fill="#2E245B"/>
<path d="M334.447 128.408C333.62 126.349 333.413 126.555 333.827 125.526C334.86 122.849 336.514 120.79 338.167 121.202C339.201 121.408 340.441 121.819 341.061 122.643C341.681 123.878 341.061 125.32 340.647 126.555C340.234 127.379 339.821 128.408 339.201 129.026C338.58 129.644 337.547 130.261 336.72 130.055C335.687 130.055 334.86 129.438 334.447 128.408Z" fill="#FFD9BE"/>
<path d="M315.018 163.822C318.119 165.47 318.119 168.352 315.018 170.205C311.918 171.852 306.958 171.852 304.064 170.205C300.964 168.558 300.964 165.675 304.064 163.822C306.958 161.969 311.918 161.969 315.018 163.822Z" fill="white"/>
<path d="M317.292 154.145H301.79V166.911H317.292V154.145Z" fill="white"/>
<path d="M315.018 150.851C318.119 152.498 318.119 155.381 315.018 157.234C311.918 158.881 306.958 158.881 304.064 157.234C300.964 155.587 300.964 152.704 304.064 150.851C306.958 149.204 311.918 149.204 315.018 150.851Z" fill="white"/>
<path d="M315.018 157.234C311.918 158.881 306.958 158.881 304.064 157.234C300.964 155.381 300.964 152.704 304.064 150.851C307.164 149.204 312.125 149.204 315.018 150.851C318.119 152.704 318.119 155.587 315.018 157.234Z" fill="#F4CE2C"/>
<path d="M315.018 157.234C311.918 158.881 306.958 158.881 304.064 157.234C304.271 157.028 304.477 156.822 304.684 156.822C307.371 155.381 311.711 155.381 314.398 156.822C314.605 157.028 314.812 157.028 315.018 157.234Z" fill="#2E245B"/>
<path d="M304.064 157.234C305.511 158.057 307.578 158.469 309.644 158.469C311.711 158.469 313.572 158.057 315.225 157.234C318.325 155.381 318.325 152.704 315.225 150.851C313.778 150.027 311.711 149.615 309.644 149.615C307.578 149.615 305.717 150.027 304.064 150.851C300.964 152.704 300.964 155.587 304.064 157.234ZM302.41 154.145C302.41 153.322 303.031 152.292 304.271 151.674C305.717 150.851 307.371 150.439 309.438 150.439C311.298 150.439 313.158 150.851 314.605 151.674C315.845 152.292 316.465 153.322 316.465 154.145C316.465 154.969 315.845 155.998 314.605 156.616C313.158 157.44 311.505 157.851 309.438 157.851C307.578 157.851 305.717 157.44 304.271 156.616C303.031 155.998 302.41 154.969 302.41 154.145Z" fill="#9FCEF0"/>
<path d="M331.76 170.411L330.52 168.352L326.593 161.763C324.733 159.498 323.286 159.293 318.119 157.028C317.292 157.028 316.878 157.234 316.465 157.645L314.605 156.822H312.745C310.885 157.234 310.678 159.087 311.711 159.91L311.505 160.322C309.644 161.352 309.438 163.205 310.885 164.028L311.298 164.646H310.471C309.024 165.058 309.231 166.911 310.058 167.734L310.885 168.558C309.438 168.558 309.024 169.999 310.058 170.823L313.158 173.499L318.532 175.764C319.979 176.382 321.426 176.588 322.872 176.382L324.733 176.176L327.833 180.294L334.447 174.323L331.76 170.411Z" fill="#FFD9BE"/>
<path d="M316.672 162.999L316.259 161.557L311.711 159.704L311.505 160.322L316.672 162.999Z" fill="#FFD9BE"/>
<path d="M315.225 165.676V166.911L311.505 164.852L311.091 164.234L315.225 165.676Z" fill="#FFD9BE"/>
<path d="M313.985 169.794V170.411L311.091 168.97L310.471 168.352L313.985 169.794Z" fill="#FFD9BE"/>
<path d="M322.459 160.322C322.252 160.322 320.805 160.528 320.805 160.528L316.465 157.646L322.459 160.322Z" fill="#FFD9BE"/>
<path d="M360.903 177.764C360.903 177.764 364.5 176.382 364.5 177.764C363.26 191.765 363.796 203.355 360.903 210.973C357.389 216.12 353.875 217.562 350.362 217.356C338.581 209.12 330.52 193.266 324.939 176.382C328.246 174.941 330.933 174.117 331.553 169.793L346.848 185.442V177.764C346.848 169.793 351.602 175.499 360.903 177.764Z" fill="#FFD9BE"/>
</g>
<defs>
<clipPath id="clip0">
<rect width="368.332" height="355.473" fill="white" transform="matrix(-1 0 0 1 368.332 0)"/>
</clipPath>
<clipPath id="clip1">
<rect width="304.035" height="342.613" fill="white" transform="translate(219.53 90.9348)"/>
</clipPath>
</defs>
</svg>
