<svg width="395" height="458" viewBox="0 0 395 458" fill="none" xmlns="http://www.w3.org/2000/svg">
<g clip-path="url(#clip0)">
<path d="M197 457.9C88.1448 457.9 -0.0999146 407.801 -0.0999146 346C-0.0999146 284.199 88.1448 234.1 197 234.1C305.855 234.1 394.1 284.199 394.1 346C394.1 407.801 305.855 457.9 197 457.9Z" fill="#F5F5F5"/>
<path d="M115 416.6L262.1 331.7C267.8 328.4 267.8 320.2 262.1 317L247.6 307.9C242.5 305 236.2 305 231.1 307.9L84.1 392.7C78.4 396 78.4 404.2 84.1 407.4L98.6 416.5C103.7 419.5 110 419.5 115 416.6Z" fill="#D9D9D9"/>
<path d="M338.7 339.1C321.082 339.1 306.8 330.907 306.8 320.8C306.8 310.693 321.082 302.5 338.7 302.5C356.318 302.5 370.6 310.693 370.6 320.8C370.6 330.907 356.318 339.1 338.7 339.1Z" fill="#E6E6E6"/>
<path d="M62.9001 343.4L48.9001 351.5C48.9001 351.5 56.1001 329 52.2001 306.4C50.8001 297.8 47.7001 293.6 46.6001 291.3C45.5001 289 37.2001 274.9 44.6001 268.4C52.0001 261.9 69.4001 275 68.4001 309.8C68.0001 327.6 62.9001 343.4 62.9001 343.4Z" fill="#C33AFC"/>
<path opacity="0.5" d="M62.9001 343.4L48.9001 351.5C48.9001 351.5 56.1001 329 52.2001 306.4C50.8001 297.8 47.7001 293.6 46.6001 291.3C45.5001 289 37.2001 274.9 44.6001 268.4C52.0001 261.9 69.4001 275 68.4001 309.8C68.0001 327.6 62.9001 343.4 62.9001 343.4Z" fill="#2E245B"/>
<path d="M56.3999 347.6C56.5999 347.6 56.7999 347.5 56.8999 347.3C56.9999 347.2 62.2999 332.5 62.0999 309C61.8999 285.4 49.5999 272.7 49.4999 272.6C49.2999 272.4 49 272.4 48.8 272.6C48.6 272.8 48.6 273.1 48.8 273.3C48.9 273.4 60.9999 285.8 61.0999 309C61.2999 332.3 55.9999 346.8 55.8999 346.9C55.7999 347.2 55.9 347.4 56.2 347.5C56.3 347.6 56.2999 347.6 56.3999 347.6Z" fill="white"/>
<path d="M57.1002 346.8L38.0002 357.8C33.9002 360.2 28.4002 359.1 25.8002 355.2C24.7002 353.6 24.0002 351.4 24.3002 348.6C25.2002 338.7 29.5002 336.4 24.2002 331.9C18.9002 327.5 17.5002 327.2 17.8002 322.9C18.1002 318.6 21.0002 316.8 22.4002 315.1C23.8002 313.4 27.6002 309.9 25.0002 304.7C22.4002 299.5 18.9002 294.5 24.2002 292.2C27.4002 290.8 32.8002 292.7 36.3002 296.5C39.8002 300.3 42.7002 303.1 46.1002 304C49.5002 304.9 56.5002 305.1 56.2002 310.9C55.9002 316.7 54.4002 318.7 55.7002 321.3C58.3002 326 69.6002 328.8 57.1002 346.8Z" fill="#C33AFC"/>
<path d="M47.6 352.7C47.9 352.7 48.1 352.5 48.1 352.2C48.1 351.9 51 317.5 27.4 294.7C27.2 294.5 26.9 294.5 26.7 294.7C26.5 294.9 26.5 295.2 26.7 295.4C50 318 47.1 351.8 47.1 352.2C47.1 352.5 47.3 352.7 47.6 352.7Z" fill="white"/>
<path d="M43.8002 323.2C44.1002 323.2 44.3002 323 44.3002 322.7C45.1002 313.6 51.5002 309 51.5002 309C51.7002 308.8 51.8002 308.5 51.6002 308.3C51.4002 308.1 51.1002 308 50.9002 308.2C50.6002 308.4 44.1002 313.1 43.2002 322.7C43.3002 322.9 43.5002 323.2 43.8002 323.2Z" fill="white"/>
<path d="M45.4001 329.1C45.5001 329.1 45.6001 329.1 45.7001 329C45.9001 328.8 45.9001 328.5 45.7001 328.3C45.5001 328 39.6001 321.5 25.7001 323.2C25.4001 323.2 25.2001 323.5 25.3001 323.8C25.3001 324.1 25.6001 324.3 25.9001 324.2C39.2001 322.5 45.0001 328.9 45.0001 328.9C45.2001 329 45.3001 329.1 45.4001 329.1Z" fill="white"/>
<path d="M119.5 406.4L248.9 331.7C258 326.4 265.4 312.3 265.4 300.1V23.0999C265.4 10.8999 258 5.29986 248.9 10.5999L119.5 85.2999C110.4 90.5999 103 104.7 103 116.9V393.9C103 406.1 110.4 411.7 119.5 406.4Z" fill="#2E245B"/>
<path d="M104.6 76.7L234 1.99995C237.9 -0.300047 241.5 -0.500047 244.3 0.899953C244.6 1.09995 245 1.29995 245.3 1.49995L259.8 9.89995C256.9 8.19995 253.1 8.29995 248.9 10.7L119.5 85.4C110.4 90.7 103 104.8 103 117V394C103 400.4 105.1 405 108.4 407.2L94.1001 398.9C90.5 397 88.1001 392.2 88.1001 385.4V108.4C88.1001 96.1 95.5 81.8999 104.6 76.7Z" fill="#2E245B"/>
<path d="M103 116.9V393.9C103 400.3 105.1 404.9 108.4 407.1L94.1002 398.8C90.5002 396.9 88.1002 392.1 88.1002 385.3V108.3L103 116.9Z" fill="#263238"/>
<path d="M88.1003 129.8L103 138.4V145.1L88.1003 136.5V129.8Z" fill="#2E245B"/>
<path d="M94.6003 174.4C95.9003 175.2 97.0002 174.4 97.0002 172.6V158.2C97.0002 156.4 95.9003 154.4 94.6003 153.6C93.3003 152.8 92.2003 153.6 92.2003 155.4V169.8C92.2003 171.6 93.3003 173.7 94.6003 174.4Z" fill="#2E245B"/>
<path d="M97.0002 172.6V158.2C97.0002 156.4 95.9002 154.4 94.6002 153.6C94.0002 153.3 93.5002 153.2 93.1002 153.5L94.9001 152.6C95.3001 152.4 95.9002 152.4 96.5002 152.7C97.8002 153.5 98.9001 155.5 98.9001 157.3V171.7C98.9001 172.7 98.6002 173.3 98.1002 173.6L96.2002 174.6C96.7002 174.3 97.0002 173.6 97.0002 172.6Z" fill="#2E245B"/>
<path d="M94.6003 209.4C95.9003 210.2 97.0002 209.4 97.0002 207.6V193.2C97.0002 191.4 95.9003 189.4 94.6003 188.6C93.3003 187.8 92.2003 188.6 92.2003 190.4V204.8C92.2003 206.6 93.3003 208.7 94.6003 209.4Z" fill="#2E245B"/>
<path d="M97.0002 207.6V193.2C97.0002 191.4 95.9002 189.4 94.6002 188.6C94.0002 188.3 93.5002 188.2 93.1002 188.5L94.9001 187.6C95.3001 187.4 95.9002 187.4 96.5002 187.7C97.8002 188.5 98.9001 190.5 98.9001 192.3V206.7C98.9001 207.7 98.6002 208.3 98.1002 208.6L96.2002 209.6C96.7002 209.3 97.0002 208.6 97.0002 207.6Z" fill="#2E245B"/>
<path d="M124 93.1L251.2 19.7C253.5 18.4 256.5 20 256.5 22.7V300.1C256.5 309.4 249.9 320.7 241.9 325.4L117.8 397C115.2 398.5 112 396.6 112 393.7V114C112 106.3 117.4 97 124 93.1Z" fill="#14C6FF"/>
<path opacity="0.9" d="M124 93.1L251.2 19.7C253.5 18.4 256.5 20 256.5 22.7V300.1C256.5 309.4 249.9 320.7 241.9 325.4L117.8 397C115.2 398.5 112 396.6 112 393.7V114C112 106.3 117.4 97 124 93.1Z" fill="white"/>
<path d="M213.1 38.8999L211.2 47.1999L169 71.4999L161.8 67.5999L213.1 38.8999Z" fill="#2E245B"/>
<path d="M200.8 46.8999C200.8 48.2999 201.8 48.7999 203 48.0999C204.2 47.3999 205.2 45.6999 205.2 44.3999C205.2 42.9999 204.2 42.4999 203 43.1999C201.7 43.8999 200.8 45.4999 200.8 46.8999Z" fill="#263238"/>
<path d="M172.4 64.4998C172.6 64.4998 172.8 64.3998 173.1 64.2998L194.6 52.2998C195.3 51.8998 195.5 51.0998 195.1 50.4998C194.7 49.7998 193.9 49.5998 193.3 49.9998L171.8 61.9998C171.1 62.3998 170.9 63.1998 171.3 63.7998C171.4 64.1998 171.9 64.4998 172.4 64.4998Z" fill="#263238"/>
<path d="M248 139.6C244.4 135.2 242.2 129.5 242.2 123.4C242.2 109.2 253.7 97.7 267.9 97.7C282.1 97.7 293.6 109.2 293.6 123.4C293.6 137.6 282.1 149.1 267.9 149.1C263.1 149.1 258.6 147.8 254.7 145.5L242.2 150.9L248 139.6Z" fill="#14C6FF"/>
<path opacity="0.4" d="M248 139.6C244.4 135.2 242.2 129.5 242.2 123.4C242.2 109.2 253.7 97.7 267.9 97.7C282.1 97.7 293.6 109.2 293.6 123.4C293.6 137.6 282.1 149.1 267.9 149.1C263.1 149.1 258.6 147.8 254.7 145.5L242.2 150.9L248 139.6Z" fill="#2E245B"/>
<path d="M257.3 122C257.3 121.6 257 121.4 256.5 121.4C255.6 121.4 254.5 122 253.3 122.9L251.9 120.1C253.6 119 255.3 118.3 257.1 118.3C259.5 118.3 261.3 119.6 261.3 121.4C261.3 122.7 260.3 124 259 125.3L257.2 127.1H261.4V130H252.3V127.6L256.3 123.4C256.9 123 257.3 122.4 257.3 122Z" fill="white"/>
<path d="M268.9 118.5L266.1 125.1H267.2V122.9H270.7V125.1H272V127.8H270.7V130H267.2V127.8H262.3V125.3L265.3 118.4H268.9V118.5Z" fill="white"/>
<path d="M282.8 124.3V130.1H279.1V125.4C279.1 124.6 278.7 124.2 278 124.2C277.3 124.2 276.8 124.8 276.8 125.7V130.2H273.1V117.9H276.8V122.4C277.4 121.5 278.4 120.9 279.5 120.9C281.5 120.9 282.8 122.2 282.8 124.3Z" fill="white"/>
<path d="M130.6 217.2V341.4C130.6 347.6 137.3 351.4 142.6 348.3L209.5 309.7L221.4 302.9C223.9 301.5 226.1 299.6 228 297.5C232.3 292.6 234.8 286.3 234.8 279.6V155.4C234.8 149.2 228.1 145.4 222.8 148.5L144.1 194C135.7 198.8 130.6 207.6 130.6 217.2Z" fill="#14C6FF"/>
<path opacity="0.5" d="M130.6 217.2V341.4C130.6 347.6 137.3 351.4 142.6 348.3L209.5 309.7L221.4 302.9C223.9 301.5 226.1 299.6 228 297.5C232.3 292.6 234.8 286.3 234.8 279.6V155.4C234.8 149.2 228.1 145.4 222.8 148.5L144.1 194C135.7 198.8 130.6 207.6 130.6 217.2Z" fill="white"/>
<path d="M169.2 290.7C169.2 290.7 156.7 311.5 165.7 334.9L209.6 309.7L169.2 290.7Z" fill="#263238"/>
<path d="M149.086 197.357C148.141 189.683 153.641 182.691 161.369 181.739C169.098 180.788 176.13 186.237 177.074 193.911C178.019 201.585 172.52 208.578 164.791 209.529C157.062 210.481 150.031 205.031 149.086 197.357Z" fill="#263238"/>
<path d="M163.1 156.3C163.1 156.3 158.8 149.3 157.5 149.8C156.2 150.3 158.4 157 158.4 157C158.4 157 151.9 158.4 153.1 160C154.3 161.6 162.3 161.3 162.3 161.3L163.1 156.3Z" fill="#263238"/>
<path d="M160 174.3C163 196.8 182 196.8 182 196.8L221.8 179.3C221.8 179.3 224.8 176.7 225.7 170.6C226 168.5 226.1 166 225.7 163.1C225.7 163.1 225.7 163.1 225.7 163C224.4 153.5 217.3 143.3 201.9 140.2C198.8 139.6 195.4 139.2 191.6 139.2C189.9 139.2 188.2 139.3 186.6 139.5C174.6 140.7 166.2 146.3 162.2 155C161.3 156.9 160.7 159 160.2 161.2C159.5 165.2 159.4 169.5 160 174.3Z" fill="#263238"/>
<path d="M255.6 217.9C255.6 217.9 269.7 217.4 275.2 231.2C275.2 231.2 269.2 235.2 261.3 231.2C253.4 227.2 255.6 217.9 255.6 217.9Z" fill="#14C6FF"/>
<path opacity="0.5" d="M255.6 217.9C255.6 217.9 269.7 217.4 275.2 231.2C275.2 231.2 269.2 235.2 261.3 231.2C253.4 227.2 255.6 217.9 255.6 217.9Z" fill="#2E245B"/>
<path d="M256 224.5C256 224.5 260 207.1 262.1 206.9C264.3 206.7 264.6 212.2 264.5 215.3L269.5 204.5C270.2 203.1 271.9 202.5 273.3 203.3C278.3 206.1 287.1 214.4 268.6 235.1L256 224.5Z" fill="#FFD9BE"/>
<path d="M204.8 212.5L207.8 212.1C214 211.3 220.1 213.9 223.8 218.8L241.6 242.6L255.6 217.9C255.6 217.9 257.3 234.7 275.2 231.2L256 263.5C250.7 272.3 238.3 273.2 231.8 265.3L215.4 245.1L204.8 212.5Z" fill="#14C6FF"/>
<path d="M166.7 268C170.7 278.1 171.1 280.1 168.7 285.2C166.2 290.3 164.7 296.8 164.7 296.8C164.7 296.8 183.2 317.6 209.6 309.8L221.5 303C224 301.6 226.2 299.7 228.1 297.6L224.6 270.7C224.4 269.3 224.6 267.8 225 266.5L228.8 255.4C232.6 244.3 229.7 232.1 221.3 223.9L208.6 211.4L175.1 215.6L170.1 217C163.3 218.9 159 225.6 160 232.5C161.5 244.5 164.2 261.6 166.7 268Z" fill="#14C6FF"/>
<path d="M166.7 268C170.7 278.1 171.1 280.1 168.7 285.2C166.2 290.3 164.7 296.8 164.7 296.8C164.7 296.8 183.2 317.6 209.6 309.8L221.5 303C224 301.6 226.2 299.7 228.1 297.6L224.6 270.7C224.4 269.3 224.6 267.8 225 266.5L228.8 255.4C232.6 244.3 229.7 232.1 221.3 223.9L208.6 211.4L175.1 215.6L170.1 217C163.3 218.9 159 225.6 160 232.5C161.5 244.5 164.2 261.6 166.7 268Z" fill="#FAD475"/>
<path d="M186.9 237.7L193.6 232C195 230.8 197 230.4 198.8 231L206.9 233.8L208 229.3C208.7 226.3 211.8 224.5 214.7 225.4L218.2 226.4L212.3 215C210.4 211.3 207.4 208.2 203.7 206.2L201.4 204.9L182.1 205.9C182.1 205.9 174.9 208.9 174.9 215.7L186.9 237.7Z" fill="#14C6FF"/>
<path d="M182 214.4L201.3 229.4V181.5H182V214.4Z" fill="#FFD9BE"/>
<path d="M201 210.4L206.9 233.8L182.1 214.4L201 210.4Z" fill="#FFD9BE"/>
<path d="M201.3 207C193.9 204.1 186.1 198.4 182 188.6V181.5H201.3V207Z" fill="#E7B897"/>
<path d="M197.2 146C204.5 146 220.1 150.1 221.9 169.2C223.7 188.4 222 203.2 212.1 204.6C202.2 206 179.3 198.9 176.2 174.1C173 149.4 190 146 197.2 146Z" fill="#FFD9BE"/>
<path d="M208.7 177.4V188.7L215.3 186.7L208.7 177.4Z" fill="#E7B897"/>
<path d="M201.3 181.6C200.03 181.6 199 180.57 199 179.3C199 178.03 200.03 177 201.3 177C202.57 177 203.6 178.03 203.6 179.3C203.6 180.57 202.57 181.6 201.3 181.6Z" fill="#263238"/>
<path d="M214.2 177.7C214.2 179 215.2 180 216.5 180C217.8 180 218.8 179 218.8 177.7C218.8 176.4 217.8 175.4 216.5 175.4C215.2 175.4 214.2 176.5 214.2 177.7Z" fill="#263238"/>
<path d="M219.3 172.9L214.8 170.2C214.8 170.2 216.5 168.4 218.2 169.5C219.9 170.6 219.3 172.9 219.3 172.9Z" fill="#263238"/>
<path d="M211.8 193.3C211.8 193.3 208.1 193.6 205.6 191.6C205.6 191.6 205.2 194.9 207.9 195.5C210.7 196.1 211.8 193.3 211.8 193.3Z" fill="#E7B897"/>
<path d="M215.7 152.6C215.7 152.6 212.9 179.1 177 179.9C177 179.9 166.1 153.6 187.6 145.1C209.1 136.5 215.7 152.6 215.7 152.6Z" fill="#263238"/>
<path d="M166.4 175.9C166.5 175.9 166.5 175.9 166.4 175.9L170.9 173.3C172.6 172.3 174.9 172.4 177.5 173.9C182.6 176.8 186.7 184 186.7 189.9C186.7 192.8 185.7 194.9 184 195.9L179.7 198.4C179.6 198.5 179.5 198.5 179.4 198.5L179.3 198.6C177.7 199.4 175.5 199.2 173.1 197.8C168 194.9 163.9 187.7 163.9 181.8C163.8 178.9 164.8 176.9 166.4 175.9Z" fill="#14C6FF"/>
<path d="M166.488 190.952C162.87 184.687 162.846 177.929 166.433 175.857C170.02 173.786 175.86 177.187 179.478 183.452C183.095 189.717 183.12 196.476 179.533 198.547C175.946 200.618 170.105 197.217 166.488 190.952Z" fill="#14C6FF"/>
<path opacity="0.5" d="M166.488 190.952C162.87 184.687 162.846 177.929 166.433 175.857C170.02 173.786 175.86 177.187 179.478 183.452C183.095 189.717 183.12 196.476 179.533 198.547C175.946 200.618 170.105 197.217 166.488 190.952Z" fill="#2E245B"/>
<path d="M164.7 181.4L167.7 179.6C168.8 178.9 170.4 179 172.2 180C175.7 182 178.5 186.9 178.5 190.9C178.5 192.9 177.8 194.3 176.6 195L173.6 196.7C173.5 196.7 173.5 196.8 173.4 196.8L173.3 196.9C172.2 197.4 170.7 197.3 169 196.4C165.5 194.4 162.7 189.5 162.7 185.5C162.8 183.5 163.5 182.1 164.7 181.4Z" fill="#14C6FF"/>
<path d="M162.8 185.5C162.8 189.5 165.6 194.4 169.1 196.4C172.6 198.4 175.4 196.8 175.4 192.8C175.4 188.8 172.6 183.9 169.1 181.9C165.7 179.8 162.8 181.5 162.8 185.5Z" fill="#14C6FF"/>
<path opacity="0.3" d="M162.8 185.5C162.8 189.5 165.6 194.4 169.1 196.4C172.6 198.4 175.4 196.8 175.4 192.8C175.4 188.8 172.6 183.9 169.1 181.9C165.7 179.8 162.8 181.5 162.8 185.5Z" fill="#2E245B"/>
<path d="M180.2 140.9C183.1 138.7 186.6 137.5 190.2 137.4C190.5 137.4 190.8 137.4 191.1 137.4C195.1 137.4 198.7 137.8 202 138.4C201.3 138.4 200.7 138.4 200 138.4H202V140.3H200.1C196.1 140.4 192.2 141.5 188.6 143.6C181 148 176.2 156.2 176.2 165.1V173C176.2 174.3 175.1 175.3 173.8 175.2C173.7 175.2 173.6 175.2 173.6 175.2L171.6 174.6C171.7 174.6 171.9 174.7 172 174.7C170.8 174.6 169.9 173.4 169.9 172.2V164.9C169.9 151.6 175.6 144.5 180.2 140.9Z" fill="#14C6FF"/>
<path d="M192.7 204.2C193.5 204.2 194.3 204 195.1 203.7L201.4 200.8C201.8 200.6 201.9 200.2 201.8 199.8C201.6 199.4 201.2 199.3 200.8 199.4L194.5 202.3C192.9 203.1 190.9 202.7 189.7 201.4L183.7 195.2C183.4 194.9 182.9 194.9 182.6 195.2C182.3 195.5 182.3 196 182.6 196.3L188.6 202.5C189.7 203.6 191.2 204.2 192.7 204.2Z" fill="#14C6FF"/>
<path opacity="0.5" d="M192.7 204.2C193.5 204.2 194.3 204 195.1 203.7L201.4 200.8C201.8 200.6 201.9 200.2 201.8 199.8C201.6 199.4 201.2 199.3 200.8 199.4L194.5 202.3C192.9 203.1 190.9 202.7 189.7 201.4L183.7 195.2C183.4 194.9 182.9 194.9 182.6 195.2C182.3 195.5 182.3 196 182.6 196.3L188.6 202.5C189.7 203.6 191.2 204.2 192.7 204.2Z" fill="#2E245B"/>
<path d="M199.7 198.6C199.7 200.2 201 201.5 202.6 201.5C204.2 201.5 205.5 200.2 205.5 198.6C205.5 197 204.2 195.7 202.6 195.7C201.1 195.7 199.7 197 199.7 198.6Z" fill="#14C6FF"/>
<path opacity="0.5" d="M199.7 198.6C199.7 200.2 201 201.5 202.6 201.5C204.2 201.5 205.5 200.2 205.5 198.6C205.5 197 204.2 195.7 202.6 195.7C201.1 195.7 199.7 197 199.7 198.6Z" fill="#2E245B"/>
<path d="M169.9 164.8V172.1C169.9 173.3 170.8 174.5 172 174.6C173.4 174.7 174.6 173.6 174.6 172.2V164.8C174.6 155.4 179.6 146.7 187.8 142C192.2 139.5 197.1 138.3 202 138.5C198.7 137.8 195.1 137.5 191.1 137.5C190.8 137.5 190.5 137.5 190.2 137.5C186.6 137.6 183.1 138.7 180.2 141C175.6 144.5 169.9 151.6 169.9 164.8Z" fill="#14C6FF"/>
<path opacity="0.5" d="M169.9 164.8V172.1C169.9 173.3 170.8 174.5 172 174.6C173.4 174.7 174.6 173.6 174.6 172.2V164.8C174.6 155.4 179.6 146.7 187.8 142C192.2 139.5 197.1 138.3 202 138.5C198.7 137.8 195.1 137.5 191.1 137.5C190.8 137.5 190.5 137.5 190.2 137.5C186.6 137.6 183.1 138.7 180.2 141C175.6 144.5 169.9 151.6 169.9 164.8Z" fill="#2E245B"/>
<path d="M181.1 302.3C181.1 302.3 185.9 315.6 168.6 321.6C168.6 321.6 162.9 313.3 168.6 306.5C174.3 299.8 181.1 302.3 181.1 302.3Z" fill="#14C6FF"/>
<path opacity="0.7" d="M181.1 302.3C181.1 302.3 185.9 315.6 168.6 321.6C168.6 321.6 162.9 313.3 168.6 306.5C174.3 299.8 181.1 302.3 181.1 302.3Z" fill="#2E245B"/>
<path d="M175.1 302.9C175.1 302.9 192 309.1 191.9 311.5C191.8 313.9 184.7 312.3 184.7 312.3L187.3 314C190 315.8 192.1 318.4 193.3 321.4C193.9 322.8 193.3 324.4 192 325L185.6 328.4C184.1 329.2 182.2 328.6 181.4 327C180.7 325.6 179.4 324.5 177.9 324C174.4 322.8 167.9 319.5 165.3 310.4L175.1 302.9Z" fill="#FFD9BE"/>
<path d="M170 217.1C170 217.1 179 222.1 174.2 237.3C169.4 252.5 160.4 276 160.4 276L181.1 302.3C181.1 302.3 174.2 302.8 170 308.9C165.8 315.1 168.7 321.6 168.7 321.6L143 288.6C138.2 282.4 136.8 274.2 139.4 266.8L150.4 234.7C153.1 226.7 159.4 220.5 167.4 217.9L170 217.1Z" fill="#14C6FF"/>
<path d="M321.9 127.4L361.7 104.4C362.9 103.7 364 103.6 364.9 104.1C365 104.2 365.1 104.2 365.2 104.3L373.8 109.4C373.8 109.4 373.8 109.4 373.7 109.4C374.8 110 375.5 111.5 375.5 113.5V157.7C375.5 161.4 373.2 165.8 370.4 167.4L330.6 190.4C329.2 191.2 328 191.2 327.1 190.5C327.1 190.5 327.1 190.5 327.2 190.6L318.6 185.6C317.5 185 316.8 183.5 316.8 181.4V137.2C316.8 133.4 319.1 129 321.9 127.4Z" fill="#FF8657"/>
<path d="M318.2 131.6C319.1 129.8 320.4 128.2 321.9 127.4L361.7 104.4C362.9 103.7 364 103.6 364.9 104.1C365 104.2 365.1 104.2 365.2 104.3L373.8 109.4C372.9 108.9 371.7 108.9 370.4 109.6L330.6 132.6C329.1 133.5 327.8 135.1 326.8 137L318.2 131.6Z" fill="#FF8657"/>
<path d="M325.6 186.5C325.6 188.5 326.2 189.9 327.3 190.5L318.7 185.5C317.6 184.9 316.9 183.4 316.9 181.3V137.1C316.9 135.3 317.4 133.3 318.3 131.6L327 136.9C326.2 138.6 325.7 140.5 325.7 142.2V186.5H325.6Z" fill="#FF8657"/>
<path opacity="0.3" d="M318.2 131.6C319.1 129.8 320.4 128.2 321.9 127.4L361.7 104.4C362.9 103.7 364 103.6 364.9 104.1C365 104.2 365.1 104.2 365.2 104.3L373.8 109.4C372.9 108.9 371.7 108.9 370.4 109.6L330.6 132.6C329.1 133.5 327.8 135.1 326.8 137L318.2 131.6Z" fill="#2E245B"/>
<path opacity="0.6" d="M325.6 186.5C325.6 188.5 326.2 189.9 327.3 190.5L318.7 185.5C317.6 184.9 316.9 183.4 316.9 181.3V137.1C316.9 135.3 317.4 133.3 318.3 131.6L327 136.9C326.2 138.6 325.7 140.5 325.7 142.2V186.5H325.6Z" fill="#2E245B"/>
<path d="M337.2 154.9C337.2 160.6 339.5 162.6 342.9 160.6C344.8 159.5 346.1 157.8 346.7 155.6C347.7 156.8 349.2 156.9 351.4 155.6C355 153.5 357.8 148.6 357.8 143.8C357.8 139 355 137.4 351.4 139.4C349.6 140.5 348.1 142 347.1 144V142.1L343.3 144.3V154.7C343.3 156.2 342.7 157.1 342 157.5C340.7 158.2 340 157 340 153.3C340 146.8 344.2 139.9 350.3 136.4C356.5 132.8 360.6 135.3 360.6 142C360.6 148.8 356.6 156 350.4 159.5C348.7 160.5 346.7 161.2 344.9 161.2L344 164.7C345.7 164.7 348.2 163.8 350.3 162.6C358.3 158 363.6 148.7 363.6 140.2C363.6 131.9 358.3 128.7 350.2 133.4C342.6 137.9 337.2 146.9 337.2 154.9ZM347.1 150.1C347.1 147.3 348.6 144.9 350.6 143.8C352.6 142.6 354 143.4 354 146.2C354 149 352.6 151.4 350.6 152.6C348.6 153.7 347.1 152.9 347.1 150.1Z" fill="#FF8657"/>
<g opacity="0.9">
<path opacity="0.9" d="M362.818 135C367.394 139 367.5 143 366 152C364.5 161 359.655 159.158 358.285 157.335C357.799 158.82 353 162.5 353 162.5C353 162.5 345.705 164.675 343.5 161.874C341.726 157.413 340.816 151.143 346.506 147C346.506 147 353.281 142.53 354.949 144.019L354.949 140.825L358.285 140.143L360 153.5C360.554 154.894 362.818 148.5 362.818 148.5C362.818 148.5 363.562 140.143 360.5 138C357.438 135.857 350.659 138.5 347.285 140.825C340.5 145.5 338.024 158.568 340.5 164.793C343.013 171.112 346.506 168.643 353 165.5C357.5 163.322 359.751 161.308 361.424 160.643L362.818 164.793C361.238 165.422 356.025 169.143 351.5 171C351.5 171 340.426 176.542 337.285 168.643C334.218 160.931 334.301 141.643 346.506 136C353.595 133.643 358.242 131 362.818 135ZM354.949 149.643C353.914 147.041 353.215 147.357 348.5 151C345.715 153.857 345.471 155.898 346.506 158.5C347.541 161.102 351.285 158.5 352.579 158.5C354.949 157.154 355.984 152.245 354.949 149.643Z" fill="white"/>
</g>
<path d="M321.9 206.2L361.7 183.2C362.9 182.5 364 182.4 364.9 182.9C365 183 365.1 183 365.2 183.1L373.8 188.2C373.8 188.2 373.8 188.2 373.7 188.2C374.8 188.8 375.5 190.3 375.5 192.3V236.5C375.5 240.2 373.2 244.6 370.4 246.2L330.6 269.2C329.2 270 328 270 327.1 269.3C327.1 269.3 327.1 269.3 327.2 269.4L318.6 264.4C317.5 263.8 316.8 262.3 316.8 260.2V216C316.8 212.1 319.1 207.8 321.9 206.2Z" fill="#308DC2"/>
<path d="M318.2 210.4C319.1 208.6 320.4 207 321.9 206.2L361.7 183.2C362.9 182.5 364 182.4 364.9 182.9C365 183 365.1 183 365.2 183.1L373.8 188.2C372.9 187.7 371.7 187.7 370.4 188.4L330.6 211.4C329.1 212.3 327.8 213.9 326.8 215.8L318.2 210.4Z" fill="#308DC2"/>
<path d="M325.6 265.3C325.6 267.3 326.2 268.7 327.3 269.3L318.7 264.3C317.6 263.7 316.9 262.2 316.9 260.1V215.9C316.9 214.1 317.4 212.1 318.3 210.4L327 215.7C326.2 217.4 325.7 219.3 325.7 221V265.3H325.6Z" fill="#308DC2"/>
<path opacity="0.3" d="M318.2 210.4C319.1 208.6 320.4 207 321.9 206.2L361.7 183.2C362.9 182.5 364 182.4 364.9 182.9C365 183 365.1 183 365.2 183.1L373.8 188.2C372.9 187.7 371.7 187.7 370.4 188.4L330.6 211.4C329.1 212.3 327.8 213.9 326.8 215.8L318.2 210.4Z" fill="#2E245B"/>
<path opacity="0.6" d="M325.6 265.3C325.6 267.3 326.2 268.7 327.3 269.3L318.7 264.3C317.6 263.7 316.9 262.2 316.9 260.1V215.9C316.9 214.1 317.4 212.1 318.3 210.4L327 215.7C326.2 217.4 325.7 219.3 325.7 221V265.3H325.6Z" fill="#2E245B"/>
<path d="M355 226L364.6 210.4V231.5L355 226Z" fill="#308DC2"/>
<path d="M346.1 230.4L336.5 247V225.9L346.1 230.4Z" fill="#308DC2"/>
<path d="M363.1 209.7L353.3 225.7L353.2 225.8V225.9L350.3 230.6L347.8 229.4L347.7 229.3C347.6 229.2 347.5 229.2 347.4 229.2L337.4 224.5L363.1 209.7Z" fill="#308DC2"/>
<path d="M347.5 231.1L350.2 232.4C350.3 232.5 350.4 232.5 350.5 232.5C350.8 232.5 351 232.4 351.2 232.1L354.1 227.3L363.7 232.9L337.8 247.8L347.5 231.1Z" fill="#308DC2"/>
<g opacity="0.9">
<path opacity="0.9" d="M355 226L364.6 210.4V231.5L355 226Z" fill="white"/>
<path opacity="0.9" d="M346.1 230.4L336.5 247V225.9L346.1 230.4Z" fill="white"/>
<path opacity="0.9" d="M363.1 209.7L353.3 225.7L353.2 225.8V225.9L350.3 230.6L347.8 229.4L347.7 229.3C347.6 229.2 347.5 229.2 347.4 229.2L337.4 224.5L363.1 209.7Z" fill="white"/>
<path opacity="0.9" d="M347.5 231.1L350.2 232.4C350.3 232.5 350.4 232.5 350.5 232.5C350.8 232.5 351 232.4 351.2 232.1L354.1 227.3L363.7 232.9L337.8 247.8L347.5 231.1Z" fill="white"/>
</g>
<path d="M321.9 48.6L361.7 25.6C362.9 24.9 364 24.8 364.9 25.3C365 25.4 365.1 25.4 365.2 25.5L373.8 30.6C373.8 30.6 373.8 30.6 373.7 30.6C374.8 31.2 375.5 32.7001 375.5 34.7001V78.9001C375.5 82.6001 373.2 87 370.4 88.6L330.6 111.6C329.2 112.4 328 112.4 327.1 111.7C327.1 111.7 327.1 111.7 327.2 111.8L318.6 106.8C317.5 106.2 316.8 104.7 316.8 102.6V58.3C316.8 54.6 319.1 50.3 321.9 48.6Z" fill="#14C6FF"/>
<path d="M318.2 52.8C319.1 51 320.4 49.4 321.9 48.6L361.7 25.6C362.9 24.9 364 24.8 364.9 25.3C365 25.4 365.1 25.4 365.2 25.5L373.8 30.6C372.9 30.1 371.7 30.1 370.4 30.8L330.6 53.8C329.1 54.7 327.8 56.3001 326.8 58.2001L318.2 52.8Z" fill="#14C6FF"/>
<path d="M325.6 107.7C325.6 109.7 326.2 111.1 327.3 111.7L318.7 106.7C317.6 106.1 316.9 104.6 316.9 102.5V58.3C316.9 56.5 317.4 54.5 318.3 52.8L327 58.1C326.2 59.8 325.7 61.7001 325.7 63.4001V107.7H325.6Z" fill="#14C6FF"/>
<path opacity="0.3" d="M318.2 52.8C319.1 51 320.4 49.4 321.9 48.6L361.7 25.6C362.9 24.9 364 24.8 364.9 25.3C365 25.4 365.1 25.4 365.2 25.5L373.8 30.6C372.9 30.1 371.7 30.1 370.4 30.8L330.6 53.8C329.1 54.7 327.8 56.3001 326.8 58.2001L318.2 52.8Z" fill="#2E245B"/>
<path opacity="0.6" d="M325.6 107.7C325.6 109.7 326.2 111.1 327.3 111.7L318.7 106.7C317.6 106.1 316.9 104.6 316.9 102.5V58.3C316.9 56.5 317.4 54.5 318.3 52.8L327 58.1C326.2 59.8 325.7 61.7001 325.7 63.4001V107.7H325.6Z" fill="#2E245B"/>
<path d="M338.6 88.6001C340.1 86.1001 341.7 83.6001 343.2 81.1001C343.9 79.9001 344.7 79.3001 345.6 79.1001C346.3 78.9001 347.1 78.8001 347.8 78.6001C348 78.5001 348.3 78.3001 348.5 78.0001C351 73.6001 353 69.0001 354.4 64.4001C354.5 64.2001 354.4 63.9001 354.3 63.8001C353.8 63.3001 353.3 62.9001 352.8 62.5001C352.2 62.0001 352.1 61.1001 352.4 59.9001C353.1 57.2001 353.9 54.6001 354.6 51.9001C355.1 50.2001 356.2 48.9001 357.5 48.6001C359.3 48.2001 360.9 48.2001 362.4 48.8001C363 49.0001 363.3 49.6001 363.3 50.5001C363 52.3001 362.9 54.1001 362.5 56.0001C360 69.4001 354.1 81.8001 344.7 93.0001C344 93.9001 343.2 94.3001 342.5 94.3001C340.9 94.2001 339.4 93.7001 338.3 92.7001C337.5 91.8001 337.5 90.4001 338.6 88.6001Z" fill="#14C6FF"/>
<path d="M338.7 75.0001C338.9 72.3001 339.7 69.6001 341.1 66.8001C342.1 64.8001 343.4 62.9001 344.8 61.3001C345.2 60.9001 345.5 60.7001 345.7 61.1001C345.9 61.4001 345.7 61.9001 345.3 62.3001C345.2 62.4001 345 62.6001 344.9 62.7001C342 66.2001 340.3 70.0001 339.9 74.0001C339.9 74.3001 339.9 74.6001 339.8 74.9001C339.7 75.2001 339.4 75.7001 339.2 75.8001C339 75.9001 338.8 75.8001 338.6 75.8001C338.7 75.5001 338.7 75.3001 338.7 75.0001Z" fill="#14C6FF"/>
<path d="M347.8 66.8001C346.5 68.3001 345.8 70.0001 345.6 71.8001C345.6 72.1001 345.4 72.4001 345.3 72.6001C344.7 73.1001 344.4 72.9001 344.4 72.3001C344.4 70.4001 345.7 67.5001 347.2 65.9001C347.6 65.5001 347.9 65.4001 348.1 65.7001C348.2 66.0001 348.1 66.4001 347.8 66.8001Z" fill="#14C6FF"/>
<g opacity="0.9">
<g opacity="0.9">
<path opacity="0.9" d="M338.6 88.6001C340.1 86.1001 341.7 83.6001 343.2 81.1001C343.9 79.9001 344.7 79.3001 345.6 79.1001C346.3 78.9001 347.1 78.8001 347.8 78.6001C348 78.5001 348.3 78.3001 348.5 78.0001C351 73.6001 353 69.0001 354.4 64.4001C354.5 64.2001 354.4 63.9001 354.3 63.8001C353.8 63.3001 353.3 62.9001 352.8 62.5001C352.2 62.0001 352.1 61.1001 352.4 59.9001C353.1 57.2001 353.9 54.6001 354.6 51.9001C355.1 50.2001 356.2 48.9001 357.5 48.6001C359.3 48.2001 360.9 48.2001 362.4 48.8001C363 49.0001 363.3 49.6001 363.3 50.5001C363 52.3001 362.9 54.1001 362.5 56.0001C360 69.4001 354.1 81.8001 344.7 93.0001C344 93.9001 343.2 94.3001 342.5 94.3001C340.9 94.2001 339.4 93.7001 338.3 92.7001C337.5 91.8001 337.5 90.4001 338.6 88.6001Z" fill="white"/>
<path opacity="0.9" d="M338.7 75.0001C338.9 72.3001 339.7 69.6001 341.1 66.8001C342.1 64.8001 343.4 62.9001 344.8 61.3001C345.2 60.9001 345.5 60.7001 345.7 61.1001C345.9 61.4001 345.7 61.9001 345.3 62.3001C345.2 62.4001 345 62.6001 344.9 62.7001C342 66.2001 340.3 70.0001 339.9 74.0001C339.9 74.3001 339.9 74.6001 339.8 74.9001C339.7 75.2001 339.4 75.7001 339.2 75.8001C339 75.9001 338.8 75.8001 338.6 75.8001C338.7 75.5001 338.7 75.3001 338.7 75.0001Z" fill="white"/>
<path opacity="0.9" d="M347.8 66.8001C346.5 68.3001 345.8 70.0001 345.6 71.8001C345.6 72.1001 345.4 72.4001 345.3 72.6001C344.7 73.1001 344.4 72.9001 344.4 72.3001C344.4 70.4001 345.7 67.5001 347.2 65.9001C347.6 65.5001 347.9 65.4001 348.1 65.7001C348.2 66.0001 348.1 66.4001 347.8 66.8001Z" fill="white"/>
</g>
</g>
<path d="M117.9 22.1L108.5 27.4V24.1C108.5 23.9 108.5 23.6 108.5 23.4C108.5 23.2 108.5 22.9 108.5 22.7V22.6C108.2 18.2 104.8 16.5 100.8 18.9C99.1 19.9 97.5 21.5 96.2 23.3C95.3 17.3 90.4 15.2 84.5 18.6C78 22.4 72.7 31.6 72.7 39.1V46.2C72.7 47.3 72.1 48.4 71.1 49L65.6 52.2C63.2 53.6 61.7 56.2 61.7 59.1C61.7 61.6 64.4 63.2 66.6 61.9L117.8 32.3C120.6 30.7 122.3 27.7 122.3 24.5C122.2 22.4 119.8 21 117.9 22.1Z" fill="#E6E6E6"/>
<path d="M46.4001 20.8L39.6001 24.7V22.3C39.6001 22.1 39.6001 22 39.6001 21.8C39.6001 21.6 39.6001 21.5 39.6001 21.3V21.2C39.4001 18 36.9001 16.8 34.0001 18.5C32.7001 19.2 31.6001 20.4 30.6001 21.7C29.9001 17.4 26.4001 15.8 22.1001 18.3C17.3001 21 13.5001 27.7 13.5001 33.2V38.4C13.5001 39.2 13.1001 40 12.3001 40.4L8.30011 42.8C6.50011 43.8 5.40009 45.7 5.40009 47.8C5.40009 49.6 7.40009 50.8 9.00009 49.9L46.3001 28.4C48.3001 27.2 49.6001 25.1 49.6001 22.8C49.6001 21 47.8001 20 46.4001 20.8Z" fill="#E6E6E6"/>
</g>
<defs>
<clipPath id="clip0">
<rect width="394.1" height="457.9" fill="white" transform="matrix(-1 0 0 1 394.1 0)"/>
</clipPath>
</defs>
</svg>
