<svg width="836" height="254" viewBox="0 0 836 254" fill="none" xmlns="http://www.w3.org/2000/svg">
<g clip-path="url(#clip0)">
<path d="M34.5526 158.22L13.1845 150.347C12.8697 150.231 12.5217 150.244 12.217 150.385C11.9124 150.526 11.676 150.781 11.56 151.096L3.68651 172.464C3.5705 172.779 3.58431 173.127 3.72491 173.432C3.8655 173.736 4.12137 173.973 4.43621 174.089L25.8042 181.962C26.1191 182.078 26.4671 182.065 26.7718 181.924C27.0764 181.783 27.3127 181.527 27.4287 181.213L35.3023 159.845C35.4183 159.53 35.4045 159.182 35.2639 158.877C35.1233 158.572 34.8674 158.336 34.5526 158.22V158.22ZM25.4919 179.151L6.49815 172.152L13.4968 153.158L32.4906 160.157L25.4919 179.151Z" fill="#0285E4"/>
</g>
<path d="M124.079 6.49436V0H117.388V2.31942H102.094V0H95.4025V6.49436H97.7922V21.3386H95.4025V27.833H102.094V25.5136H117.388V27.833H124.079V21.3386H121.689V6.49436H124.079ZM119.299 1.85553H122.167V4.63883H119.299V1.85553ZM97.3142 4.63883V1.85553H100.182V4.63883H97.3142ZM100.182 25.9775H97.3142V23.1942H100.182V25.9775ZM122.167 23.1942V25.9775H119.299V23.1942H122.167ZM119.777 19.4831V21.3386H117.388V23.658H102.094V21.3386H99.7039V6.49436H102.094V4.17495H117.388V6.49436H119.777V19.4831Z" fill="#F3CD03"/>
<path d="M108.766 9.18571L105.567 17.2902H107.353L107.969 15.7282H111.513L112.129 17.2902H113.915L110.716 9.18571H108.766ZM108.624 14.0675L109.741 11.2395L110.857 14.0675H108.624Z" fill="#F3CD03"/>
<g clip-path="url(#clip1)">
<path d="M735.305 74.0626L738.392 26.9079L777.038 54.1038L735.305 74.0626ZM772.618 53.7059L740.347 30.996L737.769 70.3725L772.618 53.7059Z" fill="#112D57"/>
</g>
<g clip-path="url(#clip2)">
<path d="M813.481 203.819L819.695 201.792L821.047 205.935L814.832 207.962L816.859 214.176L812.716 215.527L810.69 209.313L804.475 211.34L803.124 207.197L809.338 205.17L807.311 198.956L811.454 197.605L813.481 203.819ZM816.77 227.956L814.743 221.742L818.886 220.39L822.265 230.748L789.121 241.558L780.338 214.629L796.91 209.224L798.261 213.367L785.832 217.421L791.913 236.064L816.77 227.956Z" fill="#0285E4"/>
</g>
<circle cx="577.419" cy="172.48" r="23.2244" stroke="#F3CD03" stroke-width="5"/>
<defs>
<clipPath id="clip0">
<rect width="30.3633" height="30.3633" fill="white" transform="translate(10.498 146.66) rotate(20.2274)"/>
</clipPath>
<clipPath id="clip1">
<rect width="52.8686" height="54.3792" fill="white" transform="translate(712.789 32.0878) rotate(-25.5595)"/>
</clipPath>
<clipPath id="clip2">
<rect width="52.2923" height="52.2923" fill="white" transform="translate(770.07 204.227) rotate(-18.0648)"/>
</clipPath>
</defs>
</svg>
