<svg width="453" height="520" viewBox="0 0 453 520" fill="none" xmlns="http://www.w3.org/2000/svg">
<path d="M53.8008 75.0611V69H47.5561V71.1647H33.2824V69H27.0376V75.0611H29.2679V88.915H27.0376V94.9761H33.2824V92.8114H47.5561V94.9761H53.8008V88.915H51.5706V75.0611H53.8008ZM49.3403 70.7317H52.0166V73.3293H49.3403V70.7317ZM28.8218 73.3293V70.7317H31.4981V73.3293H28.8218ZM31.4981 93.2443H28.8218V90.6467H31.4981V93.2443ZM52.0166 90.6467V93.2443H49.3403V90.6467H52.0166ZM49.7863 87.1833V88.915H47.5561V91.0797H33.2824V88.915H31.0521V75.0611H33.2824V72.8964H47.5561V75.0611H49.7863V87.1833Z" fill="#FF8657"/>
<path d="M39.5101 77.573L36.5244 85.1368H38.1908L38.7662 83.679H42.0731L42.6485 85.1368H44.3149L41.3292 77.573H39.5101ZM39.3771 82.129L40.4193 79.4897L41.4614 82.129H39.3771Z" fill="#FF8657"/>
<path d="M217.942 391.413H207.704V488.353H217.942V391.413Z" fill="#9BA6C1"/>
<path d="M217.942 391.413H207.704V404.905H217.942V391.413Z" fill="#919191"/>
<path d="M256.648 488.353H171.744C168.497 488.353 166 491.101 166 494.099V497.098H262.641V494.099C262.641 490.851 259.894 488.353 256.648 488.353Z" fill="#9BA6C1"/>
<path d="M188.725 391.663H258.896C233.424 382.419 243.164 296.222 247.908 263.492C248.907 256.996 243.663 251 237.17 251H190.473C180.983 251 172.743 257.996 171.494 267.49C167.499 297.221 161.006 358.933 173.742 382.918C176.488 388.165 182.482 391.663 188.725 391.663Z" fill="#9BA6C1"/>
<g clip-path="url(#clip0)" filter="url(#filter0_d)">
<path d="M181.84 285.74C172.367 280.744 171.402 273.279 166.756 273.984C148.171 276.864 147.99 397.532 166.756 400.941C177.617 402.94 187.15 364.265 210.199 364.5C223.896 364.618 241.213 378.43 242.179 379.194C250.264 385.718 254.669 392.36 263.297 392.713C268.185 392.889 272.891 391.008 275.968 388.598C286.347 380.37 282.606 361.62 280.192 342.753C272.951 286.21 283.511 273.279 272.951 266.931C252.678 254.706 211.527 301.492 181.84 285.74Z" fill="white"/>
<path d="M221.06 315.128C257.817 315.128 287.614 288.944 287.614 256.645C287.614 224.346 257.817 198.163 221.06 198.163C184.304 198.163 154.507 224.346 154.507 256.645C154.507 288.944 184.304 315.128 221.06 315.128Z" fill="white"/>
<path d="M180.875 289.031C182.685 295.085 163.317 306.311 154.688 311.013C154.386 311.366 152.697 313.306 149.801 313.541C147.93 313.717 146.06 313.247 144.491 312.013L141.655 309.779C138.578 307.311 138.095 302.844 140.629 299.846C146.542 290.207 152.395 280.567 158.308 270.928C160.782 271.398 163.377 271.927 166.092 272.632C167.963 273.103 169.712 273.632 171.402 274.161L174.238 276.394C174.841 277.452 175.746 279.098 176.832 281.155C179.367 285.916 180.634 288.267 180.875 289.031Z" fill="white"/>
<path d="M289.544 305.018C273.374 302.255 262.573 294.967 260.884 289.854C259.616 285.974 259.918 282.213 259.918 282.213C260.099 279.979 260.642 278.157 261.125 276.923L263.176 274.043C264.685 273.102 266.254 272.103 267.883 271.163C271.262 269.164 274.58 267.342 277.778 265.755C285.14 274.043 292.561 282.33 299.923 290.559C303.181 292.792 303.965 297.201 301.672 300.375L299.621 303.255C297.328 306.487 292.803 307.251 289.544 305.018Z" fill="white"/>
<path d="M206.579 200.514C203.381 191.697 216.595 179.707 219.854 181.118C223.353 182.646 218.164 200.866 219.25 201.102C219.914 201.219 220.397 194.166 225.284 188.759C232.947 180.353 247.428 180.295 248.213 182.293C248.816 183.939 240.127 185.643 236.145 194.048C233.49 199.632 235.662 202.453 233.128 205.216C227.939 210.917 209.777 209.33 206.579 200.514Z" fill="white"/>
<path d="M274.158 258.114C274.581 265.932 270.478 275.689 262.392 278.392C255.695 280.626 249.299 277.04 244.291 274.278C239.464 271.574 230.413 266.578 229.508 258.114C228.482 248.299 238.74 236.367 251.833 236.367C264.564 236.367 273.615 247.593 274.158 258.114Z" stroke="#14C6FF" stroke-width="7" stroke-miterlimit="10"/>
<path d="M215.931 256.645C215.328 265.109 207.243 270.34 203.864 272.515C200.847 274.454 189.262 281.978 179.728 276.629C172.246 272.397 170.617 262.816 171.281 256.645C172.367 246.712 180.754 234.898 193.606 234.898C206.398 234.898 216.716 246.477 215.931 256.645Z" stroke="#14C6FF" stroke-width="7" stroke-miterlimit="10"/>
<path d="M248.213 266.931C251.212 266.931 253.643 263.115 253.643 258.408C253.643 253.701 251.212 249.886 248.213 249.886C245.214 249.886 242.782 253.701 242.782 258.408C242.782 263.115 245.214 266.931 248.213 266.931Z" fill="black"/>
<path d="M222.508 322.651C240.37 322.651 254.85 309.914 254.85 294.203C254.85 278.492 240.37 265.755 222.508 265.755C204.647 265.755 190.167 278.492 190.167 294.203C190.167 309.914 204.647 322.651 222.508 322.651Z" fill="white"/>
<path d="M220.758 292.205C225.59 292.205 229.507 289.836 229.507 286.915C229.507 283.993 225.59 281.625 220.758 281.625C215.926 281.625 212.009 283.993 212.009 286.915C212.009 289.836 215.926 292.205 220.758 292.205Z" fill="black"/>
<path d="M247.006 223.554C242.118 221.556 237.713 223.319 237.593 222.79C237.472 222.202 242.903 219.146 247.73 220.968C252.557 222.849 254.367 228.668 253.884 229.02C253.462 229.314 251.652 225.435 247.006 223.554Z" fill="black"/>
<path d="M198.735 221.615C193.606 222.908 191.132 226.846 190.71 226.493C190.288 226.082 192.701 220.498 197.709 219.146C202.717 217.794 207.786 221.438 207.605 221.967C207.424 222.437 203.622 220.439 198.735 221.615Z" fill="black"/>
<path d="M200.545 266.343C203.544 266.343 205.976 262.527 205.976 257.82C205.976 253.114 203.544 249.298 200.545 249.298C197.546 249.298 195.115 253.114 195.115 257.82C195.115 262.527 197.546 266.343 200.545 266.343Z" fill="black"/>
<path d="M201.39 255.175C202.523 255.175 203.441 254.254 203.441 253.118C203.441 251.982 202.523 251.061 201.39 251.061C200.257 251.061 199.338 251.982 199.338 253.118C199.338 254.254 200.257 255.175 201.39 255.175Z" fill="#FDFEFF"/>
<path d="M249.057 255.175C250.19 255.175 251.109 254.254 251.109 253.118C251.109 251.982 250.19 251.061 249.057 251.061C247.924 251.061 247.006 251.982 247.006 253.118C247.006 254.254 247.924 255.175 249.057 255.175Z" fill="#FDFEFF"/>
<path d="M226.491 322.181C230.413 323.474 231.076 325.12 236.145 328.646C241.877 332.643 248.213 336.993 252.436 335.7C260.22 333.29 263.72 310.778 256.057 305.724C249.118 301.139 240.127 315.48 220.457 315.716C201.028 315.892 192.279 302.079 184.254 306.899C176.108 311.836 176.108 331.585 183.65 335.7C188.96 338.58 198.735 334.171 204.165 329.822C208.027 326.707 208.449 324.591 212.613 322.769C219.19 319.889 225.706 321.946 226.491 322.181Z" fill="#FF1976"/>
<path d="M238.559 292.205C238.076 291.852 235.783 296.554 231.077 298.024C230.292 298.259 226.431 299.493 223.896 297.26C222.991 296.437 222.388 295.32 222.147 294.027C222.388 292.91 222.388 291.793 222.267 290.794C222.388 290.324 222.509 289.913 222.69 289.442C222.448 289.325 222.207 289.148 221.966 289.031C221.785 288.208 221.543 287.62 221.483 287.503C221.121 287.738 220.759 287.914 220.336 288.149C219.974 287.914 219.612 287.738 219.19 287.503C219.13 287.62 218.949 288.208 218.707 289.031C218.466 289.148 218.225 289.325 217.983 289.442C218.164 289.913 218.285 290.324 218.406 290.794C218.285 291.793 218.285 292.91 218.526 294.027C218.285 295.32 217.682 296.437 216.776 297.26C214.242 299.493 210.32 298.259 209.596 298.024C204.89 296.554 202.597 291.852 202.114 292.205C201.812 292.381 202.597 294.027 203.321 295.144C204.648 297.201 206.398 298.318 207.183 298.788C208.088 299.317 212.613 301.727 217.199 299.846C217.802 299.611 219.13 299.023 220.276 297.73C221.423 299.023 222.75 299.611 223.353 299.846C227.939 301.785 232.464 299.317 233.37 298.788C234.214 298.318 235.904 297.201 237.231 295.144C238.076 294.027 238.86 292.381 238.559 292.205Z" fill="black"/>
<path d="M230.715 265.168C229.87 264.522 226.853 262.229 222.267 262.229C221.181 262.229 217.319 262.347 213.82 265.168C214.001 263.228 214.242 261.23 214.423 259.29C215.509 258.585 218.345 256.998 222.267 256.939C225.767 256.881 228.361 258.056 229.508 258.703C229.93 260.877 230.292 262.993 230.715 265.168Z" fill="#14C6FF"/>
<path d="M170.633 261.441L153.025 265.532L154.425 271.249L172.033 267.159L170.633 261.441Z" fill="#14C6FF"/>
<path d="M290.339 268.444L273.389 262.255L271.271 267.758L288.222 273.948L290.339 268.444Z" fill="#14C6FF"/>
<path d="M220.457 328.646C225.456 328.646 229.508 324.699 229.508 319.83C229.508 314.96 225.456 311.013 220.457 311.013C215.458 311.013 211.406 314.96 211.406 319.83C211.406 324.699 215.458 328.646 220.457 328.646Z" fill="#FF1976"/>
</g>
<path opacity="0.43" d="M229.5 520C352.383 520 452 512.837 452 504C452 495.163 352.383 488 229.5 488C106.617 488 7 495.163 7 504C7 512.837 106.617 520 229.5 520Z" fill="#DFE6F1"/>
<path d="M349.533 184.003C366.912 180.117 377.851 162.871 373.967 145.483C370.084 128.096 352.846 117.15 335.467 121.036C318.088 124.922 307.149 142.168 311.033 159.556C314.917 176.943 332.154 187.889 349.533 184.003Z" fill="#FF1976"/>
<path d="M342.495 178.875C357.049 178.875 368.847 167.071 368.847 152.51C368.847 137.949 357.049 126.144 342.495 126.144C327.941 126.144 316.143 137.949 316.143 152.51C316.143 167.071 327.941 178.875 342.495 178.875Z" fill="white"/>
<path d="M335.13 161.517C334.639 161.517 334.312 161.353 333.984 161.025C333.329 160.37 333.329 159.388 333.984 158.733L340.859 151.855V133.841C340.859 132.859 341.513 132.204 342.495 132.204C343.478 132.204 344.132 132.859 344.132 133.841V152.51C344.132 153.001 343.969 153.329 343.641 153.656L336.276 161.025C335.948 161.353 335.457 161.517 335.13 161.517Z" fill="#FF1976"/>
<path d="M345.933 152.018C345.933 149.89 344.296 148.252 342.168 148.252C340.041 148.252 338.404 149.89 338.404 152.018C338.404 154.147 340.041 155.785 342.168 155.785C344.296 155.785 345.933 154.147 345.933 152.018Z" fill="#1E2D56"/>
<path d="M56.5043 98H140.41C144.655 98 148.151 101.498 148.151 105.745V143.472C148.151 147.719 144.655 151.217 140.41 151.217H134.667V160.461C134.667 161.711 133.168 162.46 132.169 161.461L120.932 151.217H56.754C52.5088 151.217 49.0127 147.719 49.0127 143.472V105.745C48.763 101.498 52.2591 98 56.5043 98Z" fill="#14C6FF"/>
<path d="M118.685 128.731C116.754 128.731 115.189 127.165 115.189 125.233C115.189 123.301 116.754 121.735 118.685 121.735C120.615 121.735 122.181 123.301 122.181 125.233C122.181 127.165 120.615 128.731 118.685 128.731Z" fill="white"/>
<path d="M97.7085 128.731C95.7777 128.731 94.2124 127.165 94.2124 125.233C94.2124 123.301 95.7777 121.735 97.7085 121.735C99.6394 121.735 101.205 123.301 101.205 125.233C101.205 127.165 99.6394 128.731 97.7085 128.731Z" fill="white"/>
<path d="M77.9805 128.731C76.0496 128.731 74.4844 127.165 74.4844 125.233C74.4844 123.301 76.0496 121.735 77.9805 121.735C79.9113 121.735 81.4766 123.301 81.4766 125.233C81.4766 127.165 79.9113 128.731 77.9805 128.731Z" fill="white"/>
<path d="M136.152 305.162C136.152 295.918 129.659 286.674 121.668 286.674C113.677 286.674 107.184 295.918 107.184 305.162C107.184 314.406 113.677 321.902 121.668 321.902C129.659 321.902 136.152 314.406 136.152 305.162Z" fill="#FFCF00"/>
<path opacity="0.25" d="M121.668 286.674C120.419 286.674 119.17 286.923 117.922 287.423C124.165 289.672 128.66 297.417 128.66 305.162C128.66 312.907 124.165 319.403 117.922 321.402C119.17 321.652 120.419 321.902 121.668 321.902C129.659 321.902 136.151 314.406 136.151 305.162C136.151 295.918 129.659 286.674 121.668 286.674Z" fill="#308DC2"/>
<path d="M104.937 316.155L107.434 339.891C107.684 342.889 110.181 345.137 113.178 345.137H128.161C131.158 345.137 133.655 342.889 133.904 339.891L136.402 316.155C136.651 314.906 135.652 313.657 134.154 313.657H107.184C105.936 313.657 104.937 314.656 104.937 316.155Z" fill="#CEE5ED"/>
<path d="M107.184 317.155H134.903C135.653 317.155 136.402 317.655 136.901 318.404L137.151 316.155C137.401 314.906 136.402 313.657 134.903 313.657H107.184C105.936 313.657 104.937 314.906 104.937 316.155L105.187 318.404C105.686 317.655 106.186 317.155 107.184 317.155Z" fill="#AAC6CE"/>
<path d="M134.654 313.657H125.165C126.413 313.657 127.412 314.906 127.412 316.155L124.915 339.891C124.665 342.889 122.168 345.137 119.171 345.137H128.661C131.657 345.137 134.155 342.889 134.404 339.891L136.901 316.155C137.151 314.656 136.152 313.657 134.654 313.657Z" fill="#AAC6CE"/>
<path d="M355.406 283.676H284.486C280.99 283.676 277.993 286.174 277.244 289.672L267.754 336.143H353.908L362.648 292.67C363.647 287.923 360.151 283.676 355.406 283.676Z" fill="#9BA6C1"/>
<path d="M353.408 336.143H236.04C234.042 336.143 232.544 337.642 232.544 339.641V340.89C232.544 342.889 234.042 344.388 236.04 344.388H353.408C355.406 344.388 356.904 342.889 356.904 340.89V339.641C357.154 337.642 355.406 336.143 353.408 336.143Z" fill="#9BA6C1"/>
<path d="M353.409 336.143H266.756C268.754 336.143 270.252 337.642 270.252 339.641V340.89C270.252 342.889 268.754 344.388 266.756 344.388H353.409C355.406 344.388 356.905 342.889 356.905 340.89V339.641C357.154 337.642 355.406 336.143 353.409 336.143Z" fill="#DFE6F1"/>
<path d="M36.8928 453.92C36.8928 453.92 13.4192 442.428 19.9119 424.689C26.1549 407.199 30.1504 406.45 18.1638 396.456C5.92758 386.462 -11.5528 361.728 10.6723 359.729C32.8973 357.98 31.8984 387.462 50.3777 391.459C68.8569 395.707 78.8457 473.159 36.8928 453.92Z" fill="#14C6FF"/>
<path opacity="0.25" d="M55.3716 455.669C50.8766 457.668 44.8833 457.668 36.8923 453.92C36.8923 453.92 13.4187 442.427 19.9114 424.688C26.1544 407.199 30.1499 406.449 18.1634 396.456C5.92709 386.462 -11.5533 361.727 10.6718 359.728C12.9192 359.478 14.917 359.728 16.6651 359.978C10.4221 362.477 4.17907 367.723 12.1701 377.217C25.655 393.208 32.8968 398.704 31.1488 409.198C29.6505 419.191 30.3996 442.177 55.3716 455.669Z" fill="#308DC2"/>
<path d="M76.5979 453.42C76.5979 453.42 97.075 452.67 96.0761 437.929C95.0772 423.189 94.328 422.439 107.313 417.942C130.038 409.697 112.058 365.724 93.5789 393.457C80.5935 412.695 75.0996 408.198 66.6092 409.697C58.1187 411.196 39.8892 459.916 76.5979 453.42Z" fill="#14C6FF"/>
<path opacity="0.29" d="M66.6093 409.697C75.0998 408.198 80.5936 412.445 93.579 393.457C103.318 378.966 112.807 384.213 116.553 393.457C111.059 391.708 102.819 390.709 101.82 399.703C100.571 411.196 73.3518 430.184 73.8512 453.919C73.6015 453.919 73.1021 453.919 72.8523 453.919C68.8568 443.426 63.6127 429.934 59.3675 418.441C61.6149 413.445 64.3619 409.947 66.6093 409.697Z" fill="#308DC2"/>
<path d="M71.8532 452.671C71.8532 452.671 97.3246 427.687 88.5845 423.439C79.8443 419.192 62.8634 432.933 72.3527 418.193C81.842 403.202 93.0794 380.216 79.8443 383.714C66.6092 387.212 65.6103 391.459 67.3583 373.97C69.3561 351.484 56.8701 339.991 45.1333 347.237C33.3965 354.482 55.1221 403.951 47.131 398.705C38.8903 393.458 32.1479 388.961 30.6496 395.457C28.9015 401.953 53.8735 427.187 44.6338 422.94C33.1468 417.693 31.3987 427.187 35.1445 432.933C38.6406 438.93 53.8734 474.158 71.8532 452.671Z" fill="#308DC2"/>
<path opacity="0.48" d="M35.1441 432.933C31.3984 426.936 33.1464 417.442 44.6335 422.939C53.8731 427.186 28.9012 401.952 30.6492 395.456C32.3972 388.96 39.1397 393.457 47.1307 398.704C55.3714 403.951 33.3961 354.481 45.1329 347.236C50.6267 343.738 56.1206 344.488 60.3658 348.485C54.3726 349.984 49.3782 354.981 52.8742 368.223C60.1161 396.455 64.3613 419.691 51.3759 412.945C39.1397 406.449 65.6099 436.181 66.1094 457.917C50.6268 466.662 38.3905 438.18 35.1441 432.933Z" fill="#1E394C"/>
<path d="M89.5834 455.669L84.589 500.391C84.0895 505.888 79.3449 510.135 73.6013 510.135H45.1333C39.3898 510.135 34.8948 505.888 34.1457 500.391L29.1513 455.669C28.9016 453.17 30.8993 451.171 33.1468 451.171H85.3382C87.8353 451.171 89.8331 453.17 89.5834 455.669Z" fill="#CEE5ED"/>
<path d="M33.3962 451.171H51.6258C49.1286 451.171 47.3805 453.42 47.6302 455.669L52.6246 500.391C53.1241 505.888 57.8688 510.135 63.6123 510.135H45.3828C39.6392 510.135 35.1443 505.888 34.3951 500.391L29.4007 455.669C28.9013 453.17 30.899 451.171 33.3962 451.171Z" fill="#AAC6CE"/>
<path d="M404.35 344.638H98.4442C94.9481 344.638 92.2012 347.386 92.2012 350.884V352.883C92.2012 356.381 94.9481 359.129 98.4442 359.129H404.6C408.096 359.129 410.843 356.381 410.843 352.883V350.884C410.593 347.386 407.847 344.638 404.35 344.638Z" fill="#E685AC"/>
<path d="M404.35 344.638H98.4442C94.9481 344.638 92.2012 347.386 92.2012 350.884V352.883C92.2012 353.633 92.4509 354.132 92.4509 354.882C93.2001 352.383 95.6972 350.634 98.4442 350.634H404.6C407.347 350.634 409.595 352.383 410.593 354.882C410.843 354.382 410.843 353.633 410.843 352.883V350.884C410.593 347.386 407.846 344.638 404.35 344.638Z" fill="#FFCFE3"/>
<path d="M195.086 503.29H184.847L113.677 359.129H123.916L195.086 503.29Z" fill="#E685AC"/>
<path d="M82.4624 503.29H92.7009L163.871 359.129H153.632L82.4624 503.29Z" fill="#E685AC"/>
<path d="M415.339 503.29H405.1L333.93 359.129H344.169L415.339 503.29Z" fill="#E685AC"/>
<path d="M302.715 503.29H312.954L384.124 359.129H373.885L302.715 503.29Z" fill="#E685AC"/>
<path d="M126.663 364.876L123.916 359.129H113.677L116.424 364.876H126.663Z" fill="#1A3651"/>
<path d="M161.124 364.876L163.871 359.129H153.632L150.885 364.876H161.124Z" fill="#1A3651"/>
<path d="M347.165 364.876L344.169 359.129H333.93L336.927 364.876H347.165Z" fill="#1A3651"/>
<path d="M381.377 364.876L384.124 359.129H373.885L371.138 364.876H381.377Z" fill="#1A3651"/>
<path d="M324.911 34.2712L326.544 9.32637L346.988 23.713L324.911 34.2712ZM344.65 23.5025L327.578 11.489L326.215 32.3191L344.65 23.5025Z" fill="#C33AFC"/>
<g clip-path="url(#clip1)">
<path d="M439.86 147.052L443.419 145.891L444.193 148.264L440.634 149.425L441.795 152.983L439.422 153.757L438.262 150.198L434.703 151.359L433.929 148.987L437.488 147.826L436.327 144.267L438.7 143.493L439.86 147.052ZM441.744 160.875L440.583 157.316L442.956 156.542L444.89 162.473L425.91 168.664L420.88 153.243L430.37 150.147L431.144 152.52L424.027 154.841L427.509 165.518L441.744 160.875Z" fill="#1E2D56"/>
</g>
<circle cx="237" cy="98" r="15.5" stroke="#FFCF00" stroke-width="5"/>
<g clip-path="url(#clip2)">
<path d="M44.2476 201.789L24.3052 194.44C24.0113 194.332 23.6865 194.345 23.4022 194.476C23.1179 194.608 22.8973 194.846 22.789 195.14L15.4408 215.083C15.3325 215.376 15.3454 215.701 15.4766 215.986C15.6079 216.27 15.8467 216.49 16.1405 216.599L36.0829 223.947C36.3768 224.055 36.7016 224.042 36.9859 223.911C37.2702 223.78 37.4908 223.541 37.5991 223.247L44.9473 203.305C45.0555 203.011 45.0427 202.686 44.9114 202.402C44.7802 202.118 44.5414 201.897 44.2476 201.789V201.789ZM35.7915 221.323L18.0649 214.791L24.5966 197.065L42.3232 203.596L35.7915 221.323Z" fill="#14C6FF"/>
</g>
<defs>
<filter id="filter0_d" x="118" y="164" width="206" height="262" filterUnits="userSpaceOnUse" color-interpolation-filters="sRGB">
<feFlood flood-opacity="0" result="BackgroundImageFix"/>
<feColorMatrix in="SourceAlpha" type="matrix" values="0 0 0 0 0 0 0 0 0 0 0 0 0 0 0 0 0 0 127 0"/>
<feOffset dy="4"/>
<feGaussianBlur stdDeviation="10.5"/>
<feColorMatrix type="matrix" values="0 0 0 0 0.117647 0 0 0 0 0.176471 0 0 0 0 0.337255 0 0 0 0.14 0"/>
<feBlend mode="normal" in2="BackgroundImageFix" result="effect1_dropShadow"/>
<feBlend mode="normal" in="SourceGraphic" in2="effect1_dropShadow" result="shape"/>
</filter>
<clipPath id="clip0">
<rect width="164" height="220" fill="white" transform="translate(139 181)"/>
</clipPath>
<clipPath id="clip1">
<rect width="29.946" height="29.946" fill="white" transform="translate(415 147.286) rotate(-18.0648)"/>
</clipPath>
<clipPath id="clip2">
<rect width="28.3375" height="28.3375" fill="white" transform="translate(21.7979 191) rotate(20.2274)"/>
</clipPath>
</defs>
</svg>
