<svg width="24" height="24" viewBox="0 0 24 24" fill="none" xmlns="http://www.w3.org/2000/svg">
<g id="Stockholm-icons / Shopping / Box#2">
<path id="Combined Shape" fill-rule="evenodd" clip-rule="evenodd" d="M4 9.67494L10.8803 13.6473C10.9543 13.69 11.032 13.7209 11.1111 13.7405V21.4447L4.4907 17.5267C4.18655 17.3467 4 17.0195 4 16.6661V9.67494ZM20 9.56934V16.6661C20 17.0195 19.8134 17.3467 19.5093 17.5267L12.8889 21.4447V13.673C12.905 13.665 12.921 13.6564 12.9368 13.6473L20 9.56934V9.56934Z" fill="#9BA6C1"/>
<path id="Path" opacity="0.3" fill-rule="evenodd" clip-rule="evenodd" d="M4.21631 7.74659C4.30035 7.64046 4.40642 7.55077 4.53009 7.4849L11.5301 3.75655C11.8239 3.60003 12.1764 3.60003 12.4703 3.75655L19.4703 7.4849C19.5656 7.53567 19.6505 7.60061 19.7229 7.67631L12.0481 12.1073C11.9977 12.1365 11.9511 12.1698 11.9087 12.2066C11.8663 12.1698 11.8198 12.1365 11.7693 12.1073L4.21631 7.74659Z" fill="#9BA6C1"/>
</g>
</svg>
