<svg width="24" height="24" viewBox="0 0 24 24" fill="none" xmlns="http://www.w3.org/2000/svg">
<g id="Stockholm-icons / Communication / Mail-notification">
<path id="Combined Shape" fill-rule="evenodd" clip-rule="evenodd" d="M3 8C3 6.89543 3.89543 6 5 6H19C20.1046 6 21 6.89543 21 8V12.083C20.6748 12.0284 20.3407 12 20 12C16.6863 12 14 14.6863 14 18C14 18.3407 14.0284 18.6748 14.083 19H5C3.89543 19 3 18.1046 3 17V8ZM18.1444 7.83965C18.5091 7.64327 18.964 7.77972 19.1604 8.14443C19.3567 8.50913 19.2203 8.96397 18.8556 9.16035L12.3556 12.6604C12.1336 12.7799 11.8664 12.7799 11.6444 12.6604L5.14443 9.16035C4.77972 8.96397 4.64327 8.50913 4.83965 8.14443C5.03603 7.77972 5.49087 7.64327 5.85557 7.83965L12 11.1482L18.1444 7.83965Z" fill="#DFE6F1"/>
<path id="Combined Shape_2" fill-rule="evenodd" clip-rule="evenodd" d="M3 8C3 6.89543 3.89543 6 5 6H19C20.1046 6 21 6.89543 21 8V12.083C20.6748 12.0284 20.3407 12 20 12C16.6863 12 14 14.6863 14 18C14 18.3407 14.0284 18.6748 14.083 19H5C3.89543 19 3 18.1046 3 17V8ZM18.1444 7.83965C18.5091 7.64327 18.964 7.77972 19.1604 8.14443C19.3567 8.50913 19.2203 8.96397 18.8556 9.16035L12.3556 12.6604C12.1336 12.7799 11.8664 12.7799 11.6444 12.6604L5.14443 9.16035C4.77972 8.96397 4.64327 8.50913 4.83965 8.14443C5.03603 7.77972 5.49087 7.64327 5.85557 7.83965L12 11.1482L18.1444 7.83965Z" fill="#DFE6F1"/>
<path id="Oval" fill-rule="evenodd" clip-rule="evenodd" d="M19.5 20C20.8807 20 22 18.8807 22 17.5C22 16.1193 20.8807 15 19.5 15C18.1193 15 17 16.1193 17 17.5C17 18.8807 18.1193 20 19.5 20Z" fill="#9BA6C1"/>
</g>
</svg>
