<svg width="17" height="17" viewBox="0 0 17 17" fill="none" xmlns="http://www.w3.org/2000/svg">
<path d="M16.502 16.0039H0.498047C0.22276 16.0039 0 16.2267 0 16.502C0 16.7772 0.22276 17 0.498047 17H16.502C16.7772 17 17 16.7772 17 16.502C17 16.2267 16.7772 16.0039 16.502 16.0039Z" fill="#DFE6F1"/>
<path d="M4.51562 8.00195H1.49414C1.21885 8.00195 0.996094 8.22471 0.996094 8.5V10.9902H5.01367V8.5C5.01367 8.22471 4.79091 8.00195 4.51562 8.00195Z" fill="#DFE6F1"/>
<path d="M5.01367 11.9863H0.996094V15.0078H5.01367V11.9863Z" fill="#DFE6F1"/>
<path d="M9.99414 4.01758H7.00586C6.73057 4.01758 6.50781 4.24034 6.50781 4.51562V10.9902H10.4922V4.51562C10.4922 4.24034 10.2694 4.01758 9.99414 4.01758Z" fill="#DFE6F1"/>
<path d="M10.4922 11.9863H6.50781V15.0078H10.4922V11.9863Z" fill="#DFE6F1"/>
<path d="M15.5059 0H12.4844C12.2091 0 11.9863 0.22276 11.9863 0.498047V5.01367H16.0039V0.498047C16.0039 0.22276 15.7811 0 15.5059 0Z" fill="#DFE6F1"/>
<path d="M16.0039 6.00977H11.9863V15.0078H16.0039V6.00977Z" fill="#DFE6F1"/>
<rect y="16" width="17" height="1" rx="0.5" fill="#9BA6C1"/>
</svg>
