<svg width="190" height="90" viewBox="0 0 190 90" fill="none" xmlns="http://www.w3.org/2000/svg">
<g clip-path="url(#clip0)" filter="url(#filter0_d)">
<path d="M30.119 39.8522C28.1026 38.7622 27.8971 37.1336 26.9081 37.2875C22.9523 37.9158 22.9137 64.2434 26.9081 64.9872C29.22 65.4232 31.2493 56.985 36.1556 57.0363C39.0711 57.062 42.7572 60.0756 42.9627 60.2423C44.6838 61.6658 45.6213 63.1149 47.458 63.1918C48.4983 63.2303 49.5001 62.8199 50.1552 62.2941C52.3643 60.4988 51.568 56.4079 51.0542 52.2915C49.513 39.9548 51.7606 37.1336 49.513 35.7486C45.1975 33.0812 36.4381 43.2891 30.119 39.8522Z" fill="white"/>
<path d="M38.4673 46.2643C46.2913 46.2643 52.6339 40.5515 52.6339 33.5044C52.6339 26.4574 46.2913 20.7446 38.4673 20.7446C30.6434 20.7446 24.3008 26.4574 24.3008 33.5044C24.3008 40.5515 30.6434 46.2643 38.4673 46.2643Z" fill="white"/>
<path d="M29.9135 40.5704C30.2989 41.8912 26.176 44.3406 24.3394 45.3665C24.2752 45.4435 23.9155 45.8667 23.2991 45.918C22.9009 45.9564 22.5027 45.8538 22.1688 45.5845L21.5652 45.0972C20.9101 44.5586 20.8074 43.584 21.3468 42.93C22.6055 40.8269 23.8513 38.7237 25.11 36.6206C25.6366 36.7232 26.1889 36.8386 26.7668 36.9925C27.165 37.0951 27.5375 37.2105 27.8971 37.3259L28.5007 37.8132C28.6292 38.0441 28.8218 38.4031 29.053 38.852C29.5925 39.8907 29.8622 40.4037 29.9135 40.5704Z" fill="white"/>
<path d="M53.0449 44.0586C49.6028 43.4559 47.3037 41.8657 46.9441 40.75C46.6744 39.9036 46.7386 39.0829 46.7386 39.0829C46.7771 38.5956 46.8927 38.198 46.9955 37.9287L47.4322 37.3004C47.7533 37.0952 48.0872 36.8772 48.434 36.672C49.1532 36.236 49.8596 35.8384 50.5403 35.4922C52.1073 37.3004 53.687 39.1085 55.254 40.9039C55.9475 41.3912 56.1145 42.353 55.6264 43.0455L55.1898 43.6739C54.7017 44.3792 53.7384 44.5459 53.0449 44.0586Z" fill="white"/>
<path d="M35.3849 21.2575C34.7042 19.3339 37.517 16.7178 38.2105 17.0256C38.9555 17.359 37.8509 21.3344 38.0821 21.3857C38.2234 21.4114 38.3261 19.8725 39.3665 18.6927C40.9976 16.8589 44.0801 16.8461 44.2471 17.2821C44.3755 17.6411 42.526 18.013 41.6783 19.8469C41.1132 21.0651 41.5756 21.6807 41.0361 22.2834C39.9316 23.5273 36.0657 23.1811 35.3849 21.2575Z" fill="white"/>
<path d="M49.7699 33.8249C49.8598 35.5305 48.9864 37.6593 47.2654 38.2492C45.8397 38.7365 44.4783 37.9542 43.4122 37.3515C42.3848 36.7616 40.4582 35.6716 40.2655 33.8249C40.0472 31.6833 42.2306 29.0801 45.0177 29.0801C47.7277 29.0801 49.6543 31.5294 49.7699 33.8249Z" stroke="#14C6FF" stroke-width="2" stroke-miterlimit="10"/>
<path d="M37.3755 33.5044C37.2471 35.351 35.5261 36.4924 34.8068 36.9668C34.1646 37.39 31.6986 39.0315 29.6693 37.8645C28.0767 36.9412 27.7299 34.8509 27.8712 33.5044C28.1024 31.3371 29.8877 28.7595 32.6234 28.7595C35.3462 28.7595 37.5425 31.2858 37.3755 33.5044Z" stroke="#14C6FF" stroke-width="2" stroke-miterlimit="10"/>
<path d="M44.247 35.7485C44.8854 35.7485 45.4029 34.916 45.4029 33.889C45.4029 32.8621 44.8854 32.0295 44.247 32.0295C43.6086 32.0295 43.0911 32.8621 43.0911 33.889C43.0911 34.916 43.6086 35.7485 44.247 35.7485Z" fill="black"/>
<path d="M38.7758 47.9058C42.5778 47.9058 45.66 45.1269 45.66 41.699C45.66 38.2711 42.5778 35.4922 38.7758 35.4922C34.9738 35.4922 31.8916 38.2711 31.8916 41.699C31.8916 45.1269 34.9738 47.9058 38.7758 47.9058Z" fill="white"/>
<path d="M38.4031 41.2629C39.4316 41.2629 40.2654 40.7462 40.2654 40.1087C40.2654 39.4713 39.4316 38.9546 38.4031 38.9546C37.3746 38.9546 36.5408 39.4713 36.5408 40.1087C36.5408 40.7462 37.3746 41.2629 38.4031 41.2629Z" fill="black"/>
<path d="M43.9901 26.2844C42.9498 25.8484 42.0122 26.2331 41.9865 26.1177C41.9608 25.9895 43.1167 25.3226 44.1442 25.7202C45.1717 26.1305 45.557 27.4001 45.4543 27.477C45.3644 27.5412 44.9791 26.6948 43.9901 26.2844Z" fill="black"/>
<path d="M33.7151 25.8614C32.6234 26.1435 32.0968 27.0027 32.0069 26.9257C31.917 26.836 32.4307 25.6177 33.4968 25.3227C34.5628 25.0278 35.6416 25.8229 35.6031 25.9383C35.5646 26.0409 34.7554 25.6049 33.7151 25.8614Z" fill="black"/>
<path d="M34.1005 35.6203C34.7389 35.6203 35.2564 34.7878 35.2564 33.7608C35.2564 32.7339 34.7389 31.9014 34.1005 31.9014C33.4621 31.9014 32.9446 32.7339 32.9446 33.7608C32.9446 34.7878 33.4621 35.6203 34.1005 35.6203Z" fill="black"/>
<path d="M34.2804 33.1838C34.5216 33.1838 34.7171 32.9829 34.7171 32.735C34.7171 32.4871 34.5216 32.2861 34.2804 32.2861C34.0393 32.2861 33.8438 32.4871 33.8438 32.735C33.8438 32.9829 34.0393 33.1838 34.2804 33.1838Z" fill="#FDFEFF"/>
<path d="M44.4269 33.1838C44.6681 33.1838 44.8636 32.9829 44.8636 32.735C44.8636 32.4871 44.6681 32.2861 44.4269 32.2861C44.1857 32.2861 43.9902 32.4871 43.9902 32.735C43.9902 32.9829 44.1857 33.1838 44.4269 33.1838Z" fill="#FDFEFF"/>
<path d="M39.6232 47.8032C40.458 48.0853 40.5993 48.4444 41.6782 49.2138C42.8983 50.0859 44.2469 51.0348 45.146 50.7527C46.8028 50.2269 47.5477 45.3154 45.9166 44.2125C44.4396 43.2123 42.5259 46.3413 38.3388 46.3926C34.2032 46.4311 32.3408 43.4174 30.6326 44.469C28.8987 45.5462 28.8987 49.855 30.5042 50.7527C31.6344 51.3811 33.7151 50.4193 34.871 49.4703C35.693 48.7907 35.7829 48.329 36.6691 47.9315C38.0691 47.3031 39.4562 47.7519 39.6232 47.8032Z" fill="#FF1976"/>
<path d="M42.1921 41.263C42.0894 41.186 41.6013 42.2119 40.5995 42.5325C40.4325 42.5838 39.6105 42.8531 39.0711 42.3658C38.8784 42.1863 38.75 41.9426 38.6986 41.6605C38.75 41.4169 38.75 41.1732 38.7243 40.9552C38.75 40.8526 38.7757 40.7628 38.8142 40.6603C38.7628 40.6346 38.7115 40.5961 38.6601 40.5705C38.6216 40.3909 38.5702 40.2627 38.5573 40.2371C38.4803 40.2884 38.4032 40.3268 38.3133 40.3781C38.2363 40.3268 38.1592 40.2884 38.0693 40.2371C38.0564 40.2627 38.0179 40.3909 37.9665 40.5705C37.9152 40.5961 37.8638 40.6346 37.8124 40.6603C37.8509 40.7628 37.8766 40.8526 37.9023 40.9552C37.8766 41.1732 37.8766 41.4169 37.928 41.6605C37.8766 41.9426 37.7482 42.1863 37.5555 42.3658C37.0161 42.8531 36.1813 42.5838 36.0271 42.5325C35.0253 42.2119 34.5373 41.186 34.4345 41.263C34.3703 41.3014 34.5373 41.6605 34.6914 41.9042C34.974 42.353 35.3464 42.5967 35.5134 42.6993C35.7061 42.8147 36.6693 43.3404 37.6454 42.9301C37.7739 42.8788 38.0564 42.7506 38.3005 42.4684C38.5445 42.7506 38.8271 42.8788 38.9555 42.9301C39.9316 43.3533 40.8949 42.8147 41.0875 42.6993C41.2674 42.5967 41.627 42.353 41.9095 41.9042C42.0894 41.6605 42.2563 41.3014 42.1921 41.263Z" fill="black"/>
<path d="M40.5225 35.3639C40.3427 35.2229 39.7005 34.7227 38.7244 34.7227C38.4932 34.7227 37.6712 34.7484 36.9263 35.3639C36.9648 34.9407 37.0162 34.5047 37.0547 34.0815C37.2859 33.9276 37.8895 33.5814 38.7244 33.5686C39.4693 33.5558 40.0216 33.8122 40.2656 33.9533C40.3555 34.4278 40.4326 34.8894 40.5225 35.3639Z" fill="#14C6FF"/>
<path d="M27.7333 34.5508L23.9854 35.4434L24.2833 36.6907L28.0312 35.7982L27.7333 34.5508Z" fill="#14C6FF"/>
<path d="M53.2143 36.0786L49.6062 34.7283L49.1554 35.9291L52.7634 37.2795L53.2143 36.0786Z" fill="#14C6FF"/>
<path d="M38.3389 49.2136C39.4029 49.2136 40.2655 48.3524 40.2655 47.29C40.2655 46.2277 39.4029 45.3665 38.3389 45.3665C37.2749 45.3665 36.4124 46.2277 36.4124 47.29C36.4124 48.3524 37.2749 49.2136 38.3389 49.2136Z" fill="#FF1976"/>
</g>
<path d="M65.4782 56.89C65.4782 57.06 65.4482 57.225 65.3882 57.385C65.3282 57.535 65.2282 57.655 65.0882 57.745C64.9782 57.855 64.8482 57.925 64.6982 57.955C64.5482 57.985 64.4182 58 64.3082 58H61.3532C61.1432 58 60.9732 57.975 60.8432 57.925C60.7132 57.865 60.6082 57.785 60.5282 57.685C60.4482 57.585 60.3782 57.465 60.3182 57.325C60.2682 57.175 60.2132 57.015 60.1532 56.845L59.9582 56.17C59.6882 56.44 59.3782 56.705 59.0282 56.965C58.6882 57.225 58.3082 57.46 57.8882 57.67C57.4782 57.87 57.0332 58.03 56.5532 58.15C56.0832 58.28 55.5932 58.345 55.0832 58.345C54.1732 58.345 53.2982 58.23 52.4582 58C51.6282 57.77 50.8482 57.445 50.1182 57.025C49.3982 56.595 48.7432 56.085 48.1532 55.495C47.5632 54.895 47.0532 54.23 46.6232 53.5C46.2032 52.77 45.8782 51.985 45.6482 51.145C45.4182 50.295 45.3032 49.41 45.3032 48.49C45.3032 47.1 45.5582 45.81 46.0682 44.62C46.5782 43.42 47.2732 42.38 48.1532 41.5C49.0332 40.61 50.0682 39.915 51.2582 39.415C52.4482 38.905 53.7232 38.65 55.0832 38.65C55.7032 38.65 56.2782 38.72 56.8082 38.86C57.3482 39 57.8382 39.19 58.2782 39.43C58.7282 39.67 59.1332 39.96 59.4932 40.3C59.8532 40.63 60.1682 40.99 60.4382 41.38L60.8732 40.015C60.9732 39.765 61.0532 39.565 61.1132 39.415C61.1832 39.255 61.2532 39.14 61.3232 39.07C61.4032 38.99 61.4982 38.94 61.6082 38.92C61.7182 38.89 61.8732 38.875 62.0732 38.875H64.3082C64.4182 38.875 64.5482 38.89 64.6982 38.92C64.8482 38.95 64.9782 39.02 65.0882 39.13C65.2282 39.24 65.3282 39.365 65.3882 39.505C65.4482 39.645 65.4782 39.805 65.4782 39.985V56.89ZM50.7032 48.49C50.7032 49.15 50.8032 49.77 51.0032 50.35C51.2132 50.92 51.5082 51.415 51.8882 51.835C52.2682 52.255 52.7232 52.59 53.2532 52.84C53.7932 53.08 54.3882 53.2 55.0382 53.2C55.7082 53.2 56.3282 53.08 56.8982 52.84C57.4782 52.59 57.9782 52.255 58.3982 51.835C58.8282 51.415 59.1632 50.92 59.4032 50.35C59.6432 49.77 59.7632 49.15 59.7632 48.49C59.7632 47.85 59.6432 47.24 59.4032 46.66C59.1632 46.08 58.8282 45.57 58.3982 45.13C57.9782 44.69 57.4782 44.345 56.8982 44.095C56.3282 43.835 55.7082 43.705 55.0382 43.705C54.3882 43.705 53.7932 43.835 53.2532 44.095C52.7232 44.345 52.2682 44.69 51.8882 45.13C51.5082 45.57 51.2132 46.08 51.0032 46.66C50.8032 47.24 50.7032 47.85 50.7032 48.49ZM69.0614 40.12C69.0614 39.8 69.1514 39.525 69.3314 39.295C69.5114 39.065 69.7914 38.95 70.1714 38.95H73.6064C73.7264 38.95 73.8564 38.98 73.9964 39.04C74.1364 39.09 74.2664 39.17 74.3864 39.28C74.5064 39.38 74.6064 39.5 74.6864 39.64C74.7764 39.78 74.8214 39.94 74.8214 40.12V56.845C74.8214 57.225 74.7164 57.515 74.5064 57.715C74.2964 57.905 73.9964 58 73.6064 58H70.1714C69.4314 58 69.0614 57.615 69.0614 56.845V40.12ZM69.0614 32.53C69.0614 32.11 69.1514 31.815 69.3314 31.645C69.5114 31.465 69.7914 31.375 70.1714 31.375H73.6514C74.0014 31.375 74.2814 31.465 74.4914 31.645C74.7114 31.815 74.8214 32.11 74.8214 32.53V35.455C74.8214 35.575 74.7914 35.705 74.7314 35.845C74.6814 35.985 74.6064 36.12 74.5064 36.25C74.4064 36.38 74.2814 36.49 74.1314 36.58C73.9914 36.66 73.8314 36.7 73.6514 36.7H70.1714C69.4314 36.7 69.0614 36.285 69.0614 35.455V32.53ZM78.4221 40.06C78.4221 39.87 78.4571 39.705 78.5271 39.565C78.5971 39.425 78.6871 39.31 78.7971 39.22C78.9171 39.13 79.0471 39.065 79.1871 39.025C79.3371 38.975 79.4821 38.95 79.6221 38.95H81.8871C82.1371 38.95 82.3371 39.025 82.4871 39.175C82.6371 39.325 82.7621 39.515 82.8621 39.745C82.9721 39.975 83.0671 40.23 83.1471 40.51C83.2271 40.79 83.3221 41.06 83.4321 41.32C83.7321 40.99 84.0271 40.665 84.3171 40.345C84.6171 40.025 84.9371 39.74 85.2771 39.49C85.6171 39.24 85.9871 39.04 86.3871 38.89C86.7971 38.73 87.2621 38.65 87.7821 38.65C88.3221 38.65 88.8021 38.69 89.2221 38.77C89.6521 38.85 90.0571 38.97 90.4371 39.13C90.8171 39.28 91.1921 39.475 91.5621 39.715C91.9421 39.955 92.3521 40.235 92.7921 40.555C93.2221 40.805 93.4371 41.1 93.4371 41.44C93.4371 41.66 93.3521 41.915 93.1821 42.205L91.8171 44.53C91.5471 44.92 91.2121 45.115 90.8121 45.115C90.6121 45.115 90.3871 45.06 90.1371 44.95C89.7071 44.53 89.2671 44.22 88.8171 44.02C88.3771 43.81 87.8721 43.705 87.3021 43.705C86.9121 43.705 86.5671 43.76 86.2671 43.87C85.9771 43.98 85.7121 44.135 85.4721 44.335C85.2321 44.535 85.0071 44.775 84.7971 45.055C84.5871 45.335 84.3771 45.645 84.1671 45.985V56.845C84.1671 57.225 84.0721 57.515 83.8821 57.715C83.7021 57.905 83.3971 58 82.9671 58H79.5921C78.8121 58 78.4221 57.615 78.4221 56.845V40.06ZM107.433 52.135C107.573 52.035 107.703 51.975 107.823 51.955C107.953 51.925 108.053 51.91 108.123 51.91C108.293 51.91 108.448 51.945 108.588 52.015C108.728 52.085 108.873 52.235 109.023 52.465L110.703 55C110.753 55.08 110.798 55.17 110.838 55.27C110.888 55.37 110.913 55.45 110.913 55.51C110.913 55.74 110.838 55.93 110.688 56.08C110.548 56.22 110.393 56.345 110.223 56.455C109.403 57.025 108.503 57.485 107.523 57.835C106.553 58.175 105.523 58.345 104.433 58.345C103.533 58.345 102.663 58.23 101.823 58C100.993 57.77 100.218 57.445 99.4985 57.025C98.7785 56.595 98.1185 56.085 97.5185 55.495C96.9185 54.895 96.4085 54.23 95.9885 53.5C95.5685 52.77 95.2385 51.985 94.9985 51.145C94.7685 50.295 94.6535 49.41 94.6535 48.49C94.6535 47.57 94.7685 46.685 94.9985 45.835C95.2385 44.985 95.5685 44.2 95.9885 43.48C96.4085 42.75 96.9185 42.09 97.5185 41.5C98.1185 40.9 98.7785 40.39 99.4985 39.97C100.218 39.55 100.993 39.225 101.823 38.995C102.663 38.765 103.533 38.65 104.433 38.65C105.523 38.65 106.528 38.795 107.448 39.085C108.378 39.375 109.248 39.805 110.058 40.375L110.013 40.33C110.233 40.46 110.408 40.615 110.538 40.795C110.668 40.965 110.733 41.18 110.733 41.44C110.733 41.62 110.673 41.805 110.553 41.995L109.218 44.26C108.938 44.75 108.598 44.995 108.198 44.995C108.108 44.995 107.998 44.975 107.868 44.935C107.738 44.885 107.593 44.805 107.433 44.695C106.993 44.405 106.518 44.17 106.008 43.99C105.508 43.8 104.973 43.705 104.403 43.705C103.773 43.705 103.193 43.835 102.663 44.095C102.133 44.345 101.678 44.69 101.298 45.13C100.928 45.57 100.638 46.08 100.428 46.66C100.218 47.24 100.113 47.85 100.113 48.49C100.113 49.15 100.218 49.77 100.428 50.35C100.638 50.92 100.928 51.415 101.298 51.835C101.678 52.255 102.133 52.59 102.663 52.84C103.193 53.08 103.773 53.2 104.403 53.2C104.973 53.2 105.508 53.1 106.008 52.9C106.508 52.7 106.983 52.445 107.433 52.135ZM113.754 34.435C113.754 34.115 113.834 33.845 113.994 33.625C114.154 33.405 114.429 33.295 114.819 33.295H118.494C118.594 33.295 118.699 33.325 118.809 33.385C118.919 33.435 119.019 33.51 119.109 33.61C119.209 33.71 119.289 33.83 119.349 33.97C119.419 34.11 119.454 34.265 119.454 34.435V56.845C119.454 57.225 119.344 57.515 119.124 57.715C118.914 57.905 118.639 58 118.299 58H114.819C114.429 58 114.154 57.905 113.994 57.715C113.834 57.515 113.754 57.225 113.754 56.845V34.435ZM142.646 56.89C142.646 57.06 142.616 57.225 142.556 57.385C142.496 57.535 142.396 57.655 142.256 57.745C142.146 57.855 142.016 57.925 141.866 57.955C141.716 57.985 141.586 58 141.476 58H138.521C138.311 58 138.141 57.975 138.011 57.925C137.881 57.865 137.776 57.785 137.696 57.685C137.616 57.585 137.546 57.465 137.486 57.325C137.436 57.175 137.381 57.015 137.321 56.845L137.126 56.17C136.856 56.44 136.546 56.705 136.196 56.965C135.856 57.225 135.476 57.46 135.056 57.67C134.646 57.87 134.201 58.03 133.721 58.15C133.251 58.28 132.761 58.345 132.251 58.345C131.341 58.345 130.466 58.23 129.626 58C128.796 57.77 128.016 57.445 127.286 57.025C126.566 56.595 125.911 56.085 125.321 55.495C124.731 54.895 124.221 54.23 123.791 53.5C123.371 52.77 123.046 51.985 122.816 51.145C122.586 50.295 122.471 49.41 122.471 48.49C122.471 47.1 122.726 45.81 123.236 44.62C123.746 43.42 124.441 42.38 125.321 41.5C126.201 40.61 127.236 39.915 128.426 39.415C129.616 38.905 130.891 38.65 132.251 38.65C132.871 38.65 133.446 38.72 133.976 38.86C134.516 39 135.006 39.19 135.446 39.43C135.896 39.67 136.301 39.96 136.661 40.3C137.021 40.63 137.336 40.99 137.606 41.38L138.041 40.015C138.141 39.765 138.221 39.565 138.281 39.415C138.351 39.255 138.421 39.14 138.491 39.07C138.571 38.99 138.666 38.94 138.776 38.92C138.886 38.89 139.041 38.875 139.241 38.875H141.476C141.586 38.875 141.716 38.89 141.866 38.92C142.016 38.95 142.146 39.02 142.256 39.13C142.396 39.24 142.496 39.365 142.556 39.505C142.616 39.645 142.646 39.805 142.646 39.985V56.89ZM127.871 48.49C127.871 49.15 127.971 49.77 128.171 50.35C128.381 50.92 128.676 51.415 129.056 51.835C129.436 52.255 129.891 52.59 130.421 52.84C130.961 53.08 131.556 53.2 132.206 53.2C132.876 53.2 133.496 53.08 134.066 52.84C134.646 52.59 135.146 52.255 135.566 51.835C135.996 51.415 136.331 50.92 136.571 50.35C136.811 49.77 136.931 49.15 136.931 48.49C136.931 47.85 136.811 47.24 136.571 46.66C136.331 46.08 135.996 45.57 135.566 45.13C135.146 44.69 134.646 44.345 134.066 44.095C133.496 43.835 132.876 43.705 132.206 43.705C131.556 43.705 130.961 43.835 130.421 44.095C129.891 44.345 129.436 44.69 129.056 45.13C128.676 45.57 128.381 46.08 128.171 46.66C127.971 47.24 127.871 47.85 127.871 48.49ZM149.094 52.075C149.364 52.345 149.654 52.575 149.964 52.765C150.284 52.945 150.589 53.095 150.879 53.215C151.169 53.325 151.424 53.405 151.644 53.455C151.864 53.505 152.014 53.53 152.094 53.53C152.284 53.53 152.524 53.525 152.814 53.515C153.114 53.495 153.399 53.45 153.669 53.38C153.939 53.3 154.169 53.175 154.359 53.005C154.559 52.835 154.659 52.595 154.659 52.285C154.659 52.005 154.604 51.785 154.494 51.625C154.384 51.455 154.224 51.315 154.014 51.205C153.804 51.085 153.544 50.98 153.234 50.89C152.934 50.8 152.594 50.695 152.214 50.575C151.014 50.255 150.024 49.87 149.244 49.42C148.464 48.97 147.844 48.47 147.384 47.92C146.934 47.36 146.619 46.76 146.439 46.12C146.259 45.48 146.169 44.805 146.169 44.095C146.169 43.265 146.334 42.51 146.664 41.83C146.994 41.15 147.464 40.57 148.074 40.09C148.684 39.6 149.414 39.225 150.264 38.965C151.114 38.695 152.059 38.56 153.099 38.56C153.729 38.56 154.319 38.615 154.869 38.725C155.419 38.825 155.944 38.99 156.444 39.22C156.944 39.44 157.429 39.73 157.899 40.09C158.379 40.44 158.854 40.86 159.324 41.35C159.494 41.55 159.579 41.74 159.579 41.92C159.589 42.09 159.479 42.275 159.249 42.475C158.859 42.795 158.484 43.11 158.124 43.42C157.774 43.73 157.409 44.075 157.029 44.455C156.909 44.555 156.789 44.62 156.669 44.65C156.549 44.67 156.434 44.665 156.324 44.635C156.214 44.605 156.109 44.555 156.009 44.485C155.909 44.415 155.819 44.33 155.739 44.23C155.389 43.84 154.989 43.58 154.539 43.45C154.089 43.31 153.669 43.24 153.279 43.24C152.789 43.24 152.399 43.325 152.109 43.495C151.819 43.665 151.684 43.925 151.704 44.275C151.724 44.535 151.819 44.74 151.989 44.89C152.169 45.03 152.384 45.145 152.634 45.235C152.894 45.325 153.164 45.4 153.444 45.46C153.734 45.51 153.999 45.57 154.239 45.64C155.139 45.93 155.964 46.245 156.714 46.585C157.464 46.925 158.114 47.345 158.664 47.845C159.214 48.335 159.639 48.925 159.939 49.615C160.249 50.305 160.404 51.145 160.404 52.135C160.404 53.125 160.204 54.01 159.804 54.79C159.414 55.57 158.874 56.225 158.184 56.755C157.494 57.285 156.674 57.69 155.724 57.97C154.784 58.25 153.769 58.39 152.679 58.39C152.059 58.39 151.429 58.335 150.789 58.225C150.149 58.115 149.529 57.94 148.929 57.7C148.329 57.45 147.759 57.135 147.219 56.755C146.679 56.365 146.199 55.895 145.779 55.345C145.669 55.205 145.584 55.06 145.524 54.91C145.474 54.75 145.449 54.595 145.449 54.445C145.459 54.295 145.489 54.16 145.539 54.04C145.599 53.91 145.689 53.8 145.809 53.71L147.744 51.775C147.984 51.575 148.194 51.505 148.374 51.565C148.564 51.625 148.804 51.795 149.094 52.075ZM166.467 52.075C166.737 52.345 167.027 52.575 167.337 52.765C167.657 52.945 167.962 53.095 168.252 53.215C168.542 53.325 168.797 53.405 169.017 53.455C169.237 53.505 169.387 53.53 169.467 53.53C169.657 53.53 169.897 53.525 170.187 53.515C170.487 53.495 170.772 53.45 171.042 53.38C171.312 53.3 171.542 53.175 171.732 53.005C171.932 52.835 172.032 52.595 172.032 52.285C172.032 52.005 171.977 51.785 171.867 51.625C171.757 51.455 171.597 51.315 171.387 51.205C171.177 51.085 170.917 50.98 170.607 50.89C170.307 50.8 169.967 50.695 169.587 50.575C168.387 50.255 167.397 49.87 166.617 49.42C165.837 48.97 165.217 48.47 164.757 47.92C164.307 47.36 163.992 46.76 163.812 46.12C163.632 45.48 163.542 44.805 163.542 44.095C163.542 43.265 163.707 42.51 164.037 41.83C164.367 41.15 164.837 40.57 165.447 40.09C166.057 39.6 166.787 39.225 167.637 38.965C168.487 38.695 169.432 38.56 170.472 38.56C171.102 38.56 171.692 38.615 172.242 38.725C172.792 38.825 173.317 38.99 173.817 39.22C174.317 39.44 174.802 39.73 175.272 40.09C175.752 40.44 176.227 40.86 176.697 41.35C176.867 41.55 176.952 41.74 176.952 41.92C176.962 42.09 176.852 42.275 176.622 42.475C176.232 42.795 175.857 43.11 175.497 43.42C175.147 43.73 174.782 44.075 174.402 44.455C174.282 44.555 174.162 44.62 174.042 44.65C173.922 44.67 173.807 44.665 173.697 44.635C173.587 44.605 173.482 44.555 173.382 44.485C173.282 44.415 173.192 44.33 173.112 44.23C172.762 43.84 172.362 43.58 171.912 43.45C171.462 43.31 171.042 43.24 170.652 43.24C170.162 43.24 169.772 43.325 169.482 43.495C169.192 43.665 169.057 43.925 169.077 44.275C169.097 44.535 169.192 44.74 169.362 44.89C169.542 45.03 169.757 45.145 170.007 45.235C170.267 45.325 170.537 45.4 170.817 45.46C171.107 45.51 171.372 45.57 171.612 45.64C172.512 45.93 173.337 46.245 174.087 46.585C174.837 46.925 175.487 47.345 176.037 47.845C176.587 48.335 177.012 48.925 177.312 49.615C177.622 50.305 177.777 51.145 177.777 52.135C177.777 53.125 177.577 54.01 177.177 54.79C176.787 55.57 176.247 56.225 175.557 56.755C174.867 57.285 174.047 57.69 173.097 57.97C172.157 58.25 171.142 58.39 170.052 58.39C169.432 58.39 168.802 58.335 168.162 58.225C167.522 58.115 166.902 57.94 166.302 57.7C165.702 57.45 165.132 57.135 164.592 56.755C164.052 56.365 163.572 55.895 163.152 55.345C163.042 55.205 162.957 55.06 162.897 54.91C162.847 54.75 162.822 54.595 162.822 54.445C162.832 54.295 162.862 54.16 162.912 54.04C162.972 53.91 163.062 53.8 163.182 53.71L165.117 51.775C165.357 51.575 165.567 51.505 165.747 51.565C165.937 51.625 166.177 51.795 166.467 52.075Z" fill="#14C6FF"/>
<path d="M184.526 58.138C184.036 58.138 183.576 58.0153 183.146 57.77C182.748 57.5247 182.426 57.2027 182.18 56.804C181.935 56.3747 181.812 55.8993 181.812 55.378C181.812 54.8567 181.935 54.3967 182.18 53.998C182.426 53.5687 182.748 53.2313 183.146 52.986C183.576 52.7407 184.036 52.618 184.526 52.618C185.017 52.618 185.462 52.7407 185.86 52.986C186.29 53.2313 186.627 53.5687 186.872 53.998C187.148 54.3967 187.286 54.8567 187.286 55.378C187.286 55.8993 187.148 56.3747 186.872 56.804C186.627 57.2027 186.29 57.5247 185.86 57.77C185.462 58.0153 185.017 58.138 184.526 58.138Z" fill="#FF1976"/>
<defs>
<filter id="filter0_d" x="0" y="0" width="76.9091" height="90" filterUnits="userSpaceOnUse" color-interpolation-filters="sRGB">
<feFlood flood-opacity="0" result="BackgroundImageFix"/>
<feColorMatrix in="SourceAlpha" type="matrix" values="0 0 0 0 0 0 0 0 0 0 0 0 0 0 0 0 0 0 127 0"/>
<feOffset dy="4"/>
<feGaussianBlur stdDeviation="10.5"/>
<feColorMatrix type="matrix" values="0 0 0 0 0.117647 0 0 0 0 0.176471 0 0 0 0 0.337255 0 0 0 0.14 0"/>
<feBlend mode="normal" in2="BackgroundImageFix" result="effect1_dropShadow"/>
<feBlend mode="normal" in="SourceGraphic" in2="effect1_dropShadow" result="shape"/>
</filter>
<clipPath id="clip0">
<rect width="34.9091" height="48" fill="white" transform="translate(21 17)"/>
</clipPath>
</defs>
</svg>
