<svg width="178" height="229" viewBox="0 0 178 229" fill="none" xmlns="http://www.w3.org/2000/svg">
<g clip-path="url(#clip0)" filter="url(#filter0_d)">
<path d="M56.526 106.029C48.6703 101.782 47.8697 95.4371 44.0168 96.0367C28.6055 98.4847 28.4554 201.052 44.0168 203.95C53.0235 205.649 60.9293 172.775 80.0433 172.975C91.4017 173.075 105.762 184.815 106.563 185.465C113.268 191.01 116.92 196.656 124.076 196.956C128.129 197.106 132.032 195.507 134.583 193.459C143.19 186.464 140.087 170.527 138.086 154.49C132.082 106.428 140.838 95.4371 132.082 90.0415C115.269 79.6498 81.1441 119.418 56.526 106.029Z" fill="white"/>
<path d="M89.0501 131.008C119.531 131.008 144.241 108.752 144.241 81.2983C144.241 53.8441 119.531 31.5881 89.0501 31.5881C58.5692 31.5881 33.8595 53.8441 33.8595 81.2983C33.8595 108.752 58.5692 131.008 89.0501 131.008Z" fill="white"/>
<path d="M55.7256 108.826C57.2267 113.972 41.1649 123.515 34.0096 127.511C33.7594 127.811 32.3584 129.46 29.9566 129.66C28.4055 129.81 26.8543 129.41 25.5534 128.361L23.2016 126.462C20.6498 124.364 20.2495 120.567 22.351 118.019C27.2546 109.826 32.1082 101.632 37.0118 93.4387C39.0633 93.8384 41.2149 94.288 43.4665 94.8876C45.0177 95.2872 46.4688 95.7369 47.8698 96.1865L50.2215 98.085C50.7219 98.9843 51.4724 100.383 52.3731 102.132C54.4746 106.178 55.5254 108.177 55.7256 108.826Z" fill="white"/>
<path d="M145.842 122.415C132.432 120.067 123.475 113.872 122.074 109.526C121.024 106.228 121.274 103.031 121.274 103.031C121.424 101.132 121.874 99.5835 122.274 98.5344L123.976 96.0863C125.227 95.287 126.528 94.4377 127.879 93.6383C130.681 91.9397 133.433 90.3909 136.085 89.042C142.189 96.0863 148.344 103.131 154.448 110.125C157.15 112.024 157.801 115.771 155.899 118.468L154.198 120.916C152.297 123.664 148.544 124.314 145.842 122.415Z" fill="white"/>
<path d="M77.0411 33.5868C74.3891 26.0928 85.3472 15.901 88.0492 17.1C90.9513 18.399 86.6482 33.8865 87.5488 34.0864C88.0992 34.1863 88.4995 28.1911 92.5525 23.5948C98.9072 16.4505 110.916 16.4006 111.566 18.0992C112.067 19.4981 104.862 20.9469 101.559 28.0912C99.3575 32.8374 101.159 35.2354 99.0573 37.5836C94.7541 42.4297 79.6931 41.0808 77.0411 33.5868Z" fill="white"/>
<path d="M133.082 82.5472C133.433 89.1918 130.03 97.4852 123.325 99.7833C117.771 101.682 112.467 98.6343 108.314 96.2862C104.311 93.988 96.8057 89.7414 96.0551 82.5472C95.2045 74.2039 103.711 64.062 114.569 64.062C125.127 64.062 132.632 73.6044 133.082 82.5472Z" stroke="#14C6FF" stroke-width="7" stroke-miterlimit="10"/>
<path d="M84.7969 81.2982C84.2965 88.4924 77.5916 92.9388 74.7895 94.7873C72.2877 96.436 62.6806 102.831 54.7748 98.2845C48.5702 94.6874 47.2192 86.544 47.7696 81.2982C48.6703 72.8549 55.6254 62.813 66.2832 62.813C76.891 62.813 85.4473 72.6551 84.7969 81.2982Z" stroke="#14C6FF" stroke-width="7" stroke-miterlimit="10"/>
<path d="M111.567 90.0413C114.054 90.0413 116.07 86.798 116.07 82.7972C116.07 78.7963 114.054 75.553 111.567 75.553C109.079 75.553 107.063 78.7963 107.063 82.7972C107.063 86.798 109.079 90.0413 111.567 90.0413Z" fill="black"/>
<path d="M90.251 137.403C105.063 137.403 117.071 126.577 117.071 113.223C117.071 99.868 105.063 89.042 90.251 89.042C75.4389 89.042 63.4313 99.868 63.4313 113.223C63.4313 126.577 75.4389 137.403 90.251 137.403Z" fill="white"/>
<path d="M88.7999 111.524C92.8069 111.524 96.0552 109.511 96.0552 107.028C96.0552 104.544 92.8069 102.531 88.7999 102.531C84.7929 102.531 81.5446 104.544 81.5446 107.028C81.5446 109.511 84.7929 111.524 88.7999 111.524Z" fill="black"/>
<path d="M110.566 53.1711C106.513 51.4725 102.86 52.9712 102.76 52.5216C102.66 52.022 107.163 49.4241 111.166 50.9729C115.169 52.5716 116.67 57.5176 116.27 57.8174C115.92 58.0672 114.419 54.7698 110.566 53.1711Z" fill="black"/>
<path d="M70.5364 51.5224C66.2833 52.6215 64.2318 55.9688 63.8815 55.6691C63.5312 55.3193 65.5327 50.5732 69.6858 49.4241C73.8388 48.275 78.0419 51.3725 77.8918 51.8222C77.7417 52.2218 74.5894 50.5232 70.5364 51.5224Z" fill="black"/>
<path d="M72.0376 89.5416C74.5247 89.5416 76.5409 86.2983 76.5409 82.2974C76.5409 78.2966 74.5247 75.0532 72.0376 75.0532C69.5505 75.0532 67.5343 78.2966 67.5343 82.2974C67.5343 86.2983 69.5505 89.5416 72.0376 89.5416Z" fill="black"/>
<path d="M72.738 80.0492C73.6776 80.0492 74.4393 79.2663 74.4393 78.3006C74.4393 77.3349 73.6776 76.552 72.738 76.552C71.7984 76.552 71.0367 77.3349 71.0367 78.3006C71.0367 79.2663 71.7984 80.0492 72.738 80.0492Z" fill="#FDFEFF"/>
<path d="M112.267 80.0492C113.207 80.0492 113.968 79.2663 113.968 78.3006C113.968 77.3349 113.207 76.552 112.267 76.552C111.328 76.552 110.566 77.3349 110.566 78.3006C110.566 79.2663 111.328 80.0492 112.267 80.0492Z" fill="#FDFEFF"/>
<path d="M93.5533 137.004C96.8057 138.103 97.3561 139.502 101.559 142.499C106.313 145.897 111.567 149.594 115.069 148.495C121.524 146.446 124.426 127.312 118.071 123.015C112.317 119.118 104.862 131.308 88.5496 131.508C72.4378 131.658 65.1824 119.918 58.5275 124.014C51.7726 128.211 51.7726 144.997 58.0272 148.495C62.4304 150.943 70.5364 147.196 75.0397 143.499C78.242 140.851 78.5923 139.052 82.0448 137.503C87.4989 135.055 92.9028 136.804 93.5533 137.004Z" fill="#FF1976"/>
<path d="M103.561 111.524C103.161 111.224 101.259 115.221 97.3562 116.47C96.7058 116.67 93.5034 117.719 91.4019 115.821C90.6513 115.121 90.1509 114.172 89.9508 113.073C90.1509 112.124 90.1509 111.174 90.0509 110.325C90.1509 109.925 90.251 109.576 90.4011 109.176C90.201 109.076 90.0008 108.926 89.8007 108.826C89.6506 108.127 89.4504 107.627 89.4004 107.527C89.1002 107.727 88.7999 107.877 88.4497 108.077C88.1495 107.877 87.8492 107.727 87.499 107.527C87.4489 107.627 87.2988 108.127 87.0987 108.826C86.8985 108.926 86.6984 109.076 86.4982 109.176C86.6484 109.576 86.7484 109.925 86.8485 110.325C86.7484 111.174 86.7484 112.124 86.9486 113.073C86.7484 114.172 86.2481 115.121 85.4975 115.821C83.396 117.719 80.1436 116.67 79.5431 116.47C75.6403 115.221 73.7389 111.224 73.3386 111.524C73.0884 111.674 73.7389 113.073 74.3393 114.022C75.4401 115.771 76.8912 116.72 77.5417 117.12C78.2922 117.569 82.045 119.618 85.8478 118.019C86.3481 117.819 87.4489 117.319 88.3996 116.22C89.3503 117.319 90.4512 117.819 90.9515 118.019C94.7543 119.668 98.5071 117.569 99.2576 117.12C99.9581 116.72 101.359 115.771 102.46 114.022C103.161 113.073 103.811 111.674 103.561 111.524Z" fill="black"/>
<path d="M97.056 88.5428C96.3554 87.9933 93.8536 86.0448 90.0508 86.0448C89.1501 86.0448 85.9478 86.1447 83.0457 88.5428C83.1958 86.8941 83.3959 85.1955 83.546 83.5468C84.4467 82.9473 86.7984 81.5984 90.0508 81.5484C92.9529 81.4985 95.1045 82.4977 96.0552 83.0472C96.4055 84.8958 96.7057 86.6943 97.056 88.5428Z" fill="#14C6FF"/>
<path d="M47.2321 85.3751L32.6309 88.8523L33.7917 93.7119L48.3929 90.2347L47.2321 85.3751Z" fill="#14C6FF"/>
<path d="M146.501 91.3272L132.445 86.0664L130.689 90.7447L144.745 96.0054L146.501 91.3272Z" fill="#14C6FF"/>
<path d="M88.5497 142.499C92.6949 142.499 96.0552 139.144 96.0552 135.005C96.0552 130.866 92.6949 127.511 88.5497 127.511C84.4045 127.511 81.0442 130.866 81.0442 135.005C81.0442 139.144 84.4045 142.499 88.5497 142.499Z" fill="#FF1976"/>
</g>
<defs>
<filter id="filter0_d" x="0" y="0" width="178" height="229" filterUnits="userSpaceOnUse" color-interpolation-filters="sRGB">
<feFlood flood-opacity="0" result="BackgroundImageFix"/>
<feColorMatrix in="SourceAlpha" type="matrix" values="0 0 0 0 0 0 0 0 0 0 0 0 0 0 0 0 0 0 127 0"/>
<feOffset dy="4"/>
<feGaussianBlur stdDeviation="10.5"/>
<feColorMatrix type="matrix" values="0 0 0 0 0.117647 0 0 0 0 0.176471 0 0 0 0 0.337255 0 0 0 0.14 0"/>
<feBlend mode="normal" in2="BackgroundImageFix" result="effect1_dropShadow"/>
<feBlend mode="normal" in="SourceGraphic" in2="effect1_dropShadow" result="shape"/>
</filter>
<clipPath id="clip0">
<rect width="136" height="187" fill="white" transform="translate(21 17)"/>
</clipPath>
</defs>
</svg>
